<?xml version="1.0" encoding="UTF-8"?>
<svg width="80px" height="80px" viewBox="0 0 80 80" version="1.1" xmlns="http://www.w3.org/2000/svg" xmlns:xlink="http://www.w3.org/1999/xlink">
    <title>icon-retail</title>
    <g id="icon-retail" stroke="none" stroke-width="1" fill="none" fill-rule="evenodd">
        <path d="M68.48225,49.0121458 L62.7880833,49.0121458 L64.1699583,38.5411042 L71.8262083,38.5411042 L69.6157917,48.1113125 C69.4937083,48.6419375 69.0274583,49.0121458 68.48225,49.0121458 L68.48225,49.0121458 Z M31.33225,23.2325625 L32.7449583,33.8511042 L23.632875,33.8511042 L20.7593333,23.1894375 L31.33225,23.2325625 Z M51.12225,33.8511042 L51.12225,23.3123542 L61.4437083,23.3538125 L60.0585,33.8511042 L51.12225,33.8511042 Z M37.4764167,33.8511042 L36.066,23.2521458 L46.43225,23.2936042 L46.43225,33.8511042 L37.4764167,33.8511042 Z M28.6987083,49.0121458 L28.6914167,49.0121458 C28.1201667,49.0121458 27.6164167,48.6271458 27.4674583,48.0779792 L24.8974583,38.5411042 L33.369125,38.5411042 L34.76225,49.0121458 L28.6987083,49.0121458 Z M39.4937083,49.0121458 L38.1005833,38.5411042 L46.43225,38.5411042 L46.43225,49.0121458 L39.4937083,49.0121458 Z M51.12225,49.0121458 L51.12225,38.5411042 L59.4393333,38.5411042 L58.0574583,49.0121458 L51.12225,49.0121458 Z M75.2987083,23.4271458 C75.3124583,23.4450625 75.3099583,23.4529792 75.3076667,23.4661042 L72.9093333,33.8511042 L64.789125,33.8511042 L66.1718333,23.3725625 L75.262875,23.4090208 C75.276625,23.4100625 75.28475,23.4100625 75.2987083,23.4271458 L75.2987083,23.4271458 Z M63.595375,70.6763125 C61.656,70.6763125 60.07725,69.0975625 60.07725,67.1583958 C60.07725,65.2377708 61.6251667,63.6727708 63.5385,63.6419375 L63.65225,63.6419375 C65.5664167,63.6727708 67.1135,65.2377708 67.1135,67.1583958 C67.1135,69.0975625 65.535375,70.6763125 63.595375,70.6763125 L63.595375,70.6763125 Z M37.4764167,67.1598542 C37.4764167,69.0992292 35.8982917,70.6771458 33.959125,70.6771458 C32.0189167,70.6771458 30.441,69.0992292 30.441,67.1598542 C30.441,65.2206875 32.0174583,63.6433958 33.9557917,63.6419375 L33.961625,63.6419375 C35.8999583,63.6433958 37.4764167,65.2206875 37.4764167,67.1598542 L37.4764167,67.1598542 Z M23.1257917,58.9519375 C19.6305833,58.7736042 19.6964167,53.8575625 23.1257917,53.6865208 C32.8393333,53.7200625 58.460375,53.6954792 68.48225,53.7029792 C71.2239167,53.7029792 73.5693333,51.8369375 74.1862083,49.1667292 L79.8770417,24.5217292 C80.2026667,23.1104792 79.8739167,21.6504792 78.9745417,20.5152708 C78.075375,19.3800625 76.7293333,18.7200625 75.281625,18.7200625 C71.249125,18.7200625 37.0239167,18.5652708 19.4937083,18.4954792 L16.715375,8.18464583 C16.0480833,5.72047917 13.7995417,3.99985417 11.246625,3.99985417 L2.345375,3.99985417 C1.04975,3.99985417 -4.16666663e-05,5.04964583 -4.16666663e-05,6.34464583 C-4.16666663e-05,7.6400625 1.04975,8.68985417 2.345375,8.68985417 L11.246625,8.68985417 C11.6862083,8.68985417 12.0735,8.98610417 12.1874583,9.4075625 L22.85975,49.0031875 C20.9830833,49.0713125 19.2349583,49.8340208 17.9101667,51.1792292 C16.5176667,52.5921458 15.76975,54.4629792 15.8039167,56.4471458 C15.8730833,60.4142292 19.1576667,63.6419375 23.1257917,63.6419375 L26.5445417,63.6419375 C26.0368333,64.7088125 25.751,65.9008958 25.751,67.1590208 C25.751,71.6854792 29.4335,75.3671458 33.959125,75.3671458 C38.48475,75.3671458 42.1670417,71.6854792 42.1670417,67.1590208 C42.1670417,65.9008958 41.8814167,64.7088125 41.372875,63.6419375 L56.1807917,63.6419375 C55.6730833,64.7079792 55.3874583,65.9002708 55.3874583,67.1583958 C55.3874583,71.6838125 59.06975,75.3663125 63.595375,75.3663125 C68.121,75.3663125 71.8032917,71.6838125 71.8032917,67.1583958 C71.8032917,65.8513125 71.494125,64.6158958 70.9489167,63.5181875 C71.876625,63.2056875 72.5464167,62.3300625 72.5464167,61.2965208 C72.5464167,60.0017292 71.4957917,58.9519375 70.201,58.9519375 L23.1257917,58.9519375 Z" id="Fill-1" fill="#96C121"></path>
    </g>
</svg>