<?xml version="1.0" encoding="UTF-8"?>
<svg width="80px" height="80px" viewBox="0 0 80 80" version="1.1" xmlns="http://www.w3.org/2000/svg" xmlns:xlink="http://www.w3.org/1999/xlink">
    <title>icon-food-service</title>
    <g id="icon-food-service" stroke="none" stroke-width="1" fill="none" fill-rule="evenodd">
        <g id="Group-9" transform="translate(10.000000, 0.000000)" fill="#96C121">
            <path d="M5.16129032,20.6451613 C4.44870968,20.6451613 3.87096774,21.2229032 3.87096774,21.9354839 L3.87096774,43.8709677 C3.87096774,44.5835484 4.44870968,45.1612903 5.16129032,45.1612903 C5.87387097,45.1612903 6.4516129,44.5835484 6.4516129,43.8709677 L6.4516129,21.9354839 C6.4516129,21.2229032 5.87387097,20.6451613 5.16129032,20.6451613" id="Fill-1"></path>
            <path d="M5.16129032,15.483871 C4.44870968,15.483871 3.87096774,16.0616129 3.87096774,16.7741935 L3.87096774,18.0645161 C3.87096774,18.7770968 4.44870968,19.3548387 5.16129032,19.3548387 C5.87387097,19.3548387 6.4516129,18.7770968 6.4516129,18.0645161 L6.4516129,16.7741935 C6.4516129,16.0616129 5.87387097,15.483871 5.16129032,15.483871" id="Fill-3"></path>
            <path d="M6.4516129,77.4193548 L10.3225806,77.4193548 L10.3225806,74.8387097 L6.4516129,74.8387097 L6.4516129,77.4193548 Z M6.4516129,72.2580645 L10.3225806,72.2580645 L10.3225806,55.483871 L6.4516129,55.483871 L6.4516129,72.2580645 Z M9.03225806,52.9032258 L10.3225806,52.9032258 L10.3225806,49.0322581 L9.03225806,49.0322581 L9.03225806,52.9032258 Z M2.58064516,14.1935484 C2.58064516,9.54193548 6.09435484,3.75258065 10.3225806,2.73693548 L10.3225806,46.4516129 L2.58064516,46.4516129 L2.58064516,14.1935484 Z M11.6129032,0 C5.18080645,0 0,7.76532258 0,14.1935484 L0,47.7419355 C0,48.4545161 0.577741935,49.0322581 1.29032258,49.0322581 L6.4516129,49.0322581 L6.4516129,52.9032258 L5.16129032,52.9032258 C4.44870968,52.9032258 3.87096774,53.4809677 3.87096774,54.1935484 L3.87096774,78.7096774 C3.87096774,79.4222581 4.44870968,80 5.16129032,80 L11.6129032,80 C12.3254839,80 12.9032258,79.4222581 12.9032258,78.7096774 L12.9032258,1.29032258 C12.9032258,0.577741935 12.3254839,0 11.6129032,0 L11.6129032,0 Z" id="Fill-5"></path>
            <path d="M25.8064516,27.0967742 C21.5366129,27.0967742 18.0645161,22.1767742 18.0645161,16.1290323 C18.0645161,10.0812903 21.5366129,5.16129032 25.8064516,5.16129032 C30.0762903,5.16129032 33.5483871,10.0812903 33.5483871,16.1290323 C33.5483871,22.1767742 30.0762903,27.0967742 25.8064516,27.0967742 L25.8064516,27.0967742 Z M24.516129,47.7419355 L27.0967742,47.7419355 L27.0967742,29.6774194 L24.516129,29.6774194 L24.516129,47.7419355 Z M23.2258065,77.4193548 L28.3870968,77.4193548 L28.3870968,50.3225806 L23.2258065,50.3225806 L23.2258065,77.4193548 Z M25.8064516,2.58064516 C20.1146774,2.58064516 15.483871,8.65806452 15.483871,16.1290323 C15.483871,21.8062903 18.1570968,26.6645161 21.9354839,28.68 L21.9354839,47.7419355 C21.2229032,47.7419355 20.6451613,48.3196774 20.6451613,49.0322581 L20.6451613,78.7096774 C20.6451613,79.4222581 21.2229032,80 21.9354839,80 L29.6774194,80 C30.39,80 30.9677419,79.4222581 30.9677419,78.7096774 L30.9677419,49.0322581 C30.9677419,48.3196774 30.39,47.7419355 29.6774194,47.7419355 L29.6774194,28.68 C33.4558065,26.6645161 36.1290323,21.8025806 36.1290323,16.1290323 C36.1290323,8.65806452 31.4982258,2.58064516 25.8064516,2.58064516 L25.8064516,2.58064516 Z" id="Fill-7"></path>
            <path d="M58.0645161,16.7741935 C58.0645161,22.4659677 54.3019355,27.0967742 49.6774194,27.0967742 C45.0529032,27.0967742 41.2903226,22.4659677 41.2903226,16.7741935 L41.2903226,6.4516129 L42.5806452,6.4516129 L42.5806452,16.7741935 C42.5806452,17.4867742 43.1583871,18.0645161 43.8709677,18.0645161 L47.7419355,18.0645161 C48.4545161,18.0645161 49.0322581,17.4867742 49.0322581,16.7741935 L49.0322581,6.4516129 L50.3225806,6.4516129 L50.3225806,16.7741935 C50.3225806,17.4867742 50.9003226,18.0645161 51.6129032,18.0645161 L55.483871,18.0645161 C56.1964516,18.0645161 56.7741935,17.4867742 56.7741935,16.7741935 L56.7741935,6.4516129 L58.0645161,6.4516129 L58.0645161,16.7741935 Z M47.7419355,47.7419355 L50.3225806,47.7419355 L50.3225806,29.6774194 L47.7419355,29.6774194 L47.7419355,47.7419355 Z M46.4516129,77.4193548 L51.6129032,77.4193548 L51.6129032,50.3225806 L46.4516129,50.3225806 L46.4516129,77.4193548 Z M59.3548387,3.87096774 L55.483871,3.87096774 C54.7712903,3.87096774 54.1935484,4.44870968 54.1935484,5.16129032 L54.1935484,15.483871 L52.9032258,15.483871 L52.9032258,5.16129032 C52.9032258,4.44870968 52.3254839,3.87096774 51.6129032,3.87096774 L47.7419355,3.87096774 C47.0293548,3.87096774 46.4516129,4.44870968 46.4516129,5.16129032 L46.4516129,15.483871 L45.1612903,15.483871 L45.1612903,5.16129032 C45.1612903,4.44870968 44.5835484,3.87096774 43.8709677,3.87096774 L40,3.87096774 C39.2874194,3.87096774 38.7096774,4.44870968 38.7096774,5.16129032 L38.7096774,16.7741935 C38.5629032,21.5706452 41.033871,26.0679032 45.1612903,28.5162903 L45.1612903,47.7419355 C44.4487097,47.7419355 43.8709677,48.3196774 43.8709677,49.0322581 L43.8709677,78.7096774 C43.8709677,79.4222581 44.4487097,80 45.1612903,80 L52.9032258,80 C53.6158065,80 54.1935484,79.4222581 54.1935484,78.7096774 L54.1935484,49.0322581 C54.1935484,48.3196774 53.6158065,47.7419355 52.9032258,47.7419355 L52.9032258,29.1059677 C57.3809677,27.4835484 60.6451613,22.5693548 60.6451613,16.7741935 L60.6451613,5.16129032 C60.6451613,4.44870968 60.0674194,3.87096774 59.3548387,3.87096774 L59.3548387,3.87096774 Z" id="Fill-8"></path>
        </g>
    </g>
</svg>