<?xml version="1.0" encoding="UTF-8"?>
<svg width="24px" height="24px" viewBox="0 0 24 24" version="1.1" xmlns="http://www.w3.org/2000/svg" xmlns:xlink="http://www.w3.org/1999/xlink">
    <!-- Generator: Sketch 56.2 (81672) - https://sketch.com -->
    <title>icon-linked-in</title>
    <desc>Created with Sketch.</desc>
    <g id="icon-linked-in" stroke="none" stroke-width="1" fill="none" fill-rule="evenodd">
        <path d="M3.70312592,20.0937516 L7.31250085,20.0937516 L7.31250085,9.24999931 L3.70312592,9.24999931 L3.70312592,20.0937516 Z M7.54687484,5.90624988 C7.53645884,5.36457939 7.34896035,4.9166704 6.98437488,4.5625019 C6.61979136,4.20833341 6.13541937,4.03125092 5.53124938,4.03125092 C4.9270794,4.03125092 4.43489891,4.20833341 4.05468692,4.5625019 C3.67447842,4.9166704 3.48437488,5.36457939 3.48437488,5.90624988 C3.48437488,6.43750437 3.66927042,6.88280936 4.03906292,7.24218935 C4.40885541,7.60156584 4.8906234,7.78124884 5.48437488,7.78124884 L5.50000139,7.78124884 C6.11458737,7.78124884 6.60937186,7.60156584 6.98437488,7.24218935 C7.35937635,6.88280936 7.54687484,6.43750437 7.54687484,5.90624988 Z M16.6874992,20.0937516 L20.2968748,20.0937516 L20.2968748,13.8750007 C20.2968748,12.2708247 19.9166691,11.0572978 19.1562486,10.2343743 C18.3958281,9.4114543 17.3906316,9.00000131 16.1406242,9.00000131 C14.7239502,9.00000131 13.6354187,9.6093688 12.8749982,10.8281248 L12.9062497,10.8281248 L12.9062497,9.24999931 L9.29687481,9.24999931 C9.32812631,9.93750429 9.32812631,13.5520522 9.29687481,20.0937516 L12.9062497,20.0937516 L12.9062497,14.0312512 C12.9062497,13.6354152 12.9427092,13.3437497 13.0156247,13.1562512 C13.1718752,12.7916667 13.4062492,12.4817732 13.7187502,12.2265637 C14.0312512,11.9713543 14.4166642,11.8437513 14.8749997,11.8437513 C16.0833397,11.8437513 16.6874992,12.6614492 16.6874992,14.2968767 L16.6874992,20.0937516 Z M24,4.5 L24,19.5 C24,20.7395898 23.5598995,21.7994748 22.679688,22.6796877 C21.799473,23.5599002 20.7395891,24 19.5,24 L4.5,24 C3.26041023,24 2.2005252,23.5599002 1.32031232,22.6796877 C0.440099791,21.7994748 0,20.7395898 0,19.5 L0,4.5 C0,3.26041093 0.440099791,2.20052695 1.32031232,1.32031197 C2.2005252,0.440100491 3.26041023,0 4.5,0 L19.5,0 C20.7395891,0 21.799473,0.440100491 22.679688,1.32031197 C23.5598995,2.20052695 24,3.26041093 24,4.5 Z" id="icon-linkedin" fill="#414731"></path>
    </g>
</svg>