<?xml version="1.0" encoding="UTF-8"?>
<svg width="80px" height="80px" viewBox="0 0 80 80" version="1.1" xmlns="http://www.w3.org/2000/svg" xmlns:xlink="http://www.w3.org/1999/xlink">
    <title>icon-manufacturing</title>
    <g id="icon-manufacturing" stroke="none" stroke-width="1" fill="none" fill-rule="evenodd">
        <g id="Group-13" fill="#FFFFFF">
            <path d="M15.6666667,61.3333333 L18.3333333,61.3333333 L18.3333333,58.6666667 L15.6666667,58.6666667 L15.6666667,61.3333333 Z M14.3333333,64 L19.6666667,64 C20.4026667,64 21,63.4026667 21,62.6666667 L21,57.3333333 C21,56.5971111 20.4026667,56 19.6666667,56 L14.3333333,56 C13.5973333,56 13,56.5971111 13,57.3333333 L13,62.6666667 C13,63.4026667 13.5973333,64 14.3333333,64 L14.3333333,64 Z" id="Fill-1"></path>
            <path d="M26.6666667,61.3333333 L29.3333333,61.3333333 L29.3333333,58.6666667 L26.6666667,58.6666667 L26.6666667,61.3333333 Z M25.3333333,64 L30.6666667,64 C31.4026667,64 32,63.4026667 32,62.6666667 L32,57.3333333 C32,56.5971111 31.4026667,56 30.6666667,56 L25.3333333,56 C24.5973333,56 24,56.5971111 24,57.3333333 L24,62.6666667 C24,63.4026667 24.5973333,64 25.3333333,64 L25.3333333,64 Z" id="Fill-3"></path>
            <path d="M26.6666667,72.3333333 L29.3333333,72.3333333 L29.3333333,69.6666667 L26.6666667,69.6666667 L26.6666667,72.3333333 Z M25.3333333,75 L30.6666667,75 C31.4026667,75 32,74.4028889 32,73.6666667 L32,68.3333333 C32,67.5971111 31.4026667,67 30.6666667,67 L25.3333333,67 C24.5973333,67 24,67.5971111 24,68.3333333 L24,73.6666667 C24,74.4028889 24.5973333,75 25.3333333,75 L25.3333333,75 Z" id="Fill-4"></path>
            <path d="M37.6666667,72.3333333 L40.3333333,72.3333333 L40.3333333,69.6666667 L37.6666667,69.6666667 L37.6666667,72.3333333 Z M36.3333333,75 L41.6666667,75 C42.4026667,75 43,74.4028889 43,73.6666667 L43,68.3333333 C43,67.5971111 42.4026667,67 41.6666667,67 L36.3333333,67 C35.5973333,67 35,67.5971111 35,68.3333333 L35,73.6666667 C35,74.4028889 35.5973333,75 36.3333333,75 L36.3333333,75 Z" id="Fill-5"></path>
            <path d="M37.6666667,61.3333333 L40.3333333,61.3333333 L40.3333333,58.6666667 L37.6666667,58.6666667 L37.6666667,61.3333333 Z M36.3333333,64 L41.6666667,64 C42.4026667,64 43,63.4026667 43,62.6666667 L43,57.3333333 C43,56.5971111 42.4026667,56 41.6666667,56 L36.3333333,56 C35.5973333,56 35,56.5971111 35,57.3333333 L35,62.6666667 C35,63.4026667 35.5973333,64 36.3333333,64 L36.3333333,64 Z" id="Fill-6"></path>
            <path d="M47.6666667,61.3333333 L50.3333333,61.3333333 L50.3333333,58.6666667 L47.6666667,58.6666667 L47.6666667,61.3333333 Z M46.3333333,64 L51.6666667,64 C52.4026667,64 53,63.4026667 53,62.6666667 L53,57.3333333 C53,56.5971111 52.4026667,56 51.6666667,56 L46.3333333,56 C45.5971111,56 45,56.5971111 45,57.3333333 L45,62.6666667 C45,63.4026667 45.5971111,64 46.3333333,64 L46.3333333,64 Z" id="Fill-7"></path>
            <path d="M58.6666667,61.3333333 L61.3333333,61.3333333 L61.3333333,58.6666667 L58.6666667,58.6666667 L58.6666667,61.3333333 Z M57.3333333,64 L62.6666667,64 C63.4026667,64 64,63.4026667 64,62.6666667 L64,57.3333333 C64,56.5971111 63.4026667,56 62.6666667,56 L57.3333333,56 C56.5971111,56 56,56.5971111 56,57.3333333 L56,62.6666667 C56,63.4026667 56.5971111,64 57.3333333,64 L57.3333333,64 Z" id="Fill-8"></path>
            <path d="M69.6666667,61.3333333 L72.3333333,61.3333333 L72.3333333,58.6666667 L69.6666667,58.6666667 L69.6666667,61.3333333 Z M68.3333333,64 L73.6666667,64 C74.4026667,64 75,63.4026667 75,62.6666667 L75,57.3333333 C75,56.5971111 74.4026667,56 73.6666667,56 L68.3333333,56 C67.5971111,56 67,56.5971111 67,57.3333333 L67,62.6666667 C67,63.4026667 67.5971111,64 68.3333333,64 L68.3333333,64 Z" id="Fill-9"></path>
            <path d="M69.6666667,72.3333333 L72.3333333,72.3333333 L72.3333333,69.6666667 L69.6666667,69.6666667 L69.6666667,72.3333333 Z M68.3333333,75 L73.6666667,75 C74.4026667,75 75,74.4028889 75,73.6666667 L75,68.3333333 C75,67.5971111 74.4026667,67 73.6666667,67 L68.3333333,67 C67.5971111,67 67,67.5971111 67,68.3333333 L67,73.6666667 C67,74.4028889 67.5971111,75 68.3333333,75 L68.3333333,75 Z" id="Fill-10"></path>
            <path d="M15.6666667,72.3333333 L18.3333333,72.3333333 L18.3333333,69.6666667 L15.6666667,69.6666667 L15.6666667,72.3333333 Z M14.3333333,75 L19.6666667,75 C20.4026667,75 21,74.4028889 21,73.6666667 L21,68.3333333 C21,67.5971111 20.4026667,67 19.6666667,67 L14.3333333,67 C13.5973333,67 13,67.5971111 13,68.3333333 L13,73.6666667 C13,74.4028889 13.5973333,75 14.3333333,75 L14.3333333,75 Z" id="Fill-11"></path>
            <path d="M77.3333333,77.3333333 L64,77.3333333 L64,68 C64,67.2637778 63.4026667,66.6666667 62.6666667,66.6666667 L46.6666667,66.6666667 C45.9306667,66.6666667 45.3333333,67.2637778 45.3333333,68 L45.3333333,77.3333333 L10.6666667,77.3333333 L10.6666667,53.3333333 L77.3333333,53.3333333 L77.3333333,77.3333333 Z M48,77.3333333 L61.3333333,77.3333333 L61.3333333,69.3333333 L48,69.3333333 L48,77.3333333 Z M8,52 L8,77.3333333 L2.66666667,77.3333333 L2.66666667,32.7186667 L24,42.1995556 L24,50.6666667 L9.33333333,50.6666667 C8.59733333,50.6666667 8,51.264 8,52 L8,52 Z M14.6233333,8 L17.3766667,8 L18.336,36.764 L13.7326667,34.7186667 L14.6233333,8 Z M14.6666667,5.33333333 L17.3333333,5.33333333 L17.3333333,2.66666667 L14.6666667,2.66666667 L14.6666667,5.33333333 Z M26.6666667,32.7186667 L48,42.1995556 L48,50.6666667 L26.6666667,50.6666667 L26.6666667,32.7186667 Z M38.6233333,8 L41.3766667,8 L42.336,36.764 L37.7326667,34.7186667 L38.6233333,8 Z M38.6666667,5.33333333 L41.3333333,5.33333333 L41.3333333,2.66666667 L38.6666667,2.66666667 L38.6666667,5.33333333 Z M50.6666667,32.7186667 L72,42.1995556 L72,50.6666667 L50.6666667,50.6666667 L50.6666667,32.7186667 Z M78.6666667,50.6666667 L74.6666667,50.6666667 L74.6666667,41.3333333 C74.6666667,40.8064444 74.3566667,40.3288889 73.8748889,40.1146667 L49.8748889,29.448 C49.4626667,29.2646667 48.9853333,29.3028889 48.6066667,29.5486667 C48.2282222,29.7942222 48,30.2153333 48,30.6666667 L48,39.2813333 L45.0442222,37.9677778 L44,6.644 L44,1.33333333 C44,0.597333333 43.4026667,0 42.6666667,0 L37.3333333,0 C36.5973333,0 36,0.597333333 36,1.33333333 L36,6.644 L35.1033333,33.5504444 L25.8751111,29.4488889 C25.4626667,29.2655556 24.9853333,29.3028889 24.6066667,29.5486667 C24.2282222,29.7951111 24,30.2153333 24,30.6666667 L24,39.2813333 L21.0442222,37.9677778 L20,6.644 L20,1.33333333 C20,0.597333333 19.4026667,0 18.6666667,0 L13.3333333,0 C12.5973333,0 12,0.597333333 12,1.33333333 L12,6.644 L11.1033333,33.5504444 L1.87511111,29.4488889 C1.46266667,29.2655556 0.985333333,29.3028889 0.606666667,29.5486667 C0.228222222,29.7951111 0,30.2153333 0,30.6666667 L0,78.6666667 C0,79.4028889 0.597333333,80 1.33333333,80 L78.6666667,80 C79.4028889,80 80,79.4028889 80,78.6666667 L80,52 C80,51.264 79.4028889,50.6666667 78.6666667,50.6666667 L78.6666667,50.6666667 Z" id="Fill-12"></path>
        </g>
    </g>
</svg>