<?xml version="1.0" encoding="UTF-8"?>
<svg width="80px" height="80px" viewBox="0 0 80 80" version="1.1" xmlns="http://www.w3.org/2000/svg" xmlns:xlink="http://www.w3.org/1999/xlink">
    <title>icon-healthcare</title>
    <g id="icon-healthcare" stroke="none" stroke-width="1" fill="none" fill-rule="evenodd">
        <path d="M48.5139583,63.6590283 C45.7795833,65.987826 42.96625,68.3850687 40,70.9651095 C37.03375,68.3850687 34.2204167,65.987826 31.4860417,63.6590283 C24.709375,57.8871157 18.8989583,52.9375858 14.4377083,48.2562016 L21.25,48.2562016 C22.2272917,48.2562016 23.1014583,47.6489613 23.4447917,46.7328841 L28.0345833,34.4733083 L33.068125,51.2788391 C33.3610417,52.2585618 34.2554167,52.9359164 35.2766667,52.9513583 L35.3125,52.9513583 C36.32,52.9513583 37.216875,52.3059307 37.5358333,51.3464494 L40.4345833,42.6376641 L42.5910417,46.9586689 C42.9883333,47.7541328 43.7995833,48.2562016 44.6875,48.2562016 C45.5754167,48.2562016 46.3866667,47.7541328 46.7835417,46.9586689 L51.71875,37.0727557 L56.6535417,46.9586689 C57.0508333,47.7541328 57.8620833,48.2562016 58.75,48.2562016 L65.5622917,48.2562016 C61.1010417,52.9375858 55.2904167,57.8871157 48.5139583,63.6590283 M4.6875,28.9305193 C4.6875,18.5339816 11.8075,10.6951567 21.25,10.6951567 C26.0554167,10.6951567 30.28,12.6147454 33.8045833,16.4000851 C36.5454167,19.3434267 37.8222917,22.3629341 37.8352083,22.3931918 C38.1966667,23.267743 39.0495833,23.8359613 39.9952083,23.8388827 L40.0016667,23.8388827 C40.9464583,23.8388827 41.8008333,23.2669083 42.1654167,22.3931918 C42.1777083,22.3629341 43.4545833,19.3434267 46.1954167,16.4000851 C49.72,12.6147454 53.944375,10.6951567 58.75,10.6951567 C68.1925,10.6951567 75.3125,18.5339816 75.3125,28.9305193 C75.3125,34.1381784 73.2714583,38.8064162 69.623125,43.5610449 L60.1985417,43.5610449 L53.815,30.7733161 C53.4179167,29.9778522 52.6066667,29.4757835 51.71875,29.4757835 C50.8308333,29.4757835 50.0195833,29.9778522 49.6222917,30.7733161 L44.6875,40.6592294 L42.0960417,35.4684728 C41.6722917,34.6189625 40.7829167,34.1097988 39.8339583,34.1763657 C38.8883333,34.2443933 38.07625,34.8752137 37.7766667,35.7756404 L35.4304167,42.8267224 L30.525625,26.4533546 C30.236875,25.4882391 29.3652083,24.8154753 28.3602083,24.7820875 C27.3560417,24.7501604 26.4404167,25.3599048 26.0864583,26.3039443 L19.625625,43.5610449 L10.376875,43.5610449 C6.72854167,38.8064162 4.6875,34.1381784 4.6875,28.9305193 M77.65625,43.5610449 L75.401875,43.5610449 C78.3658333,38.9808674 80,34.275277 80,28.9305193 C80,22.849561 77.9102083,17.1533969 74.1145833,12.8908206 C70.15875,8.44711567 64.7020833,6 58.75,6 C52.61875,6 47.0491667,8.53475859 42.6439583,13.331122 C41.57625,14.4936428 40.6989583,15.6565809 40,16.7009925 C39.3010417,15.6565809 38.42375,14.4936428 37.3560417,13.331122 C32.9508333,8.53475859 27.38125,6 21.25,6 C15.2979167,6 9.84125,8.44711567 5.88541667,12.8908206 C2.08979167,17.1533969 -7.10542736e-15,22.849561 -7.10542736e-15,28.9305193 C-7.10542736e-15,34.275277 1.63416667,38.9808674 4.59791667,43.5610449 L2.34375,43.5610449 C1.04895833,43.5610449 -7.10542736e-15,44.6119253 -7.10542736e-15,45.9086232 C-7.10542736e-15,47.2055299 1.04895833,48.2562016 2.34375,48.2562016 L8.10958333,48.2562016 C13.0639583,54.1301556 20.0585417,60.0888311 28.4497917,67.235903 C31.6414583,69.9542944 34.9422917,72.7657542 38.4570833,75.8459857 C38.898125,76.233284 39.4489583,76.4273504 40,76.4273504 C40.5508333,76.4273504 41.101875,76.233284 41.54375,75.8459857 C45.0577083,72.7657542 48.3585417,69.9542944 51.5510417,67.235903 C59.9414583,60.0888311 66.9360417,54.1301556 71.8904167,48.2562016 L77.65625,48.2562016 C78.9510417,48.2562016 80,47.2055299 80,45.9086232 C80,44.6119253 78.9510417,43.5610449 77.65625,43.5610449" id="Fill-1" fill="#96C121"></path>
    </g>
</svg>