<?xml version="1.0" encoding="UTF-8"?>
<svg width="80px" height="80px" viewBox="0 0 80 80" version="1.1" xmlns="http://www.w3.org/2000/svg" xmlns:xlink="http://www.w3.org/1999/xlink">
    <title>icon-marketing</title>
    <g id="icon-marketing" stroke="none" stroke-width="1" fill="none" fill-rule="evenodd">
        <path d="M75,40.0004133 C75,49.3488183 71.3595007,58.1386499 64.7492782,64.7491572 C58.1380224,71.3594578 49.3491212,75 40,75 C30.6517054,75 21.8617709,71.3594578 15.2515484,64.7491572 C8.64132585,58.1386499 5,49.3488183 5,40.0004133 C5,30.6511817 8.64132585,21.8621767 15.2515484,15.2510495 C21.8617709,8.64054225 30.6517054,5 40,5 C45.4350213,5 51.0184152,6.36905219 56.0087323,8.8914146 L49.6623979,15.2388572 C49.6557852,15.2444367 49.6502058,15.2510495 49.6446263,15.2574556 C46.6618843,14.068395 43.4815878,13.4854371 40,13.4854371 C25.3805551,13.4854371 13.4861635,25.3799692 13.4861635,40.0004133 C13.4861635,54.6200308 25.3805551,66.5145629 40,66.5145629 C54.6202715,66.5145629 66.5144564,54.6200308 66.5144564,40.0004133 C66.5144564,36.7264671 66.0278029,33.8145706 65.0051071,31.0386493 C65.0301114,31.0169512 65.0551157,30.9958729 65.0784668,30.9723149 L71.4400931,24.6108202 C73.7762368,29.3807013 75,34.6444745 75,40.0004133 L75,40.0004133 Z M64.6191095,7 L66,10.996039 L54.9448738,22 L54,17.6408903 L64.6191095,7 Z M49,40.0003078 C49,44.9627396 44.9628988,49 39.9995895,49 C35.0373065,49 31,44.9627396 31,40.0003078 C31,35.0370552 35.0373065,31 39.9995895,31 C41.6527262,31 43.2014001,31.449451 44.5339657,32.2305517 L38.2920667,38.4307182 C37.3878184,39.3292098 37.3828928,40.7908491 38.2815999,41.695908 C38.7329031,42.1496688 39.3262263,42.3772675 39.9195494,42.3772675 C40.5077418,42.3772675 41.0963446,42.1535681 41.546006,41.7063746 L47.7911887,35.5027193 C48.5583426,36.8272658 49,38.3625822 49,40.0003078 L49,40.0003078 Z M62,40.0004158 C62,52.1303456 52.1304603,62 39.9995842,62 C27.8687081,62 18,52.1303456 18,40.0004158 C18,27.8698623 27.8687081,18 39.9995842,18 C43.652736,18 46.76592,18.7214751 49.7466591,20.2596516 L50.9528022,25.8116831 L47.9866175,28.7574638 C45.7311029,27.1510902 42.9738777,26.2046479 39.9995842,26.2046479 C32.3924204,26.2046479 26.2038938,32.3935319 26.2038938,40.0004158 C26.2038938,47.6072998 32.3924204,53.7953521 39.9995842,53.7953521 C47.60654,53.7953521 53.7952745,47.6072998 53.7952745,40.0004158 C53.7952745,37.0531797 52.865457,34.3184357 51.2848502,32.0743779 L54.2088271,29.1701808 L59.960722,30.7137632 C61.3494188,33.5574562 62,36.5236129 62,40.0004158 L62,40.0004158 Z M63.6836089,27 L59,25.6490413 L69.9097503,14 L74,15.911873 L63.6836089,27 Z M79.3134656,16.8336286 C79.8620096,16.2849939 80.1036773,15.500813 79.9586767,14.7387276 C79.8147178,13.9766423 79.3020072,13.3350398 78.5915875,13.0254947 L70.6911369,9.58798106 L67.918625,1.57795521 C67.6548739,0.814410705 67.0159128,0.241179095 66.2298678,0.0596210106 C65.4429894,-0.12131173 64.6186108,0.115693484 64.0471501,0.687257512 L59.5785892,5.15846407 C53.5654384,1.82955178 46.6741588,0.0106357639 39.9724633,0.0106357639 C29.2953341,0.0106357639 19.2579994,4.17042122 11.7073419,11.725197 C4.15772619,19.2789304 0,29.322782 0,40.0057348 C0,50.6878537 4.15772619,60.7317053 11.7081753,68.2854388 C19.2579994,75.8400061 29.2961675,80 39.9732967,80 C50.6504259,80 60.6877606,75.8400061 68.2384181,68.2854388 C75.7880338,60.7317053 79.94576,50.6886875 79.94576,40.0057348 C79.94576,33.3502031 78.2913779,26.8199486 75.1484477,21.0019604 L79.3134656,16.8336286 Z" id="Fill-1" fill="#FFFFFF"></path>
    </g>
</svg>