<?xml version="1.0" encoding="UTF-8"?>
<svg width="24px" height="17px" viewBox="0 0 24 17" version="1.1" xmlns="http://www.w3.org/2000/svg" xmlns:xlink="http://www.w3.org/1999/xlink">
    <!-- Generator: Sketch 55.2 (78181) - https://sketchapp.com -->
    <title>icon-vcard</title>
    <desc>Created with Sketch.</desc>
    <g id="icon-vcard" stroke="none" stroke-width="1" fill="none" fill-rule="evenodd">
        <g>
            <path d="M22.8046866,0.5 L1.19531253,0.5 C1.00139822,0.5 0.848016486,0.564651584 0.707151815,0.707152733 C0.565184813,0.850769039 0.5,1.00903084 0.5,1.20920361 L0.5,15.767085 C0.5,15.9847465 0.566414282,16.1504725 0.70715267,16.2928466 C0.848017204,16.4353483 1.00139853,16.5 1.19531253,16.5 L22.8046866,16.5 C22.9986018,16.5 23.1519824,16.4353486 23.2928478,16.2928453 C23.4335861,16.1504723 23.5,15.9847474 23.5,15.767085 L23.5,1.20920361 C23.5,1.00903002 23.4348156,0.85076924 23.2928464,0.707151846 C23.1519831,0.564651296 22.9986021,0.5 22.8046866,0.5 Z" id="Path" stroke="#9FA295"></path>
            <rect id="Rectangle" fill="#9FA295" x="3" y="6" width="11" height="1"></rect>
            <rect id="Rectangle" fill="#9FA295" x="3" y="9" width="14" height="1"></rect>
            <rect id="Rectangle" fill="#9FA295" x="3" y="12" width="7" height="1"></rect>
        </g>
    </g>
</svg>