<?xml version="1.0" encoding="UTF-8"?>
<svg width="20px" height="20px" viewBox="0 0 20 20" version="1.1" xmlns="http://www.w3.org/2000/svg" xmlns:xlink="http://www.w3.org/1999/xlink">
    <!-- Generator: Sketch 55.2 (78181) - https://sketchapp.com -->
    <title>icon-circle-x</title>
    <desc>Created with Sketch.</desc>
    <g id="icon-circle-x" stroke="none" stroke-width="1" fill="none" fill-rule="evenodd">
        <path d="M0,10 C0,8.63888267 0.26388624,7.34202133 0.791666667,6.109376 C1.3194472,4.87673067 2.02950933,3.81424 2.92187467,2.92187467 C3.81424,2.02950933 4.87673067,1.319448 6.109376,0.791666667 C7.34202133,0.263885333 8.63888267,0 10,0 C11.3541733,0 12.6492987,0.263885333 13.885416,0.791666667 C15.1215333,1.319448 16.18576,2.02950933 17.0781253,2.92187467 C17.9704907,3.81424 18.680552,4.87673067 19.2083333,6.109376 C19.7361147,7.34202133 20,8.63888267 20,10 C20,11.3541733 19.7361147,12.6492987 19.2083333,13.885416 C18.680552,15.1215333 17.9704907,16.18576 17.0781253,17.0781253 C16.18576,17.9704907 15.1215333,18.6805528 13.885416,19.2083333 C12.6492987,19.7361138 11.3541733,20 10,20 C8.63888267,20 7.34202133,19.7361138 6.109376,19.2083333 C4.87673067,18.6805528 3.81424,17.9704907 2.92187467,17.0781253 C2.02950933,16.18576 1.3194472,15.1215333 0.791666667,13.885416 C0.26388624,12.6492987 0,11.3541733 0,10 Z M11.4142136,10 L14.9497475,6.46446609 L13.5355339,5.05025253 L10,8.58578644 L6.46446609,5.05025253 L5.05025253,6.46446609 L8.58578644,10 L5.05025253,13.5355339 L6.46446609,14.9497475 L10,11.4142136 L13.5355339,14.9497475 L14.9497475,13.5355339 L11.4142136,10 Z" id="Path-2" fill="#9FA295"></path>
    </g>
</svg>