<?xml version="1.0" encoding="UTF-8"?>
<svg width="1440px" height="1000px" viewBox="0 0 1440 1000" version="1.1" xmlns="http://www.w3.org/2000/svg" xmlns:xlink="http://www.w3.org/1999/xlink">
    <!-- Generator: Sketch 55.2 (78181) - https://sketchapp.com -->
    <title>stripes</title>
    <desc>Created with Sketch.</desc>
    <g id="stripes" stroke="none" stroke-width="1" fill="none" fill-rule="evenodd">
        <g id="Stripes" transform="translate(-606.000000, 330.000000)" fill="#383A32">
            <rect id="Rectangle" transform="translate(963.439185, 569.931689) scale(1, -1) rotate(15.000000) translate(-963.439185, -569.931689) " x="697.439185" y="552.931689" width="532" height="34" rx="17"></rect>
            <rect id="Rectangle" transform="translate(554.939185, 679.948726) scale(1, -1) rotate(15.000000) translate(-554.939185, -679.948726) " x="466.439185" y="662.948726" width="177" height="34" rx="17"></rect>
            <rect id="Rectangle" transform="translate(1081.939185, 367.931689) scale(1, -1) rotate(15.000000) translate(-1081.939185, -367.931689) " x="1031.43919" y="350.931689" width="101" height="34" rx="17"></rect>
            <rect id="Rectangle" transform="translate(1526.939185, 475.931689) scale(1, -1) rotate(15.000000) translate(-1526.939185, -475.931689) " x="1476.43919" y="458.931689" width="101" height="34" rx="17"></rect>
            <rect id="Rectangle" transform="translate(765.439185, 679.931689) scale(1, -1) rotate(15.000000) translate(-765.439185, -679.931689) " x="616.439185" y="662.931689" width="298" height="34" rx="17"></rect>
            <rect id="Rectangle" transform="translate(705.439185, 582.931689) scale(1, -1) rotate(15.000000) translate(-705.439185, -582.931689) " x="439.439185" y="565.931689" width="532" height="34" rx="17"></rect>
            <rect id="Rectangle" transform="translate(892.206590, 475.384117) scale(1, -1) rotate(15.000000) translate(-892.206590, -475.384117) " x="647.70659" y="458.384117" width="489" height="34" rx="17"></rect>
            <rect id="Rectangle" transform="translate(1695.547332, 316.955270) scale(1, -1) rotate(15.000000) translate(-1695.547332, -316.955270) " x="1441.04733" y="299.95527" width="509" height="34" rx="17"></rect>
            <rect id="Rectangle" transform="translate(1497.194741, 426.872832) scale(1, -1) rotate(15.000000) translate(-1497.194741, -426.872832) " x="1238.69474" y="409.872832" width="517" height="34" rx="17"></rect>
            <rect id="Rectangle" transform="translate(2044.439185, 280.931689) scale(1, -1) rotate(15.000000) translate(-2044.439185, -280.931689) " x="1778.43919" y="263.931689" width="532" height="34" rx="17"></rect>
            <rect id="Rectangle" transform="translate(1414.439185, 278.931689) scale(1, -1) rotate(15.000000) translate(-1414.439185, -278.931689) " x="1148.43919" y="261.931689" width="532" height="34" rx="17"></rect>
            <rect id="Rectangle" transform="translate(2066.722155, 104.289602) scale(1, -1) rotate(15.000000) translate(-2066.722155, -104.289602) " x="1733.72215" y="87.2896022" width="666" height="34" rx="17"></rect>
            <rect id="Rectangle" transform="translate(1859.439185, 386.931689) scale(1, -1) rotate(15.000000) translate(-1859.439185, -386.931689) " x="1593.43919" y="369.931689" width="532" height="34" rx="17"></rect>
            <rect id="Rectangle" transform="translate(710.439185, 473.948726) scale(1, -1) rotate(15.000000) translate(-710.439185, -473.948726) " x="444.439185" y="456.948726" width="532" height="34" rx="17"></rect>
            <rect id="Rectangle" transform="translate(1210.376961, 560.661175) scale(1, -1) rotate(15.000000) translate(-1210.376961, -560.661175) " x="960.876961" y="543.661175" width="499" height="34" rx="17"></rect>
            <rect id="Rectangle" transform="translate(1142.439185, 464.931689) scale(1, -1) rotate(15.000000) translate(-1142.439185, -464.931689) " x="983.439185" y="447.931689" width="318" height="34" rx="17"></rect>
            <rect id="Rectangle" transform="translate(1423.439185, 332.931689) scale(1, -1) rotate(15.000000) translate(-1423.439185, -332.931689) " x="1264.43919" y="315.931689" width="318" height="34" rx="17"></rect>
            <rect id="Rectangle" transform="translate(1362.439185, 405.931689) scale(1, -1) rotate(15.000000) translate(-1362.439185, -405.931689) " x="1322.43919" y="388.931689" width="80" height="34" rx="17"></rect>
            <rect id="Rectangle" transform="translate(1643.439185, 273.931689) scale(1, -1) rotate(15.000000) translate(-1643.439185, -273.931689) " x="1603.43919" y="256.931689" width="80" height="34" rx="17"></rect>
            <rect id="Rectangle" transform="translate(1965.439185, 187.931689) scale(1, -1) rotate(15.000000) translate(-1965.439185, -187.931689) " x="1699.43919" y="170.931689" width="532" height="34" rx="17"></rect>
            <rect id="Rectangle" transform="translate(1292.439185, 716.948726) scale(1, -1) rotate(15.000000) translate(-1292.439185, -716.948726) " x="1026.43919" y="699.948726" width="532" height="34" rx="17"></rect>
            <rect id="Rectangle" transform="translate(1629.890154, 682.982963) scale(1, -1) rotate(15.000000) translate(-1629.890154, -682.982963) " x="1363.89015" y="665.982963" width="532" height="34" rx="17"></rect>
            <rect id="Rectangle" transform="translate(1201.013258, 626.713488) scale(1, -1) rotate(15.000000) translate(-1201.013258, -626.713488) " x="776.013258" y="609.713488" width="850" height="34" rx="17"></rect>
            <rect id="Rectangle" transform="translate(1228.890154, 675.982963) scale(1, -1) rotate(15.000000) translate(-1228.890154, -675.982963) " x="1188.89015" y="658.982963" width="80" height="34" rx="17"></rect>
            <rect id="Rectangle" transform="translate(1550.890154, 589.982963) scale(1, -1) rotate(15.000000) translate(-1550.890154, -589.982963) " x="1284.89015" y="572.982963" width="532" height="34" rx="17"></rect>
            <rect id="Rectangle" transform="translate(2156.890154, 538.982963) scale(1, -1) rotate(15.000000) translate(-2156.890154, -538.982963) " x="1890.89015" y="521.982963" width="532" height="34" rx="17"></rect>
            <rect id="Rectangle" transform="translate(1958.890154, 648.982963) scale(1, -1) rotate(15.000000) translate(-1958.890154, -648.982963) " x="1809.89015" y="631.982963" width="298" height="34" rx="17"></rect>
            <rect id="Rectangle" transform="translate(1898.890154, 551.982963) scale(1, -1) rotate(15.000000) translate(-1898.890154, -551.982963) " x="1632.89015" y="534.982963" width="532" height="34" rx="17"></rect>
            <rect id="Rectangle" transform="translate(2178.890154, 418.982963) scale(1, -1) rotate(15.000000) translate(-2178.890154, -418.982963) " x="1912.89015" y="401.982963" width="532" height="34" rx="17"></rect>
            <rect id="Rectangle" transform="translate(1941.890154, 425.982963) scale(1, -1) rotate(15.000000) translate(-1941.890154, -425.982963) " x="1675.89015" y="408.982963" width="532" height="34" rx="17"></rect>
        </g>
    </g>
</svg>