<?xml version="1.0" encoding="UTF-8"?>
<svg width="1077px" height="1077px" viewBox="0 0 1077 1077" version="1.1" xmlns="http://www.w3.org/2000/svg" xmlns:xlink="http://www.w3.org/1999/xlink">
    <!-- Generator: Sketch 55.2 (78181) - https://sketchapp.com -->
    <title>sunburst-gold</title>
    <desc>Created with Sketch.</desc>
    <g id="sunburst-gold" stroke="none" stroke-width="1" fill="none" fill-rule="evenodd" opacity="0.200000003">
        <path d="M1062.75228,605.719802 L623.384044,546.875595 C623.384044,546.875595 1031.13792,574.559174 1034.37382,574.780541 C1042.36158,575.327635 1047.78688,573.902977 1048.99619,572.979559 C1047.93231,571.864816 1042.75046,569.750757 1034.73424,569.195757 C1032.36778,569.036056 766.050952,550.966149 624.798857,541.38252 L1007.82117,542.052947 C1015.82791,542.068759 1021.17416,540.269358 1022.28388,539.303248 C1021.1789,538.278633 1015.83897,536.485556 1007.83224,536.469744 L623.761855,535.728163 L1034.89074,509.557789 C1042.88482,509.12296 1048.07774,507.000995 1049.13213,505.853047 C1047.94179,504.939116 1042.5165,503.470185 1034.52399,504.015697 L624.076433,530.110174 L1063.02418,473.103317 C1070.97716,472.137206 1075.98829,469.648403 1077,468.502036 C1075.72588,467.600755 1070.2579,466.566652 1062.30491,467.575455 L622.697978,524.621843 C622.697978,524.621843 1023.69711,445.672729 1026.88084,445.048157 C1034.73582,443.506491 1039.60783,440.723586 1040.53576,439.518714 C1039.21896,438.717048 1033.6672,438.01816 1025.78218,439.561407 C1023.45525,440.019954 761.553586,491.593822 622.64265,518.948512 L992.756179,420.321414 C1000.49418,418.259535 1005.19231,415.136673 1006.01274,413.91599 C1004.68013,413.210776 999.057235,412.864494 991.319234,414.924793 L620.176607,513.757446 L1010.48323,381.918908 C1018.09161,379.428525 1022.55578,376.032116 1023.27662,374.65015 C1021.89184,374.074595 1016.27211,374.061946 1008.69061,376.661432 L619.024207,508.248559 L1028.21029,339.417942 C1035.64161,336.423157 1039.83705,332.721577 1040.51837,331.35068 C1039.05297,330.811493 1033.50438,331.228928 1026.0857,334.264825 L616.27362,503.30574 C616.27362,503.30574 983.121222,323.115812 986.034631,321.689573 C993.222514,318.163506 997.206122,314.213679 997.789436,312.809577 C996.311391,312.376329 990.767536,313.140047 983.551199,316.67402 C981.423447,317.71919 741.826823,435.417092 614.748151,497.841127 L946.668049,306.650818 C953.609327,302.655136 957.335265,298.420694 957.814247,297.029241 C956.344106,296.695609 950.823964,297.816677 943.884266,301.812359 L611.022213,493.467539 L953.841705,264.96575 C960.544283,260.588999 963.979354,256.150582 964.316064,254.629472 C962.828534,254.433403 957.398497,255.878616 950.748085,260.353401 L608.481873,488.445661 L959.954646,219.321366 C966.355292,214.503462 969.448911,209.840515 969.749262,208.33996 C968.19692,208.199234 962.943932,210.041327 956.563837,214.89718 L604.544108,484.38515 C604.544108,484.38515 912.181387,215.264017 914.623718,213.130984 C920.652876,207.862439 923.47776,203.014492 923.678521,201.507612 C922.138825,201.472826 916.982266,203.64697 910.927815,208.929746 C909.143095,210.491968 708.223826,386.27036 601.655992,479.502417 L872.708891,208.809575 C878.376048,203.152056 880.88003,198.095391 880.97962,196.628042 C879.473121,196.684965 874.43354,199.200647 868.764803,204.858167 L596.923087,476.241991 L868.835939,166.689677 C874.177451,160.723825 876.343143,155.548571 876.275169,153.991093 C874.78922,154.187161 869.917204,156.98904 864.656312,163.035534 L593.170275,472.051821 L862.915855,121.019995 C867.849522,114.70786 869.629499,109.402948 869.533071,107.873932 C867.994955,108.141154 863.40116,111.281409 858.495947,117.623586 L588.314068,469.150327 C588.314068,469.150327 815.722749,129.484137 817.53118,126.789779 C821.989027,120.137687 823.462329,114.723672 823.26473,113.215211 C821.767715,113.582049 817.350969,117.019569 812.872572,123.690635 C811.554187,125.662386 663.033589,347.513666 584.260905,465.181525 L775.927771,133.479819 C779.93509,126.546275 781.043229,121.015251 780.758686,119.570038 C779.31858,120.017516 775.102595,123.752301 771.095275,130.685846 L578.845095,463.260372 L761.275365,93.8028688 C764.887486,86.6574442 765.639945,81.0963781 765.170449,79.6100539 C763.785671,80.184028 759.805224,84.1544111 756.291113,91.3567586 L574.13274,460.184946 L743.72694,51.2275865 C746.855337,43.8513074 747.201532,38.2665233 746.709904,36.8165666 C745.295091,37.4727629 741.671905,41.6961373 738.578285,49.092972 L568.691637,458.641698 C568.691637,458.641698 700.337231,71.6345015 701.385299,68.5638189 C703.968321,60.9835655 703.988871,55.3719011 703.408719,53.9677991 C702.055557,54.70938 698.680556,59.1746774 696.083307,66.7786487 C695.319782,69.023947 609.34815,321.793932 563.748486,455.860375 L662.93716,85.8099232 C665.012746,78.0731314 664.647582,72.4424926 664.001036,71.122194 C662.723752,71.9270227 659.619068,76.6263371 657.545062,84.3631289 L558.019678,455.406571 L638.505946,51.2845096 C640.143651,43.4465212 639.429131,37.8807115 638.591309,36.5667376 C637.40255,37.4806689 634.587151,42.34759 633.05694,50.2156211 L552.673424,453.65935 L610.525843,14.7130283 C611.638724,6.77700586 610.524262,1.29341829 609.675375,0.0205555474 C608.477131,1.01987139 606.071158,6.03858735 605.000958,13.9856782 L547.017333,453.578709 C547.017333,453.578709 573.906686,45.6681015 574.123255,42.4313934 C574.654403,34.4400291 573.22062,29.0165269 572.294273,27.8100744 C571.181392,28.8758005 569.078933,34.0621232 568.539881,42.0803679 C568.384963,44.4474183 550.831796,310.864706 541.522483,452.173026 L541.454509,69.0539897 C541.454509,61.043651 539.646078,55.6992087 538.67863,54.5923715 C537.654274,55.6992087 535.874297,61.043651 535.874297,69.0539897 L535.872716,453.221359 L508.915388,42.0392568 C508.466442,34.0447301 506.335528,28.855245 505.184708,27.8021685 C504.272588,28.9943902 502.815094,34.4226359 503.376277,42.4187439 L530.254564,452.917769 L472.416372,13.9698663 C471.436278,6.0180318 468.938619,1.01038421 467.787799,0 C466.891487,1.27602513 465.867131,6.74696313 466.891487,14.7003788 L524.77078,454.306059 C524.77078,454.306059 445.068588,53.3590387 444.43785,50.1760912 C442.880765,42.3207097 440.089078,37.4537886 438.884511,36.5287889 C438.084628,37.8475063 437.396981,43.4022477 438.954066,51.2845096 C439.414078,53.5898933 490.514914,310.60539 518.317968,450.444779 L421.441999,83.6104796 C419.396448,75.8657819 416.317056,71.1822794 415.033449,70.3300148 C414.378999,71.6945869 413.999608,77.2920206 416.045159,85.0367184 L514.143083,456.484947 C514.143083,456.484947 384.133615,68.9069385 383.11242,65.812538 C380.540464,58.2085666 377.167043,53.7306197 375.823366,52.9842952 C375.19579,54.3978844 375.225825,60.0048053 377.813589,67.6056142 C378.830042,70.6857839 508.830025,458.241656 508.830025,458.241656 C508.830025,458.241656 341.934245,51.0694669 340.666446,48.0240835 C337.613927,40.5893001 333.970191,36.343789 332.572767,35.6670371 C332.092204,37.0869511 332.422591,42.7302395 335.489337,50.117587 C336.744489,53.1708763 503.44267,459.906655 503.44267,459.906655 L322.774988,90.1850924 C319.254554,82.9463773 315.289915,78.9744131 313.883006,78.3751398 C313.486226,79.8867632 314.222878,85.4241114 317.722762,92.6375273 L499.000631,463.5355 L307.64044,129.523667 C303.658413,122.57431 299.470882,118.847431 298.010226,118.358842 C297.730425,119.845166 298.816432,125.35089 302.798459,132.300247 L493.772936,465.635328 C493.772936,465.635328 267.796457,124.99354 266.010157,122.26914 C261.553891,115.590168 257.137145,112.141579 255.646453,111.766836 C255.406172,113.295852 256.887379,118.703543 261.354711,125.373027 C263.134688,128.084778 489.096939,468.709173 489.096939,468.709173 C489.096939,468.709173 222.418105,118.701961 220.40417,116.089826 C215.530574,109.698632 210.909905,106.544146 209.386017,106.253206 C209.288007,107.747436 211.069565,113.114015 215.946323,119.45303 C217.949193,122.076234 484.324514,471.713445 484.324514,471.713445 L214.047786,161.448013 C208.771087,155.369896 203.913298,152.56011 202.400476,152.345068 C202.406799,153.908871 204.55194,159.065151 209.803347,165.125875 L480.976386,476.368486 L209.619975,203.367099 C203.973369,197.685862 198.963824,195.17176 197.427289,195.076888 C197.541107,196.585349 200.016634,201.621458 205.66324,207.302696 L476.469535,479.750664 C476.469535,479.750664 169.964107,209.317139 167.531261,207.14932 C161.49894,201.853894 156.337639,199.6671 154.801104,199.692399 C154.965507,201.230903 157.796714,206.069363 163.8401,211.35372 C166.263462,213.512052 472.74992,483.931346 472.74992,483.931346 C472.74992,483.931346 124.505134,215.001539 121.882592,213.001326 C115.521466,208.091712 110.241605,206.241713 108.694005,206.35714 C108.986452,207.826071 112.09746,212.545941 118.449102,217.404956 C121.06374,219.4194 468.918069,488.072499 468.918069,488.072499 L127.494421,258.457547 C120.823459,253.954301 115.402906,252.501182 113.885342,252.684601 C114.29793,254.194643 117.706127,258.617248 124.347055,263.111007 L466.889906,493.435915 L134.076859,300.092018 C127.152969,296.069455 121.662862,294.940481 120.153201,295.247233 C120.655894,296.673472 124.350216,300.896846 131.274106,304.919409 L463.413734,497.87117 C463.413734,497.87117 97.3170107,316.117439 94.4083446,314.654832 C87.2078153,311.105047 81.6576379,310.330261 80.1795929,310.752441 C80.7360334,312.196073 84.7259644,316.134832 91.9312361,319.671967 C94.8288366,321.128249 460.903429,502.872493 460.903429,502.872493 C460.903429,502.872493 54.8852638,333.392004 51.834326,332.139697 C44.4172276,329.046878 38.8385958,328.629442 37.3731972,329.140169 C38.0371318,330.484185 42.2641824,334.236363 49.6591497,337.283328 C52.7053451,338.551447 458.274564,507.862747 458.274564,507.862747 L69.0302333,374.588484 C61.4202776,371.968442 55.8084491,371.968442 54.3904744,372.540835 C55.179292,373.891176 59.6181693,377.279679 67.1949282,379.89814 L457.705477,513.570865 L86.1739742,413.093768 C78.443878,411.003427 72.8478575,411.335478 71.4709835,412.023298 C72.3246138,413.272443 76.9863834,416.393724 84.7180604,418.482484 L455.497104,518.755606 C455.497104,518.755606 54.8204511,438.100382 51.6319841,437.441023 C43.7580353,435.878801 38.1967923,436.568203 36.8784078,437.360382 C37.7905275,438.609527 42.664124,441.381363 50.5396535,442.929354 C53.7154742,443.58555 454.368415,524.236031 454.368415,524.236031 C454.368415,524.236031 18.3135306,465.78396 15.042862,465.363362 C7.07722713,464.300799 1.58079677,465.342807 0.298770589,466.215627 C1.28676857,467.339857 6.34215664,469.869771 14.273014,470.894386 C17.5436825,471.330796 453.124328,529.738593 453.124328,529.738593 L42.6467352,501.906382 C34.6178684,501.34822 29.1988971,502.80292 27.978522,503.721595 C29.0898221,504.822107 34.2542852,506.945654 42.2499552,507.510141 L454.052256,535.397694 L69.1819898,534.65295 C61.1736733,534.637138 55.8542922,536.408078 54.7018914,537.431112 C55.8511306,538.414615 61.1626078,540.220341 69.1709242,540.236153 L453.263438,540.977734 C453.263438,540.977734 45.378352,566.931484 42.1266531,567.122809 C34.1167559,567.654091 28.9238385,569.761825 27.8568007,570.867081 C29.0613678,571.837935 34.4850815,573.251525 42.4933979,572.706012 C45.7308697,572.514687 453.592244,546.564099 453.592244,546.564099 C453.592244,546.564099 17.2875935,603.131385 14.0200865,603.575701 C6.05129003,604.611384 1.01329073,607.041682 0,608.218092 C1.24724865,609.04822 6.78477973,610.180356 14.7108947,609.116211 C17.983144,608.689288 453.816717,552.201063 453.816717,552.201063 L50.1507775,631.713083 C42.2499552,633.254749 37.3921668,636.064534 36.4515927,637.269405 C37.8094971,638.04261 43.348609,638.755729 51.2178153,637.228294 L456.178427,557.426916 L84.2612102,656.463543 C76.5216292,658.525422 71.8440515,661.615079 70.9967445,662.89901 C72.3593913,663.552044 77.9569926,663.920463 85.6965736,661.858584 L456.861332,563.021187 C456.861332,563.021187 69.6325169,693.80981 66.5420592,694.836006 C58.9431691,697.426005 54.4742566,700.808183 53.7297014,702.1522 C55.1429337,702.778354 60.7500198,702.735661 68.3425867,700.134594 C71.420398,699.109979 458.627082,568.330843 458.627082,568.330843 C458.627082,568.330843 51.8801691,736.054622 48.8387162,737.329066 C41.4105521,740.395005 37.1740168,744.049149 36.5005974,745.446926 C37.9201529,745.92761 43.5620166,745.58449 50.9411759,742.50274 C53.9905328,741.242526 460.302726,573.717977 460.302726,573.717977 L91.0238587,755.141239 C83.7932943,758.678374 79.8302368,762.65192 79.2326956,764.059184 C80.7455181,764.454483 86.2798876,763.706577 93.4851593,760.189998 L463.938559,578.151651 L130.380956,770.205293 C123.441258,774.202556 119.723224,778.397469 119.237919,779.858494 C120.723868,780.136784 126.226622,779.039434 133.16632,775.043752 L466.047342,583.377504 C466.047342,583.377504 125.927851,810.067243 123.208881,811.860319 C116.54108,816.33036 113.099686,820.754546 112.728198,822.247195 C114.256829,822.484374 119.661573,820.993307 126.32147,816.510616 C129.027794,814.725446 469.129895,588.048356 469.129895,588.048356 C469.129895,588.048356 119.726386,855.469703 117.118071,857.490472 C110.739556,862.376367 107.59377,867.002947 107.306065,868.528801 C108.801499,868.625254 114.161981,866.832177 120.48991,861.941538 C123.109291,859.933419 472.142894,592.817243 472.142894,592.817243 L162.477453,863.759914 C156.410355,869.049014 153.612345,873.914354 153.398938,875.427559 C154.962346,875.418071 160.114162,873.262901 166.162291,867.9991 L476.803083,596.15831 L204.393861,868.108203 C198.725123,873.765722 196.221141,878.781275 196.131036,880.319779 C197.639116,880.20277 202.667631,877.718712 208.336368,872.05803 L480.193892,600.658394 C480.193892,600.658394 210.418277,907.761435 208.257328,910.198058 C202.974305,916.244551 200.797548,921.410318 200.826002,922.947241 C202.364118,922.781215 207.196613,919.939806 212.46699,913.883825 C214.620035,911.45669 484.379842,604.371042 484.379842,604.371042 C484.379842,604.371042 216.191347,953.220818 214.194801,955.848766 C209.300654,962.222567 207.460606,967.506924 207.577585,969.053333 C209.046145,968.759231 213.760081,965.63795 218.605224,959.275218 C220.614416,956.655176 488.526272,608.195955 488.526272,608.195955 L259.630061,950.146973 C255.140598,956.829108 253.697331,962.25261 253.883865,963.770558 C255.391945,963.356284 259.808691,959.93932 264.287089,953.285647 L493.893077,610.215142 L301.239794,943.482232 C297.232474,950.417358 296.11327,955.912014 296.424687,957.420475 C297.848985,956.914492 302.063389,953.212912 306.07229,946.277787 L498.333535,613.682705 C498.333535,613.682705 317.333886,980.222902 315.876391,983.133883 C312.340149,990.342556 311.576624,995.897297 312.001858,997.374134 C313.443545,996.814391 317.373406,992.815546 320.897002,985.60213 C322.346592,982.700636 503.339918,616.184157 503.339918,616.184157 C503.339918,616.184157 334.684711,1022.63058 333.439043,1025.68545 C330.361232,1033.11074 329.954967,1038.69078 330.468726,1040.15497 C331.809242,1039.48929 335.552568,1035.25326 338.584537,1027.85169 C339.846012,1024.80156 508.333655,618.802618 508.333655,618.802618 L375.843917,1008.40298 C373.238763,1016.0196 373.249829,1021.63284 373.823658,1023.05118 C375.172078,1022.259 378.553402,1017.81267 381.155394,1010.22768 L514.040332,619.362361 L414.306283,991.18059 C412.230697,998.917381 412.573729,1004.51323 413.264538,1005.88887 C414.511786,1005.03345 417.622794,1000.36418 419.6968,992.627384 L519.228507,621.560223 C519.228507,621.560223 439.366654,1022.49301 438.713785,1025.68545 C437.167766,1033.56297 437.868059,1039.12561 438.661618,1040.44117 C439.908867,1039.52724 442.670519,1034.64767 444.202311,1026.7654 C444.852019,1023.5872 524.71071,622.67971 524.71071,622.67971 C524.71071,622.67971 467.112799,1058.95697 466.700211,1062.23005 C465.650562,1070.19928 466.703372,1075.69551 467.580715,1076.9747 C468.70308,1075.98329 471.22129,1070.92346 472.231419,1062.98744 C472.661395,1059.71595 530.213463,623.913043 530.213463,623.913043 L503.180258,1034.54647 C502.636464,1042.57736 504.101862,1047.9977 505.023467,1049.21681 C506.12054,1048.10206 508.234065,1042.93313 508.782602,1034.93228 L535.869554,622.973813 L535.866393,1007.94285 C535.866393,1015.95319 537.647951,1021.26917 538.672307,1022.42028 C539.653982,1021.26917 541.448186,1015.95319 541.448186,1007.94285 L541.449767,623.751761 C541.449767,623.751761 568.184202,1031.69083 568.380221,1034.94177 C568.925595,1042.95369 571.043863,1048.14317 572.152002,1049.2089 C573.119449,1048.00245 574.521616,1042.57262 573.960433,1034.56386 C573.764414,1031.32557 547.034722,623.411804 547.034722,623.411804 C547.034722,623.411804 604.42871,1059.71753 604.877656,1062.98428 C605.928886,1070.95351 608.369636,1075.98962 609.54733,1077 C610.375667,1075.75086 611.496452,1070.21034 610.416768,1062.28381 C609.98363,1059.01231 552.668681,623.177787 552.668681,623.177787 L632.939961,1026.79228 C634.495465,1034.69036 637.314025,1039.54463 638.520173,1040.48386 C639.291602,1039.12403 639.993476,1033.58194 638.450618,1025.71233 L559.183145,627.312614 L655.772989,992.790247 C657.81854,1000.53336 660.93271,1005.239 662.149923,1006.06122 C662.856539,1004.72986 663.21538,999.107125 661.169829,991.36559 L563.078228,619.936335 L694.131023,1010.59609 C696.60655,1018.20955 699.992617,1022.68276 701.374233,1023.40694 C701.951224,1022.02182 701.974936,1016.40067 699.391914,1008.81409 L568.587305,618.796293 L736.586481,1028.40827 C739.567864,1035.84779 743.259025,1040.05219 744.629575,1040.73369 C745.171789,1039.2695 744.763943,1033.72109 741.743041,1026.29263 L573.533618,616.051337 C573.533618,616.051337 752.97144,983.339439 754.394157,986.255164 C757.903526,993.452768 761.844452,997.445288 763.246619,998.031912 C763.6845,996.553493 762.928879,991.006658 759.411606,983.783755 C758.369861,981.652303 641.166427,741.770646 579.000013,614.539713 L769.501832,946.910265 C773.483859,953.859622 777.710909,957.595988 779.10043,958.076671 C779.437139,956.606159 778.325839,951.084623 774.346974,944.133685 L583.380401,610.819159 L811.163731,954.164792 C815.52673,960.87855 819.956122,964.320814 821.476849,964.662352 C821.676029,963.174447 820.242246,957.739876 815.781238,951.08146 L588.405754,608.287665 L856.783945,960.366243 C861.589567,966.779574 866.243432,969.883461 867.745189,970.187051 C867.887461,968.632735 866.056898,963.375259 861.216499,956.985646 L592.473144,604.356811 C592.473144,604.356811 860.931955,912.588826 863.061289,915.038098 C868.317438,921.078267 873.157837,923.913351 874.664337,924.117326 C874.702276,922.577241 872.538165,917.414636 867.267789,911.349168 C865.709123,909.559254 690.363984,708.252454 597.362548,601.479035 L867.462227,873.120594 C873.107252,878.80025 878.157898,881.314351 879.624877,881.415548 C879.569549,879.908668 877.065567,874.863072 871.420542,869.183416 L600.628475,596.751259 L909.579395,869.328886 C915.532676,874.682815 920.703462,876.858541 922.260547,876.793712 C922.066109,875.305807 919.272841,870.427817 913.24052,865.152947 L604.82549,593.003825 L955.247033,863.492692 C961.54967,868.441835 966.850081,870.231749 968.377131,870.138458 C968.114719,868.599954 964.98316,863.998674 958.650488,859.079574 L607.735737,588.152715 C607.735737,588.152715 946.876714,816.273437 949.56723,818.087069 C956.209738,822.558691 961.617644,824.041853 963.127305,823.847365 C962.763722,822.349973 959.334973,817.925787 952.675077,813.432028 C950.706985,812.108567 729.197837,663.126703 611.711441,584.104854 L942.9595,776.458923 C949.883389,780.481485 955.413017,781.600972 956.856284,781.3211 C956.410499,779.87905 952.686142,775.655675 945.762252,771.631531 L613.641594,578.690839 L982.654887,761.881877 C989.792185,765.509141 995.348685,766.271277 996.837796,765.804824 C996.263967,764.416534 992.304071,760.430339 985.109865,756.897948 L616.725728,573.9852 L1025.25104,744.408081 C1032.62071,747.553079 1038.20409,747.91043 1039.65526,747.42184 C1039.00239,746.005089 1034.7864,742.3715 1027.39776,739.262869 L618.279651,568.544304 C618.279651,568.544304 1004.93464,700.971047 1008.00138,702.024123 C1015.57498,704.623609 1021.18523,704.652071 1022.59056,704.074934 C1021.85232,702.721431 1017.39606,699.337671 1009.79875,696.725536 C1007.55402,695.955493 755.016991,609.475143 621.071338,563.606229 L990.835511,663.53307 C998.565607,665.623411 1004.19482,665.270804 1005.51637,664.625676 C1004.71491,663.346489 1000.02152,660.234695 992.293005,658.142773 L621.532931,557.877556 L1025.39805,639.162097 C1033.23248,640.816028 1038.79688,640.112396 1040.11369,639.277524 C1039.20157,638.085302 1034.34062,635.259705 1026.47932,633.714877 L623.292358,552.531533 L1062.01405,611.246082 C1069.94648,612.373475 1075.43185,611.271381 1076.70597,610.42386 C1075.70691,609.223733 1070.6942,606.806084 1062.75228,605.719802" id="Fill-1" fill="#FFCF42"></path>
    </g>
</svg>