<?xml version="1.0" encoding="UTF-8" standalone="no"?>
<!DOCTYPE svg PUBLIC "-//W3C//DTD SVG 1.1//EN" "http://www.w3.org/Graphics/SVG/1.1/DTD/svg11.dtd">
<svg width="100%" height="100%" viewBox="0 0 431 375" version="1.1" xmlns="http://www.w3.org/2000/svg" xmlns:xlink="http://www.w3.org/1999/xlink" xml:space="preserve" xmlns:serif="http://www.serif.com/" style="fill-rule:evenodd;clip-rule:evenodd;stroke-linejoin:round;stroke-miterlimit:2;">
    <g transform="matrix(1,0,0,1,-1.6395,-0.63989)">
        <g transform="matrix(1,0,0,1,-89.5605,-233.76)">
            <g id="Home">
                <g id="Top-Nav">
                    <g id="tamarack-logo">
                        <path id="Green" d="M240.6,537.2L240.6,436.7L242.3,436.7L242.3,537.2C242.3,539.6 241.8,541.2 241.5,541.5C241.1,541.2 240.6,539.6 240.6,537.2ZM242.3,255.2L242.3,355.7L240.6,355.7L240.6,255.2C240.6,252.8 241.1,251.2 241.4,250.9C241.7,251.2 242.3,252.8 242.3,255.2ZM277,532.6C277,532.6 265.4,489 251.4,436.7L253.1,436.7C267,488.8 278.6,532.2 278.6,532.2C279.2,534.5 279.1,536.2 278.9,536.6C278.5,536.4 277.6,534.9 277,532.6ZM205.9,259.8C206.1,260.7 217.7,304 231.5,355.7L229.8,355.7C216,304.1 204.6,261.1 204.3,260.2C203.7,257.9 203.8,256.2 204,255.8C204.3,256.1 205.3,257.5 205.9,259.8ZM310.9,518.7C310.9,518.7 289.7,481.8 263.7,436.6L265.6,436.6C291.3,481.4 312.3,517.8 312.3,517.8C313.5,519.9 313.8,521.5 313.7,522C313.4,521.9 312.1,520.8 310.9,518.7ZM171.9,273.7C172.4,274.5 193.4,311.1 219.1,355.8L217.2,355.8C191.7,311.5 170.9,275.4 170.5,274.6C169.3,272.5 169,270.9 169.1,270.4C169.5,270.5 170.7,271.6 171.9,273.7ZM142.7,295.9C143.3,296.5 169.3,322.6 202.3,355.7L199.9,355.7C167.5,323.2 142.1,297.7 141.5,297.1C139.8,295.4 139,293.9 139,293.4C139.5,293.5 141,294.2 142.7,295.9ZM340.1,496.5C340.1,496.5 313.9,470.2 280.5,436.7L282.9,436.7C315.7,469.6 341.3,495.3 341.3,495.3C343,497 343.7,498.5 343.8,499C343.3,499 341.8,498.2 340.1,496.5ZM362.6,467.4C362.6,467.4 340.4,454.6 309.5,436.6L312.8,436.6C342.4,453.8 363.4,465.9 363.4,465.9C365.5,467.1 366.6,468.4 366.7,468.8C366.4,469 364.7,468.6 362.6,467.4ZM120.2,325C120.8,325.4 142.8,338.1 173.3,355.8L170,355.8C140.8,338.9 120,326.8 119.4,326.5C117.3,325.3 116.2,324 116.1,323.6C116.5,323.5 118.1,323.8 120.2,325ZM119.4,466C120,465.7 140.8,453.6 170,436.7L173.3,436.7C142.8,454.4 120.9,467.1 120.2,467.5C118.1,468.7 116.5,469 116,468.9C116.2,468.5 117.3,467.2 119.4,466ZM363.5,326.5C363.5,326.5 342.5,338.6 312.9,355.8L309.6,355.8C340.5,337.9 362.7,325 362.7,325C364.8,323.8 366.4,323.5 366.9,323.6C366.7,324 365.5,325.3 363.5,326.5ZM141.5,495.3C142.1,494.7 167.5,469.2 199.9,436.7L202.3,436.7C169.3,469.8 143.3,495.9 142.7,496.5C141,498.2 139.5,499 139,499C139.1,498.5 139.8,497 141.5,495.3ZM341.3,297.1C341.3,297.1 315.7,322.8 282.9,355.7L280.5,355.7C313.9,322.2 340.1,295.9 340.1,295.9C341.8,294.2 343.3,293.4 343.8,293.4C343.8,293.9 343,295.4 341.3,297.1ZM312.4,274.5C312.4,274.5 291.4,311 265.7,355.7L263.8,355.7C289.8,310.6 311,273.6 311,273.6C312.2,271.5 313.5,270.4 313.9,270.3C313.9,270.8 313.6,272.5 312.4,274.5ZM170.5,517.9C171,517.1 191.8,480.9 217.2,436.7L219.1,436.7C193.4,481.3 172.4,517.9 171.9,518.8C170.7,520.9 169.4,522 169,522.1C169,521.6 169.3,520 170.5,517.9ZM204.3,532.2C204.6,531.3 216,488.3 229.8,436.7L231.5,436.7C217.7,488.5 206.1,531.7 205.9,532.6C205.3,534.9 204.4,536.3 204,536.6C203.7,536.2 203.7,534.5 204.3,532.2ZM278.6,260.3C278.6,260.3 267,303.7 253.1,355.8L251.4,355.8C265.4,303.5 277,259.9 277,259.9C277.6,257.6 278.6,256.2 278.9,255.9C279.1,256.3 279.2,257.9 278.6,260.3ZM181.7,249.2C182.1,250.1 202,298.5 225.7,355.7L223.9,355.7C200.4,298.7 180.6,250.7 180.2,249.8C179.3,247.6 179.2,245.9 179.3,245.5C179.7,245.7 180.8,247 181.7,249.2ZM301.2,543.2C301.2,543.2 281.1,494.4 257.2,436.7L259,436.7C282.7,494.2 302.7,542.6 302.7,542.6C303.6,544.8 303.7,546.5 303.6,546.9C303.2,546.7 302.1,545.4 301.2,543.2ZM145.8,269.7C146.4,270.4 175.8,309 211.6,355.7L209.5,355.7C174.1,309.4 145.1,271.4 144.5,270.7C143,268.8 142.5,267.2 142.5,266.7C143,266.9 144.3,267.8 145.8,269.7ZM337,522.7C337,522.7 307.3,483.9 271.3,436.7L273.4,436.7C309.1,483.4 338.4,521.7 338.4,521.7C339.9,523.6 340.4,525.2 340.4,525.7C339.9,525.5 338.5,524.6 337,522.7ZM366.4,493.5C366.4,493.5 334.1,468.6 292.6,436.6L295.4,436.6C336,467.9 367.5,492.1 367.5,492.1C369.4,493.6 370.3,495 370.4,495.4C369.9,495.6 368.3,495 366.4,493.5ZM116.5,298.9C117.2,299.4 149.3,324.2 190.3,355.8L187.6,355.8C147.4,324.8 116.2,300.8 115.5,300.3C113.6,298.8 112.7,297.4 112.6,297C113,296.9 114.6,297.4 116.5,298.9ZM387.2,457.8C387.2,457.8 366.7,449.3 336.5,436.7L340.9,436.7C369,448.4 387.8,456.2 387.8,456.2C390,457.1 391.3,458.2 391.5,458.6C391.1,458.8 389.4,458.7 387.2,457.8ZM95.6,334.7C96.2,334.9 116.6,343.4 146.3,355.8L141.9,355.8C114.2,344.3 95.5,336.5 94.9,336.3C92.7,335.4 91.4,334.3 91.2,333.9C91.7,333.6 93.4,333.8 95.6,334.7ZM387.9,336.2C387.9,336.2 369,344 340.9,355.7L336.5,355.7C366.7,343.2 387.2,334.6 387.2,334.6C389.4,333.7 391.1,333.6 391.5,333.7C391.3,334.2 390.1,335.3 387.9,336.2ZM95,456.2C95.6,456 114.3,448.2 141.9,436.7L146.3,436.7C116.6,449.1 96.2,457.5 95.6,457.8C93.4,458.7 91.7,458.8 91.3,458.7C91.5,458.2 92.8,457.1 95,456.2ZM115.4,492.2C116.1,491.7 147.3,467.6 187.5,436.7L190.2,436.7C149.2,468.3 117.1,493 116.4,493.6C114.5,495.1 112.9,495.6 112.5,495.6C112.6,495.1 113.5,493.7 115.4,492.2ZM367.4,300.2C367.4,300.2 335.9,324.4 295.3,355.7L292.6,355.7C334.1,323.8 366.4,298.8 366.4,298.8C368.3,297.3 369.9,296.8 370.3,296.8C370.3,297.4 369.3,298.8 367.4,300.2ZM144.5,521.7C145.1,521 174.1,483 209.5,436.7L211.6,436.7C175.9,483.4 146.4,522 145.9,522.7C144.4,524.6 143,525.5 142.6,525.6C142.5,525.2 143,523.6 144.5,521.7ZM338.4,270.8C338.4,270.8 309.1,309.1 273.4,355.8L271.3,355.8C307.4,308.6 337,269.8 337,269.8C338.5,267.9 339.8,267 340.3,266.9C340.4,267.3 339.8,268.9 338.4,270.8ZM180.1,542.6C180.5,541.7 200.3,493.7 223.8,436.7L225.6,436.7C202,493.9 182,542.3 181.6,543.2C180.7,545.4 179.6,546.7 179.2,546.9C179.1,546.5 179.2,544.8 180.1,542.6ZM302.7,249.9C302.7,249.9 282.7,298.3 259,355.8L257.2,355.8C281,298 301.2,249.3 301.2,249.3C302.1,247.1 303.2,245.8 303.6,245.6C303.8,245.9 303.6,247.6 302.7,249.9ZM220,553.5C220.1,552.5 227.1,499.2 235.3,436.7L237,436.7C228.8,499.3 221.8,552.8 221.6,553.8C221.3,556.2 220.5,557.7 220.2,558C220,557.6 219.7,555.9 220,553.5ZM262.9,238.9C262.9,238.9 255.8,292.7 247.6,355.7L245.9,355.7C254.2,292.5 261.3,238.6 261.3,238.6C261.6,236.2 262.3,234.7 262.7,234.4C262.9,234.9 263.2,236.5 262.9,238.9ZM221.6,238.7C221.6,238.7 228.7,292.6 237,355.8L235.3,355.8C227,292.7 220,238.9 220,238.9C219.7,236.5 220,234.9 220.3,234.5C220.6,234.8 221.3,236.3 221.6,238.7ZM261.2,553.7C261.1,552.7 254.1,499.2 245.8,436.6L247.5,436.6C255.7,499.1 262.7,552.5 262.8,553.4C263.1,555.8 262.8,557.4 262.5,557.8C262.3,557.6 261.6,556.1 261.2,553.7ZM213.2,249.6C213.4,250.6 222.9,298.8 234.2,355.8L232.5,355.8C221.2,298.9 211.7,250.9 211.5,249.9C211,247.5 211.2,245.9 211.5,245.5C211.9,245.7 212.8,247.2 213.2,249.6ZM269.6,542.9C269.6,542.9 260,494.3 248.6,436.7L250.3,436.7C261.7,494.2 271.3,542.6 271.3,542.6C271.8,545 271.6,546.6 271.3,547C270.9,546.7 270.1,545.2 269.6,542.9ZM288.5,537.9C288.5,537.9 272.9,491.7 254.3,436.7L256.1,436.7C274.6,491.5 290.2,537.4 290.2,537.4C291,539.7 291,541.4 290.8,541.8C290.3,541.6 289.2,540.2 288.5,537.9ZM194.4,254.5C194.7,255.4 210.2,301.2 228.6,355.7L226.8,355.7C208.5,301.4 193.1,255.9 192.7,255C191.9,252.7 191.9,251 192.1,250.6C192.6,250.9 193.6,252.2 194.4,254.5ZM306.5,530.6C306.5,530.6 285.6,488 260.4,436.7L262.3,436.7C287.3,487.6 308,529.8 308,529.8C309,532 309.3,533.6 309.2,534.1C308.7,533.9 307.6,532.7 306.5,530.6ZM176.4,261.9C176.8,262.8 197.6,305 222.5,355.8L220.6,355.8C195.8,305.4 175.3,263.5 174.8,262.7C173.7,260.5 173.5,258.9 173.6,258.4C174.2,258.5 175.3,259.7 176.4,261.9ZM159.5,271.6C160,272.4 185.1,310 215.5,355.8L213.5,355.8C183.3,310.5 158.6,273.3 158.1,272.5C156.8,270.5 156.3,268.9 156.4,268.4C156.8,268.5 158.1,269.6 159.5,271.6ZM323.4,520.9C323.4,520.9 298.1,482.9 267.4,436.7L269.4,436.7C299.9,482.5 324.8,520 324.8,520C326.1,522 326.6,523.6 326.5,524.1C326.1,523.9 324.7,522.9 323.4,520.9ZM338.9,509.1C338.9,509.1 310.7,476.8 275.7,436.7L277.9,436.7C312.5,476.3 340.2,508 340.2,508C341.8,509.8 342.4,511.4 342.4,511.8C341.9,511.7 340.5,510.9 338.9,509.1ZM144,283.4C144.6,284.1 172.6,316.1 207.2,355.8L205,355.8C170.8,316.6 143.3,285.2 142.7,284.5C141.1,282.7 140.5,281.1 140.5,280.7C140.9,280.7 142.4,281.6 144,283.4ZM130.1,297.1C130.7,297.7 159.8,323.2 196.7,355.8L194.2,355.8C157.9,323.9 129.7,299 129,298.4C127.2,296.8 126.3,295.4 126.3,294.9C126.8,294.9 128.3,295.5 130.1,297.1ZM352.8,495.3C352.8,495.3 323.5,469.5 286.2,436.7L288.7,436.7C325.4,469 353.9,494.1 353.9,494.1C355.7,495.7 356.5,497.1 356.6,497.6C356.1,497.6 354.6,496.9 352.8,495.3ZM118.2,312.5C118.9,312.9 146.3,331.3 182.6,355.7L179.6,355.7C144.3,332 117.9,314.3 117.3,313.9C115.3,312.6 114.3,311.2 114.2,310.8C114.6,310.8 116.2,311.2 118.2,312.5ZM364.7,479.9C364.7,479.9 337.1,461.4 300.3,436.7L303.3,436.7C339,460.7 365.6,478.5 365.6,478.5C367.6,479.8 368.6,481.2 368.8,481.6C368.3,481.7 366.7,481.2 364.7,479.9ZM374.5,463C374.5,463 352.6,452.1 321.3,436.7L325.1,436.7C354.8,451.4 375.3,461.5 375.3,461.5C377.4,462.6 378.6,463.7 378.8,464.2C378.3,464.3 376.7,464.1 374.5,463ZM108.4,329.4C109,329.7 130.8,340.5 161.6,355.8L157.8,355.8C128.6,341.3 108.2,331.2 107.6,330.9C105.5,329.8 104.2,328.7 104.1,328.2C104.6,328.1 106.2,328.3 108.4,329.4ZM100.8,347.4C101.2,347.5 110.4,350.7 125.3,355.7L120.1,355.7C108,351.6 100.6,349.1 100.3,348.9C98,348.1 96.7,347.1 96.5,346.7C96.9,346.6 98.5,346.6 100.8,347.4ZM382.1,445C382.1,445 372.8,441.8 357.6,436.7L362.8,436.7C375.2,440.9 382.6,443.5 382.6,443.5C384.9,444.3 386.2,445.3 386.4,445.7C386,445.8 384.3,445.8 382.1,445ZM100.3,443.4C100.7,443.3 108,440.8 120.1,436.6L125.3,436.6C110.5,441.7 101.3,444.8 100.8,444.9C98.5,445.7 96.9,445.7 96.4,445.5C96.7,445.2 98,444.2 100.3,443.4ZM382.6,349C382.6,349 375.2,351.5 362.8,355.8L357.6,355.8C372.8,350.6 382.1,347.5 382.1,347.5C384.4,346.7 386.1,346.7 386.5,346.9C386.2,347.2 384.9,348.2 382.6,349ZM107.6,461.5C108.2,461.2 128.6,451.1 157.8,436.7L161.6,436.7C130.8,452 109,462.7 108.4,463C106.3,464.1 104.6,464.3 104.2,464.2C104.3,463.8 105.5,462.6 107.6,461.5ZM375.3,330.9C375.3,330.9 354.8,341.1 325.1,355.8L321.3,355.8C352.6,340.3 374.5,329.4 374.5,329.4C376.7,328.3 378.3,328.1 378.8,328.2C378.6,328.7 377.4,329.9 375.3,330.9ZM117.3,478.5C117.9,478.1 144.3,460.4 179.6,436.7L182.6,436.7C146.3,461.1 118.8,479.5 118.2,479.9C116.2,481.2 114.6,481.7 114.1,481.6C114.2,481.2 115.3,479.8 117.3,478.5ZM365.6,313.9C365.6,313.9 339,331.7 303.2,355.7L300.2,355.7C337,331 364.6,312.5 364.6,312.5C366.6,311.2 368.2,310.7 368.7,310.8C368.6,311.3 367.6,312.6 365.6,313.9ZM129,494.1C129.6,493.5 157.9,468.6 194.2,436.7L196.7,436.7C159.8,469.2 130.7,494.8 130.1,495.3C128.3,496.9 126.8,497.5 126.3,497.5C126.4,497.1 127.2,495.7 129,494.1ZM353.9,298.4C353.9,298.4 325.4,323.5 288.7,355.8L286.2,355.8C323.6,322.9 352.8,297.1 352.8,297.1C354.6,295.5 356.1,294.8 356.6,294.9C356.5,295.3 355.7,296.8 353.9,298.4ZM340.2,284.5C340.2,284.5 312.5,316.2 277.9,355.8L275.7,355.8C310.7,315.7 338.9,283.4 338.9,283.4C340.5,281.6 341.9,280.7 342.4,280.7C342.4,281.1 341.8,282.7 340.2,284.5ZM142.7,508C143.3,507.3 170.8,475.9 205,436.7L207.2,436.7C172.5,476.4 144.6,508.4 144,509.1C142.4,510.9 141,511.8 140.5,511.8C140.5,511.3 141.1,509.8 142.7,508ZM324.8,272.5C324.8,272.5 299.9,310 269.4,355.8L267.4,355.8C298.2,309.6 323.4,271.6 323.4,271.6C324.7,269.6 326.1,268.6 326.5,268.4C326.6,268.9 326.1,270.5 324.8,272.5ZM158.1,519.9C158.6,519.1 183.3,482 213.5,436.7L215.5,436.7C185,482.5 160,520.1 159.5,520.9C158.2,522.9 156.8,523.9 156.4,524C156.3,523.6 156.7,521.9 158.1,519.9ZM174.9,529.8C175.3,529 195.9,487.1 220.6,436.7L222.5,436.7C197.6,487.4 176.8,529.7 176.4,530.6C175.3,532.8 174.2,534 173.7,534.1C173.6,533.6 173.8,532 174.9,529.8ZM308,262.6C308,262.6 287.3,304.8 262.2,355.7L260.3,355.7C285.5,304.5 306.4,261.8 306.4,261.8C307.4,259.6 308.6,258.4 309,258.3C309.3,258.8 309.1,260.5 308,262.6ZM290,255.1C290,255.1 274.5,301 255.9,355.8L254.1,355.8C272.7,300.7 288.3,254.6 288.3,254.6C289.1,252.3 290.1,251 290.5,250.8C290.8,251.1 290.8,252.8 290,255.1ZM192.8,537.4C193.1,536.5 208.5,491 226.9,436.7L228.7,436.7C210.3,491.2 194.8,537 194.5,537.9C193.7,540.2 192.7,541.5 192.3,541.8C192,541.3 192,539.7 192.8,537.4ZM271.3,249.9C271.3,249.9 261.7,298.3 250.3,355.8L248.6,355.8C260,298.2 269.6,249.6 269.6,249.6C270.1,247.2 270.9,245.8 271.3,245.5C271.5,245.9 271.8,247.5 271.3,249.9ZM211.6,542.5C211.8,541.5 221.3,493.5 232.6,436.6L234.3,436.6C223,493.6 213.4,541.8 213.3,542.8C212.8,545.2 212,546.6 211.6,546.9C211.3,546.6 211.1,544.9 211.6,542.5ZM230.9,545.2C231,544.2 234.2,494.9 238,436.7L239.7,436.7C235.9,495 232.7,544.3 232.6,545.3C232.5,547.7 231.8,549.3 231.5,549.6C231.1,549.2 230.7,547.6 230.9,545.2ZM252,247.2C252,247.2 248.8,296.9 244.9,355.7L243.2,355.7C247,296.8 250.3,247.1 250.3,247.1C250.4,244.7 251.1,243.1 251.4,242.8C251.7,243.2 252.2,244.8 252,247.2ZM250.3,545.3C250.2,544.3 247,495 243.2,436.7L244.9,436.7C248.7,494.9 251.9,544.2 252,545.2C252.2,547.6 251.7,549.2 251.5,549.6C251.1,549.3 250.5,547.7 250.3,545.3ZM232.5,247.1C232.5,247.1 235.8,296.9 239.6,355.7L238,355.7C234.2,296.9 230.9,247.2 230.9,247.2C230.7,244.8 231.2,243.2 231.4,242.8C231.8,243.2 232.4,244.7 232.5,247.1Z" style="fill:rgb(172,212,0);"/>
                        <path id="Yellow" d="M370.9,537.2L370.9,436.7L372.6,436.7L372.6,537.2C372.6,539.6 372.1,541.2 371.8,541.5C371.5,541.2 370.9,539.6 370.9,537.2ZM372.6,255.2L372.6,355.7L370.9,355.7L370.9,255.2C370.9,252.8 371.4,251.2 371.7,250.9C372.1,251.2 372.6,252.8 372.6,255.2ZM407.3,532.6C407.3,532.6 395.7,489 381.7,436.7L383.4,436.7C397.3,488.8 408.9,532.2 408.9,532.2C409.5,534.5 409.4,536.2 409.2,536.6C408.8,536.4 407.9,534.9 407.3,532.6ZM336.2,259.8C336.4,260.7 348,304 361.8,355.7L360.1,355.7C346.3,304.1 334.9,261.1 334.6,260.2C334,257.9 334.1,256.2 334.3,255.8C334.7,256.1 335.6,257.5 336.2,259.8ZM441.3,518.7C441.3,518.7 420.1,481.8 394.1,436.6L396,436.6C421.7,481.4 442.7,517.8 442.7,517.8C443.9,519.9 444.2,521.5 444.1,522C443.7,521.9 442.4,520.8 441.3,518.7ZM302.2,273.7C302.7,274.5 323.7,311.1 349.4,355.8L347.5,355.8C322,311.5 301.2,275.4 300.8,274.6C299.6,272.5 299.3,270.9 299.4,270.4C299.8,270.5 301.1,271.6 302.2,273.7ZM273,295.9C273.6,296.5 299.6,322.6 332.6,355.7L330.2,355.7C297.8,323.2 272.4,297.7 271.8,297.1C270.1,295.4 269.3,293.9 269.3,293.4C269.8,293.5 271.3,294.2 273,295.9ZM470.5,496.5C470.5,496.5 444.3,470.2 410.9,436.7L413.3,436.7C446.1,469.6 471.7,495.3 471.7,495.3C473.4,497 474.1,498.5 474.2,499C473.7,499 472.2,498.2 470.5,496.5ZM493,467.4C493,467.4 470.8,454.6 439.9,436.6L443.3,436.6C472.9,453.8 493.9,465.9 493.9,465.9C496,467.1 497.1,468.4 497.2,468.8C496.7,469 495,468.6 493,467.4ZM250.6,325C251.2,325.4 273.2,338.1 303.7,355.8L300.4,355.8C271.2,338.9 250.4,326.8 249.8,326.5C247.7,325.3 246.6,324 246.5,323.6C246.8,323.5 248.5,323.8 250.6,325ZM493.8,326.5C493.8,326.5 472.8,338.6 443.2,355.8L439.9,355.8C470.8,337.8 493,325 493,325C495.1,323.8 496.7,323.5 497.2,323.6C497,324 495.9,325.3 493.8,326.5ZM249.7,466C250.3,465.7 271.1,453.6 300.3,436.7L303.7,436.7C273.2,454.4 251.3,467.1 250.6,467.5C248.5,468.7 246.9,469 246.4,468.9C246.5,468.5 247.6,467.2 249.7,466ZM271.9,495.3C272.5,494.7 297.9,469.2 330.3,436.7L332.7,436.7C299.7,469.8 273.7,495.9 273.1,496.5C271.4,498.2 269.9,499 269.5,499C269.4,498.5 270.2,497 271.9,495.3ZM471.7,297.1C471.7,297.1 446.1,322.8 413.3,355.7L410.9,355.7C444.3,322.2 470.5,295.9 470.5,295.9C472.2,294.2 473.7,293.4 474.2,293.4C474.1,293.9 473.4,295.4 471.7,297.1ZM442.7,274.5C442.7,274.5 421.7,311 396,355.7L394.1,355.7C420.1,310.6 441.3,273.6 441.3,273.6C442.5,271.5 443.8,270.4 444.2,270.3C444.2,270.8 443.9,272.5 442.7,274.5ZM300.8,517.9C301.3,517.1 322.1,480.9 347.5,436.7L349.4,436.7C323.7,481.3 302.7,517.9 302.2,518.8C301,520.9 299.8,522 299.3,522.1C299.3,521.6 299.6,520 300.8,517.9ZM334.6,532.2C334.9,531.3 346.3,488.3 360.1,436.7L361.8,436.7C348,488.5 336.4,531.7 336.2,532.6C335.6,534.9 334.6,536.3 334.3,536.6C334.1,536.2 334,534.5 334.6,532.2ZM408.9,260.3C408.9,260.3 397.3,303.7 383.4,355.8L381.7,355.8C395.7,303.5 407.3,259.9 407.3,259.9C407.9,257.6 408.9,256.2 409.2,255.9C409.4,256.3 409.5,257.9 408.9,260.3ZM312,249.2C312.4,250.1 332.3,298.5 356,355.7L354.2,355.7C330.7,298.7 310.9,250.7 310.5,249.8C309.6,247.6 309.5,245.9 309.6,245.5C310,245.7 311.1,247 312,249.2ZM431.5,543.2C431.5,543.2 411.4,494.4 387.5,436.7L389.3,436.7C413,494.2 433,542.6 433,542.6C433.9,544.8 434,546.5 433.9,546.9C433.5,546.7 432.4,545.4 431.5,543.2ZM467.4,522.7C467.4,522.7 437.7,483.9 401.7,436.7L403.8,436.7C439.5,483.4 468.8,521.7 468.8,521.7C470.3,523.6 470.8,525.2 470.8,525.7C470.2,525.5 468.8,524.6 467.4,522.7ZM276.1,269.7C276.7,270.4 306.1,309 341.8,355.7L339.7,355.7C304.3,309.4 275.3,271.4 274.7,270.7C273.2,268.8 272.7,267.2 272.7,266.7C273.3,266.9 274.7,267.8 276.1,269.7ZM496.7,493.5C496.7,493.5 464.4,468.6 422.9,436.6L425.7,436.6C466.3,467.9 497.8,492.1 497.8,492.1C499.7,493.6 500.6,495 500.7,495.4C500.2,495.6 498.6,495 496.7,493.5ZM246.8,298.9C247.5,299.4 279.6,324.2 320.6,355.8L317.9,355.8C277.7,324.8 246.5,300.8 245.8,300.3C243.9,298.8 243,297.4 242.9,297C243.3,296.9 244.9,297.4 246.8,298.9ZM226,334.7C226.6,334.9 247,343.4 276.7,355.8L272.3,355.8C244.6,344.3 225.9,336.5 225.3,336.3C223.1,335.4 221.8,334.3 221.6,333.9C222.1,333.6 223.7,333.8 226,334.7ZM518.2,336.2C518.2,336.2 499.3,344 471.2,355.7L466.8,355.7C497,343.2 517.5,334.6 517.5,334.6C519.7,333.7 521.4,333.6 521.8,333.7C521.7,334.2 520.4,335.3 518.2,336.2ZM225.3,456.2C225.9,456 244.6,448.2 272.2,436.7L276.6,436.7C246.9,449.1 226.5,457.5 225.9,457.8C223.7,458.7 222,458.8 221.6,458.7C221.8,458.2 223.1,457.1 225.3,456.2ZM517.6,457.8C517.6,457.8 497.1,449.3 466.9,436.7L471.3,436.7C499.4,448.4 518.2,456.2 518.2,456.2C520.4,457.1 521.7,458.2 521.9,458.6C521.4,458.8 519.8,458.7 517.6,457.8ZM245.8,492.2C246.5,491.7 277.7,467.6 317.9,436.7L320.6,436.7C279.6,468.3 247.5,493 246.8,493.6C244.9,495.1 243.3,495.6 242.9,495.6C242.9,495.1 243.9,493.7 245.8,492.2ZM497.8,300.2C497.8,300.2 466.3,324.4 425.7,355.7L423,355.7C464.5,323.8 496.8,298.8 496.8,298.8C498.7,297.3 500.3,296.8 500.7,296.8C500.6,297.4 499.6,298.8 497.8,300.2ZM468.7,270.8C468.7,270.8 439.4,309.1 403.7,355.8L401.6,355.8C437.7,308.6 467.4,269.8 467.4,269.8C468.9,267.9 470.2,267 470.7,266.9C470.7,267.3 470.2,268.9 468.7,270.8ZM274.8,521.7C275.4,521 304.4,483 339.8,436.7L341.9,436.7C306.2,483.4 276.7,522 276.2,522.7C274.7,524.6 273.3,525.5 272.9,525.6C272.8,525.2 273.3,523.6 274.8,521.7ZM310.5,542.6C310.9,541.7 330.7,493.7 354.2,436.7L356,436.7C332.4,493.9 312.4,542.3 312,543.2C311.1,545.4 310,546.7 309.6,546.9C309.4,546.5 309.5,544.8 310.5,542.6ZM433.1,249.9C433.1,249.9 413.1,298.3 389.4,355.8L387.6,355.8C411.4,298 431.6,249.3 431.6,249.3C432.5,247.1 433.6,245.8 434,245.6C434.1,245.9 434,247.6 433.1,249.9ZM393.2,238.9C393.2,238.9 386.1,292.7 377.9,355.7L376.2,355.7C384.5,292.5 391.6,238.6 391.6,238.6C391.9,236.2 392.6,234.7 393,234.4C393.2,234.9 393.6,236.5 393.2,238.9ZM350.3,553.5C350.4,552.5 357.4,499.2 365.6,436.7L367.3,436.7C359.1,499.3 352.1,552.8 351.9,553.8C351.6,556.2 350.9,557.7 350.5,558C350.3,557.6 350,555.9 350.3,553.5ZM351.9,238.7C351.9,238.7 359,292.6 367.3,355.8L365.6,355.8C357.3,292.7 350.3,239 350.3,239C350,236.6 350.3,235 350.6,234.6C350.9,234.8 351.6,236.3 351.9,238.7ZM391.6,553.7C391.5,552.7 384.5,499.2 376.3,436.6L378,436.6C386.2,499.1 393.2,552.5 393.3,553.4C393.6,555.8 393.3,557.4 393,557.8C392.6,557.6 391.9,556.1 391.6,553.7ZM343.6,249.6C343.8,250.6 353.3,298.8 364.6,355.8L362.9,355.8C351.6,298.9 342.1,250.9 341.9,249.9C341.4,247.5 341.6,245.9 341.9,245.5C342.3,245.7 343.1,247.2 343.6,249.6ZM400,542.9C400,542.9 390.4,494.3 379,436.7L380.7,436.7C392.1,494.2 401.7,542.6 401.7,542.6C402.2,545 402,546.6 401.7,547C401.3,546.7 400.4,545.2 400,542.9ZM418.8,537.9C418.8,537.9 403.2,491.7 384.6,436.7L386.4,436.7C404.9,491.5 420.5,537.4 420.5,537.4C421.3,539.7 421.3,541.4 421.1,541.8C420.6,541.6 419.6,540.2 418.8,537.9ZM324.7,254.5C325,255.4 340.5,301.2 358.9,355.7L357.1,355.7C338.8,301.4 323.4,255.9 323.1,255C322.3,252.7 322.3,251 322.5,250.6C322.9,250.9 324,252.2 324.7,254.5ZM306.7,261.9C307.1,262.8 327.9,305 352.8,355.8L351,355.8C326.2,305.4 305.7,263.5 305.3,262.7C304.2,260.5 304,258.9 304.1,258.4C304.5,258.5 305.6,259.7 306.7,261.9ZM436.8,530.6C436.8,530.6 415.9,488 390.7,436.7L392.6,436.7C417.6,487.6 438.3,529.8 438.3,529.8C439.4,532 439.6,533.6 439.5,534.1C439.1,533.9 437.9,532.7 436.8,530.6ZM289.8,271.6C290.3,272.4 315.4,310 345.8,355.8L343.8,355.8C313.6,310.5 288.9,273.3 288.4,272.5C287.1,270.5 286.6,268.9 286.7,268.4C287.1,268.5 288.5,269.6 289.8,271.6ZM453.7,520.9C453.7,520.9 428.4,482.9 397.7,436.7L399.7,436.7C430.2,482.5 455.1,520 455.1,520C456.4,522 456.9,523.6 456.8,524.1C456.4,523.9 455.1,522.9 453.7,520.9ZM274.3,283.4C274.9,284.1 302.9,316.1 337.5,355.8L335.3,355.8C301.1,316.6 273.6,285.2 273,284.5C271.4,282.7 270.8,281.1 270.8,280.7C271.3,280.7 272.7,281.6 274.3,283.4ZM469.2,509.1C469.2,509.1 441,476.8 406,436.7L408.2,436.7C442.8,476.3 470.5,508 470.5,508C472.1,509.8 472.7,511.4 472.7,511.8C472.3,511.7 470.8,510.9 469.2,509.1ZM483.1,495.3C483.1,495.3 453.8,469.5 416.5,436.7L419,436.7C455.7,469 484.2,494.1 484.2,494.1C486,495.7 486.8,497.1 486.9,497.6C486.4,497.6 484.9,496.9 483.1,495.3ZM260.5,297.1C261.1,297.7 290.2,323.2 327.1,355.8L324.6,355.8C288.3,323.9 260,299 259.4,298.4C257.6,296.8 256.8,295.4 256.7,294.9C257.1,294.9 258.6,295.5 260.5,297.1ZM495,479.9C495,479.9 467.4,461.4 430.6,436.7L433.6,436.7C469.3,460.7 495.9,478.5 495.9,478.5C497.9,479.8 498.9,481.2 499.1,481.6C498.6,481.7 497,481.2 495,479.9ZM248.5,312.5C249.2,312.9 276.6,331.3 312.9,355.7L309.9,355.7C274.6,332 248.2,314.3 247.5,313.9C245.5,312.6 244.5,311.2 244.4,310.8C244.9,310.8 246.5,311.2 248.5,312.5ZM504.8,463C504.8,463 482.9,452.1 451.6,436.7L455.4,436.7C485.1,451.4 505.6,461.5 505.6,461.5C507.7,462.6 508.9,463.7 509.1,464.2C508.6,464.3 507,464.1 504.8,463ZM238.7,329.4C239.3,329.7 261.1,340.5 291.9,355.8L288.1,355.8C258.9,341.3 238.5,331.2 237.9,330.9C235.8,329.8 234.6,328.7 234.4,328.2C234.9,328.1 236.5,328.3 238.7,329.4ZM512.4,445C512.4,445 503.1,441.8 487.9,436.7L493.1,436.7C505.5,440.9 512.9,443.5 512.9,443.5C515.2,444.3 516.5,445.3 516.7,445.7C516.3,445.8 514.7,445.8 512.4,445ZM231.1,347.4C231.5,347.5 240.7,350.7 255.6,355.7L250.4,355.7C238.3,351.6 230.9,349.1 230.6,348.9C228.3,348.1 227,347.1 226.8,346.7C227.2,346.6 228.9,346.6 231.1,347.4ZM230.6,443.4C231,443.3 238.3,440.8 250.4,436.6L255.6,436.6C240.8,441.7 231.6,444.8 231.2,444.9C228.9,445.7 227.2,445.7 226.8,445.5C227,445.2 228.3,444.2 230.6,443.4ZM512.9,349C512.9,349 505.5,351.5 493,355.8L487.8,355.8C503,350.6 512.3,347.5 512.3,347.5C514.6,346.7 516.2,346.7 516.7,346.9C516.5,347.2 515.2,348.2 512.9,349ZM238,461.5C238.6,461.2 259,451.1 288.2,436.7L292,436.7C261.2,452 239.4,462.7 238.8,463C236.7,464.1 235,464.3 234.5,464.2C234.6,463.8 235.8,462.6 238,461.5ZM505.6,330.9C505.6,330.9 485.1,341.1 455.4,355.8L451.6,355.8C482.9,340.3 504.8,329.4 504.8,329.4C507,328.3 508.6,328.1 509,328.2C508.9,328.7 507.7,329.9 505.6,330.9ZM495.9,313.9C495.9,313.9 469.3,331.7 433.5,355.7L430.5,355.7C467.3,331 494.9,312.5 494.9,312.5C496.9,311.2 498.5,310.7 499,310.8C499,311.3 497.9,312.6 495.9,313.9ZM247.6,478.5C248.2,478.1 274.6,460.4 309.9,436.7L312.9,436.7C276.6,461.1 249.1,479.5 248.5,479.9C246.5,481.2 244.9,481.7 244.4,481.6C244.6,481.2 245.6,479.8 247.6,478.5ZM484.2,298.4C484.2,298.4 455.7,323.5 419,355.8L416.5,355.8C453.9,322.9 483.1,297.1 483.1,297.1C484.9,295.5 486.5,294.8 486.9,294.9C486.8,295.3 486,296.8 484.2,298.4ZM259.3,494.1C259.9,493.5 288.2,468.6 324.5,436.7L327.1,436.7C290.2,469.2 261.1,494.8 260.5,495.3C258.7,496.9 257.2,497.5 256.7,497.5C256.7,497.1 257.5,495.7 259.3,494.1ZM273,508C273.6,507.3 301.1,475.9 335.3,436.7L337.5,436.7C302.8,476.4 274.9,508.4 274.3,509.1C272.7,510.9 271.3,511.8 270.8,511.8C270.8,511.3 271.4,509.8 273,508ZM470.5,284.5C470.5,284.5 442.8,316.2 408.2,355.8L406,355.8C441,315.7 469.2,283.4 469.2,283.4C470.8,281.6 472.2,280.7 472.7,280.7C472.7,281.1 472.1,282.7 470.5,284.5ZM288.4,519.9C288.9,519.1 313.6,482 343.8,436.7L345.8,436.7C315.3,482.5 290.3,520.1 289.8,520.9C288.5,522.9 287.1,523.9 286.7,524C286.6,523.6 287.1,521.9 288.4,519.9ZM455.1,272.5C455.1,272.5 430.2,310 399.7,355.8L397.7,355.8C428.5,309.6 453.7,271.6 453.7,271.6C455,269.6 456.4,268.6 456.8,268.4C456.9,268.9 456.4,270.5 455.1,272.5ZM305.2,529.8C305.6,529 326.2,487.1 351,436.7L352.9,436.7C328,487.4 307.2,529.7 306.8,530.6C305.7,532.8 304.6,534 304.1,534.1C303.9,533.6 304.1,532 305.2,529.8ZM438.3,262.6C438.3,262.6 417.6,304.8 392.5,355.7L390.6,355.7C415.8,304.5 436.7,261.8 436.7,261.8C437.7,259.6 438.9,258.4 439.3,258.3C439.6,258.8 439.4,260.5 438.3,262.6ZM323.1,537.4C323.4,536.5 338.8,491 357.2,436.7L359,436.7C340.5,491.2 325,537 324.7,537.9C323.9,540.2 322.9,541.5 322.5,541.8C322.4,541.3 322.4,539.7 323.1,537.4ZM420.4,255.1C420.4,255.1 404.9,301 386.3,355.8L384.5,355.8C403.1,300.7 418.7,254.6 418.7,254.6C419.5,252.3 420.5,251 420.9,250.8C421.2,251.1 421.2,252.8 420.4,255.1ZM401.6,249.9C401.6,249.9 392,298.3 380.6,355.8L378.9,355.8C390.3,298.2 399.9,249.6 399.9,249.6C400.4,247.2 401.2,245.8 401.6,245.5C401.9,245.9 402.1,247.5 401.6,249.9ZM341.9,542.5C342.1,541.5 351.6,493.5 362.9,436.6L364.6,436.6C353.3,493.6 343.7,541.8 343.6,542.8C343.1,545.2 342.3,546.6 341.9,546.9C341.7,546.6 341.4,544.9 341.9,542.5ZM382.3,247.2C382.3,247.2 379.1,296.9 375.2,355.7L373.5,355.7C377.3,296.8 380.6,247.1 380.6,247.1C380.8,244.7 381.4,243.1 381.7,242.8C382.1,243.2 382.5,244.8 382.3,247.2ZM361.2,545.2C361.3,544.2 364.5,494.9 368.3,436.7L370,436.7C366.2,495 363,544.3 362.9,545.3C362.7,547.7 362.1,549.3 361.8,549.6C361.5,549.2 361,547.6 361.2,545.2ZM362.9,247.1C362.9,247.1 366.2,296.9 370,355.7L368.3,355.7C364.5,296.9 361.2,247.2 361.2,247.2C361,244.8 361.5,243.2 361.7,242.8C362.1,243.2 362.7,244.7 362.9,247.1ZM380.6,545.3C380.5,544.3 377.3,495 373.5,436.7L375.2,436.7C379,494.9 382.2,544.2 382.3,545.2C382.5,547.6 382,549.2 381.8,549.6C381.4,549.3 380.8,547.7 380.6,545.3Z" style="fill:rgb(254,217,37);"/>
                        <path id="Fill-318" d="M197.9,401.6L202.7,391.8L207.6,401.6L197.9,401.6ZM216.8,410.4L202.7,381.8L188.6,410.6C188.2,411.3 187.8,411.9 187,412.4L194,412.4C193.1,411.8 193.3,411.3 193.7,410.4L195.9,406L209.5,406L211.7,410.4C212.1,411.3 212.3,411.8 211.5,412.4L218.6,412.4C217.7,411.9 217.3,411.3 216.8,410.4Z" style="fill:rgb(66,72,50);"/>
                        <path id="Fill-320" d="M154.8,382.8L154.8,388.3C155.4,387.4 156.3,387.1 157.1,387.1L165.4,387.1L165.4,410.1C165.4,411 165.2,411.5 164.3,412.1L171.8,412.1C170.9,411.5 170.7,411 170.7,410.1L170.7,387.1L179,387.1C179.9,387.1 180.8,387.4 181.4,388.3L181.4,382.8L154.8,382.8Z" style="fill:rgb(66,72,50);"/>
                        <path id="Fill-322" d="M234.3,389.2L234.3,409.9C234.3,410.7 234.4,411.3 235.5,412.1L228.5,412.1C229.6,411.3 229.6,410.8 229.7,409.9L229.6,385.9C229.5,384.7 229,383.8 227.9,383.5L236.5,383.5C237,384.1 246.5,400.6 246.5,400.6C246.5,400.6 255.3,384.2 255.5,383.5L264.6,383.5C263.4,383.8 263.1,384.8 263,386L263,409.8C263.1,411 263.4,411.8 264.6,412.2L256.6,412.2C257.8,411.8 258.1,411 258.2,409.8L258.2,389.3L246.4,410.3L234.3,389.2Z" style="fill:rgb(66,72,50);"/>
                        <path id="Fill-324" d="M285.6,401.6L290.3,392L295.1,401.6L285.6,401.6ZM304.4,410.4L290.3,381.8L276.2,410.6C275.8,411.3 275.4,411.9 274.6,412.4L281.6,412.4C280.7,411.8 280.9,411.3 281.3,410.4L283.5,406L297.1,406L299.3,410.4C299.7,411.3 299.9,411.8 299.1,412.4L306.2,412.4C305.3,411.9 304.8,411.3 304.4,410.4Z" style="fill:rgb(66,72,50);"/>
                        <path id="Fill-326" d="M331.2,396.2C333.8,396.2 334.5,396 335.5,395.4C336.5,394.8 337.1,393.2 337.1,391.9C337.1,390.6 336.5,389.2 335.5,388.6C334.5,388 333.9,387.8 331.2,387.8L321.9,387.8L321.9,396.2L331.2,396.2ZM321.8,410.1C321.9,411.3 321.9,411.4 323,412.1L316,412.1C317.1,411.4 317.1,411.3 317.2,410.1L317.2,385.8C317.1,384.7 316.8,383.7 315.6,383.4L329.7,383.4C335.1,383.4 336.5,383.7 338.4,384.6C340.6,385.7 342,388.9 341.9,392C341.8,395.7 339.8,399.1 335.4,400L341.3,409.3C342.3,410.8 342.9,411.9 344,412.1L335.7,412.1C336.4,411.8 336.5,411.4 336.5,411C336.5,410.7 336.3,410.4 335.9,409.7L330,400.6L321.8,400.6L321.8,410.1Z" style="fill:rgb(66,72,50);"/>
                        <path id="Fill-328" d="M421.1,408.4C420.5,408 419.9,408.2 419.6,408.3C419.2,408.4 418.9,408.7 417.6,409.5C414.4,411.6 410,412.9 406.3,412.9C402.3,412.9 398.3,411.7 395.7,409.5C392.5,406.9 390.4,402.2 390.4,397.6C390.4,388.7 397,382.4 406.3,382.4C409.7,382.4 413.1,383.3 417.4,385.3C418.2,385.7 418.6,385.8 418.9,385.8C419.2,385.8 419.6,385.9 420.1,385.5L417.2,390.6C415.7,389.6 415.8,389.6 413.9,388.7C411.4,387.5 409.3,387 406.7,387C400,387 395.7,391.1 395.7,397.8C395.7,404.4 400,408.2 406.9,408.2C409.9,408.2 412.5,407.4 414.8,405.7C416.1,404.7 416.9,403.7 416.8,402.4L421.1,408.4Z" style="fill:rgb(66,72,50);"/>
                        <path id="Fill-330" d="M439.3,401.2L439.3,410C439.3,411 439.5,411.5 440.7,412.3L432.9,412.3C434.1,411.6 434.3,411 434.3,410L434.3,385.5C434.2,384.3 434.1,383.7 432.9,383.3L440.7,383.3C439.5,383.6 439.4,384.3 439.3,385.5L439.3,395.9C439.3,395.9 454.5,383.4 453.9,383.3L461.2,383.3C460.3,383.5 458,385.2 458,385.2L448.6,393.9L459.1,408.1C461.3,410.9 462.6,412.1 463.8,412.3L454.2,412.3C455.5,411.7 455.2,410.4 454.2,409.2L444.9,397L439.3,401.2Z" style="fill:rgb(66,72,50);"/>
                        <path id="Fill-332" d="M362.7,401.6L367.6,391.6L372.5,401.6L362.7,401.6ZM381.6,410.4L367.5,381.8L353.4,410.6C353,411.3 352.6,411.9 351.8,412.4L358.8,412.4C357.9,411.8 358.1,411.3 358.5,410.4L360.7,406L374.3,406L376.5,410.4C376.9,411.3 377.1,411.8 376.3,412.4L383.4,412.4C382.5,411.9 382.1,411.3 381.6,410.4Z" style="fill:rgb(66,72,50);"/>
                    </g>
                </g>
            </g>
        </g>
        <g transform="matrix(1,0,0,1,-89.5605,-233.76)">
            <path d="M193.9,607.7C194,607.7 194.2,607.7 194.3,607.6C194.4,607.5 194.5,607.4 194.5,607.2L194.5,594.6C194.5,594.4 194.4,594.3 194.3,594.3C194.2,594.3 194.1,594.2 193.9,594.2L193.9,593.7L199.1,593.7L199.1,594.2C199,594.2 198.9,594.2 198.8,594.3C198.7,594.4 198.6,594.4 198.6,594.5C198.6,594.6 198.6,594.7 198.7,594.9C198.8,595 198.9,595.2 198.9,595.4L202.9,602.6L206.9,595.5C207,595.3 207.1,595.1 207.2,594.9C207.3,594.8 207.3,594.6 207.3,594.5C207.3,594.3 207.2,594.2 206.9,594.2L206.9,593.7L212,593.7L212,594.2C211.9,594.2 211.7,594.2 211.6,594.3C211.5,594.4 211.4,594.5 211.4,594.6L211.4,607.2C211.4,607.4 211.5,607.5 211.6,607.6C211.7,607.7 211.8,607.7 212,607.7L212,608.2L207.7,608.2L207.7,607.7C208.2,607.7 208.4,607.5 208.4,607.2L208.4,598L208.3,598L202.7,608.2L202.6,608.2L197.1,598L197,598L197,607.2C197,607.5 197.3,607.7 197.8,607.7L197.8,608.2L193.6,608.2L193.6,607.7L193.9,607.7Z" style="fill:rgb(66,72,50);fill-rule:nonzero;"/>
        </g>
        <g transform="matrix(1,0,0,1,-89.5605,-233.76)">
            <path d="M231.5,608.2C231,608.1 230.5,608 230.2,607.8C229.8,607.6 229.5,607.4 229.2,607.2C228.9,607 228.7,606.7 228.5,606.5C228.1,606.9 227.6,607.2 227.3,607.4C227,607.6 226.5,607.9 226.1,608C225.7,608.2 225.3,608.3 224.8,608.3C224.3,608.3 223.8,608.4 223.2,608.4C222.5,608.4 221.9,608.3 221.2,608.2C220.5,608.1 219.9,607.8 219.3,607.5C218.7,607.1 218.3,606.7 217.9,606.1C217.5,605.5 217.3,604.9 217.3,604.1C217.3,603.5 217.4,603 217.6,602.5C217.8,602 218.1,601.7 218.4,601.3C218.7,600.9 219.1,600.7 219.6,600.5C220.1,600.3 220.6,600.1 221.1,599.9L221.1,599.8C220.5,599.6 220,599.3 219.6,598.8C219.2,598.3 219,597.8 219,597.2C219,596.6 219.2,596 219.5,595.6C219.8,595.1 220.2,594.8 220.7,594.5C221.2,594.2 221.7,594 222.3,593.8C222.9,593.7 223.5,593.6 224.1,593.6C224.7,593.6 225.3,593.7 225.9,593.8C226.5,593.9 227,594.2 227.5,594.5C228,594.8 228.4,595.2 228.7,595.6C229,596 229.2,596.6 229.2,597.2C229.2,597.8 229,598.4 228.7,598.9C228.4,599.4 227.9,599.7 227.5,599.8C227.7,600 227.9,600.2 228.1,600.4C228.2,600.6 228.4,600.9 228.5,601.1C228.6,601.3 228.7,601.6 228.8,601.8C228.9,602 229,602.2 229.1,602.3C229.4,601.8 229.7,601.3 230.1,600.9C230.5,600.5 230.8,600.1 231.2,599.8C231.6,599.5 231.9,599.2 232.2,599C232.5,598.8 232.7,598.7 232.9,598.7C233,598.7 233.1,598.6 233.1,598.6C233.1,598.6 233.2,598.5 233.2,598.4L233.5,598.4L233.5,602.7L233,602.7C233,602.6 232.9,602.5 232.8,602.3C232.7,602.2 232.6,602.1 232.4,602.1C232.2,602.1 232,602.2 231.8,602.4C231.6,602.6 231.4,602.8 231.2,603.1C231,603.4 230.9,603.6 230.8,603.9C230.7,604.2 230.6,604.4 230.5,604.6C230.8,604.9 231.1,605.2 231.4,605.5C231.8,605.8 232.1,605.9 232.4,605.9C232.7,605.9 232.8,605.8 232.9,605.7C233,605.5 233,605.3 233,605.1L233.3,605.1L233.3,608.5C232.6,608.3 232,608.3 231.5,608.2ZM220.7,604.8C220.9,605.1 221.2,605.4 221.5,605.6C221.8,605.8 222.2,606 222.6,606C223,606.1 223.4,606.1 223.8,606.1C224.2,606.1 224.5,606 224.9,605.9C225.2,605.8 225.6,605.6 225.8,605.4C226.1,605.2 226.3,605 226.5,604.8C226.7,604.6 226.8,604.3 226.8,604.1C226.5,603.7 226.3,603.3 226.2,603C226.1,602.6 225.9,602.3 225.8,602C225.6,601.7 225.4,601.5 225.1,601.3C224.8,601.1 224.4,601 223.8,601C223.4,601 223,601 222.6,601.1C222.2,601.2 221.8,601.3 221.5,601.5C221.2,601.7 220.9,602 220.7,602.3C220.5,602.6 220.4,603 220.4,603.5C220.4,604.1 220.5,604.5 220.7,604.8ZM222.4,596C221.9,596.3 221.7,596.8 221.7,597.4C221.7,598 221.9,598.5 222.4,598.8C222.9,599.1 223.4,599.3 224,599.3C224.6,599.3 225.2,599.1 225.6,598.8C226.1,598.5 226.3,598 226.3,597.4C226.3,596.8 226.1,596.3 225.6,596C225.1,595.7 224.6,595.5 224,595.5C223.4,595.6 222.8,595.7 222.4,596Z" style="fill:rgb(66,72,50);fill-rule:nonzero;"/>
        </g>
        <g transform="matrix(1,0,0,1,-89.5605,-233.76)">
            <path d="M237.9,607.7C238.1,607.7 238.3,607.5 238.5,607.3C238.6,607.1 238.8,606.9 238.9,606.6L244,595.8C244.1,595.6 244.2,595.3 244.3,595.1C244.4,594.9 244.5,594.7 244.5,594.6C244.5,594.4 244.4,594.3 244.3,594.2C244.2,594.1 244,594.1 243.9,594L243.9,593.5L248.6,593.5L248.6,594C248.5,594 248.3,594.1 248.2,594.2C248.1,594.3 248,594.4 248,594.6C248,594.7 248,594.9 248.1,595C248.2,595.1 248.3,595.3 248.4,595.6L254.2,606.9C254.3,607.1 254.4,607.3 254.6,607.3C254.8,607.4 254.9,607.5 255.1,607.6L255.1,608.1L250.2,608.1L250.2,607.6C250.3,607.6 250.4,607.6 250.5,607.5C250.6,607.4 250.7,607.4 250.7,607.3C250.7,607.1 250.6,606.9 250.5,606.6L249.4,604.6L242.6,604.6L241.6,606.6C241.4,607 241.3,607.3 241.3,607.4C241.3,607.6 241.5,607.7 241.8,607.7L241.8,608.2L237.9,608.2L237.9,607.7ZM248.3,602.6L246,597.5L243.4,602.6L248.3,602.6Z" style="fill:rgb(66,72,50);fill-rule:nonzero;"/>
        </g>
        <g transform="matrix(1,0,0,1,-89.5605,-233.76)">
            <path d="M267.6,607.7C267.8,607.7 268,607.5 268.2,607.3C268.3,607.1 268.5,606.9 268.6,606.6L273.7,595.8C273.8,595.6 273.9,595.3 274,595.1C274.1,594.9 274.2,594.7 274.2,594.6C274.2,594.4 274.1,594.3 274,594.2C273.9,594.1 273.7,594.1 273.6,594L273.6,593.5L278.3,593.5L278.3,594C278.2,594 278,594.1 277.9,594.2C277.8,594.3 277.7,594.4 277.7,594.6C277.7,594.7 277.7,594.9 277.8,595C277.9,595.1 278,595.3 278.1,595.6L283.9,606.9C284,607.1 284.1,607.3 284.3,607.3C284.5,607.4 284.6,607.5 284.8,607.6L284.8,608.1L279.9,608.1L279.9,607.6C280,607.6 280.1,607.6 280.2,607.5C280.3,607.4 280.4,607.4 280.4,607.3C280.4,607.1 280.3,606.9 280.2,606.6L279.1,604.6L272.3,604.6L271.3,606.6C271.1,607 271,607.3 271,607.4C271,607.6 271.2,607.7 271.5,607.7L271.5,608.2L267.6,608.2L267.6,607.7ZM278,602.6L275.7,597.5L273.1,602.6L278,602.6Z" style="fill:rgb(66,72,50);fill-rule:nonzero;"/>
        </g>
        <g transform="matrix(1,0,0,1,-89.5605,-233.76)">
            <path d="M298.1,593.7C299.1,593.7 300.1,593.8 300.9,594.1C301.8,594.4 302.5,594.8 303.2,595.4C303.9,596 304.4,596.8 304.7,597.7C305.1,598.6 305.3,599.7 305.3,600.9C305.3,602.1 305.1,603.2 304.7,604.1C304.3,605 303.8,605.8 303.2,606.4C302.6,607 301.8,607.4 300.9,607.7C300,608 299.1,608.1 298.1,608.1L288.9,608.1L288.9,607.6C289.3,607.6 289.5,607.4 289.5,607.1L289.5,594.5C289.5,594.2 289.3,594 288.9,594L288.9,593.5L298.1,593.5L298.1,593.7ZM296.9,605.9C297.8,605.9 298.5,605.8 299.2,605.7C299.8,605.6 300.4,605.3 300.8,604.9C301.2,604.5 301.5,604 301.8,603.4C302,602.8 302.1,602 302.1,601C302.1,600 302,599.2 301.8,598.6C301.6,598 301.3,597.5 300.8,597.1C300.4,596.7 299.8,596.5 299.2,596.3C298.6,596.2 297.8,596.1 296.9,596.1L292.6,596.1L292.6,605.9L296.9,605.9Z" style="fill:rgb(66,72,50);fill-rule:nonzero;"/>
        </g>
        <g transform="matrix(1,0,0,1,-89.5605,-233.76)">
            <path d="M326,594.2C325.6,594.2 325.4,594.3 325.2,594.6C325,594.9 324.9,595.1 324.8,595.3L320,606C319.8,606.4 319.7,606.7 319.6,606.9C319.5,607.1 319.4,607.3 319.4,607.4C319.4,607.5 319.4,607.6 319.5,607.6C319.5,607.7 319.6,607.7 319.7,607.8L319.7,608.3L315.5,608.3L315.5,607.8C315.7,607.7 315.7,607.6 315.7,607.4C315.7,607.3 315.6,607.1 315.5,606.8C315.4,606.5 315.2,606.2 315,605.7L310,594.9C309.9,594.7 309.8,594.5 309.6,594.5C309.4,594.4 309.2,594.3 308.9,594.2L308.9,593.7L313.9,593.7L313.9,594.2C313.8,594.2 313.6,594.2 313.5,594.3C313.4,594.4 313.3,594.5 313.3,594.7C313.3,594.9 313.4,595.2 313.5,595.5C313.7,595.8 313.8,596.2 314.1,596.7L317.6,604.3L321.1,596.8C321.3,596.3 321.5,595.9 321.7,595.5C321.9,595.1 322,594.9 322,594.7C322,594.4 321.7,594.3 321.2,594.3L321.2,593.8L326,593.8L326,594.2Z" style="fill:rgb(66,72,50);fill-rule:nonzero;"/>
        </g>
        <g transform="matrix(1,0,0,1,-89.5605,-233.76)">
            <path d="M330.3,607.7C330.8,607.7 331,607.5 331,607.2L331,594.6C331,594.3 330.8,594.1 330.3,594.1L330.3,593.6L334.9,593.6L334.9,594.1C334.4,594.1 334.2,594.3 334.2,594.6L334.2,607.2C334.2,607.5 334.4,607.7 334.9,607.7L334.9,608.2L330.3,608.2L330.3,607.7Z" style="fill:rgb(66,72,50);fill-rule:nonzero;"/>
        </g>
        <g transform="matrix(1,0,0,1,-89.5605,-233.76)">
            <path d="M342.1,603.7L342.4,603.8C342.4,604 342.4,604.1 342.5,604.2C342.6,604.4 342.9,604.6 343.3,604.9C343.7,605.1 344.1,605.3 344.6,605.5C345.1,605.7 345.6,605.8 346.1,605.9C346.6,606 347.1,606.1 347.5,606.1C347.8,606.1 348.2,606.1 348.7,606C349.2,606 349.7,605.9 350.2,605.7C350.7,605.6 351.1,605.3 351.4,605.1C351.7,604.8 351.9,604.5 351.9,604.1C351.9,603.7 351.7,603.4 351.4,603.2C351.1,603 350.7,602.9 350.1,602.8C349.6,602.7 349,602.6 348.3,602.6C347.6,602.6 346.9,602.5 346.2,602.5C345.5,602.4 344.8,602.4 344.1,602.2C343.4,602 342.8,601.9 342.3,601.5C341.8,601.2 341.3,600.8 341,600.3C340.7,599.8 340.5,599.1 340.5,598.2C340.5,597.6 340.6,597.1 340.9,596.5C341.2,595.9 341.6,595.5 342.1,595C342.7,594.6 343.4,594.2 344.2,594C345,593.8 346,593.6 347.2,593.6C348.2,593.6 349,593.7 349.7,593.8C350.4,593.9 351,594.1 351.6,594.3C352.2,594.5 352.6,594.6 352.9,594.8C353.3,594.9 353.6,595 353.8,595C354.1,595 354.2,594.9 354.4,594.8L354.7,595L352.8,598.5L352.5,598.4C352.5,598.1 352.4,597.9 352.3,597.8C352.2,597.6 351.9,597.4 351.6,597.1C351.3,596.9 350.9,596.7 350.4,596.5C349.9,596.3 349.4,596.2 348.9,596.1C348.4,596 347.8,595.9 347.3,595.9C346.9,595.9 346.5,595.9 346,596C345.5,596.1 345.2,596.2 344.8,596.3C344.4,596.4 344.2,596.6 343.9,596.8C343.6,597 343.6,597.3 343.6,597.6C343.6,598 343.8,598.4 344.1,598.6C344.4,598.8 344.8,599 345.4,599.1C345.9,599.2 346.5,599.3 347.2,599.3C347.9,599.3 348.6,599.4 349.3,599.4C350,599.5 350.7,599.6 351.4,599.7C352.1,599.8 352.7,600.1 353.2,600.4C353.7,600.7 354.2,601.1 354.5,601.6C354.8,602.1 355,602.8 355,603.6C355,604.6 354.7,605.3 354.2,606C353.7,606.7 353.1,607.1 352.3,607.4C351.5,607.7 350.7,608 349.9,608.1C349,608.2 348.2,608.3 347.4,608.3C346.3,608.3 345.5,608.2 344.8,608.1C344.1,608 343.5,607.8 343,607.7C342.5,607.5 342.2,607.4 341.9,607.2C341.6,607.1 341.4,607 341.2,607C341.1,607 341,607.1 340.8,607.2L340.4,607L342.1,603.7Z" style="fill:rgb(66,72,50);fill-rule:nonzero;"/>
        </g>
        <g transform="matrix(1,0,0,1,-89.5605,-233.76)">
            <path d="M372.4,594C373.5,594.3 374.4,594.8 375.3,595.4C376.2,596 376.9,596.8 377.4,597.7C378,598.6 378.2,599.7 378.2,601C378.2,602.3 377.9,603.4 377.4,604.3C376.8,605.2 376.1,606 375.3,606.6C374.4,607.2 373.5,607.7 372.4,607.9C371.3,608.2 370.3,608.3 369.3,608.3C368.3,608.3 367.3,608.2 366.2,607.9C365.1,607.6 364.2,607.2 363.3,606.6C362.4,606 361.7,605.2 361.2,604.3C360.6,603.4 360.4,602.3 360.4,601C360.4,599.7 360.7,598.6 361.2,597.7C361.8,596.8 362.5,596 363.3,595.4C364.2,594.8 365.1,594.3 366.2,594C367.3,593.7 368.3,593.5 369.3,593.5C370.3,593.5 371.3,593.7 372.4,594ZM367.2,596.4C366.5,596.6 365.9,596.9 365.3,597.4C364.7,597.8 364.3,598.3 363.9,598.9C363.5,599.5 363.4,600.2 363.4,601C363.4,601.8 363.6,602.5 363.9,603.1C364.2,603.7 364.7,604.2 365.3,604.6C365.9,605 366.5,605.3 367.2,605.6C367.9,605.8 368.6,605.9 369.3,605.9C370,605.9 370.7,605.8 371.4,605.6C372.1,605.4 372.7,605.1 373.3,604.6C373.9,604.2 374.3,603.7 374.7,603.1C375.1,602.5 375.2,601.8 375.2,601C375.2,600.2 375,599.5 374.7,598.9C374.3,598.3 373.9,597.8 373.3,597.4C372.7,597 372.1,596.7 371.4,596.4C370.7,596.2 370,596.1 369.3,596.1C368.6,596.1 367.9,596.2 367.2,596.4Z" style="fill:rgb(66,72,50);fill-rule:nonzero;"/>
        </g>
        <g transform="matrix(1,0,0,1,-89.5605,-233.76)">
            <path d="M393.1,593.7C394,593.7 394.8,593.8 395.5,593.9C396.2,594.1 396.8,594.3 397.4,594.6C397.9,594.9 398.3,595.4 398.6,595.9C398.9,596.4 399,597.1 399,597.9C399,599.1 398.6,600 397.9,600.7C397.2,601.3 396.2,601.8 395,602L398.7,607.3C398.8,607.5 399,607.6 399.2,607.6C399.4,607.6 399.5,607.7 399.7,607.7L399.7,608.2L394.5,608.2L394.5,607.7C394.7,607.7 394.8,607.7 394.9,607.6C395,607.5 395.1,607.5 395.1,607.4C395.1,607.3 395.1,607.2 395,607.1C394.9,607 394.8,606.8 394.7,606.6L391.7,602.3L387.7,602.3L387.7,607.2C387.7,607.4 387.8,607.5 387.9,607.6C388,607.7 388.2,607.7 388.6,607.7L388.6,608.2L383.8,608.2L383.8,607.7C384.3,607.7 384.6,607.5 384.6,607.2L384.6,594.6C384.6,594.3 384.3,594.1 383.8,594.1L383.8,593.6L393.1,593.6L393.1,593.7ZM392.4,600.2C393.1,600.2 393.6,600.1 394.1,600C394.5,599.9 394.9,599.8 395.2,599.6C395.5,599.4 395.6,599.2 395.8,598.9C395.9,598.7 396,598.4 396,598.1C396,597.8 395.9,597.5 395.8,597.3C395.7,597.1 395.5,596.8 395.2,596.6C394.9,596.4 394.6,596.3 394.1,596.2C393.7,596.1 393.1,596 392.4,596L387.6,596L387.6,600.1L392.4,600.1L392.4,600.2Z" style="fill:rgb(66,72,50);fill-rule:nonzero;"/>
        </g>
        <g transform="matrix(1,0,0,1,-89.5605,-233.76)">
            <path d="M406.2,603.7L406.5,603.8C406.5,604 406.5,604.1 406.6,604.2C406.7,604.4 407,604.6 407.4,604.9C407.8,605.1 408.2,605.3 408.7,605.5C409.2,605.7 409.7,605.8 410.2,605.9C410.7,606 411.2,606.1 411.6,606.1C411.9,606.1 412.3,606.1 412.8,606C413.3,606 413.8,605.9 414.3,605.7C414.8,605.6 415.2,605.3 415.5,605.1C415.8,604.8 416,604.5 416,604.1C416,603.7 415.8,603.4 415.5,603.2C415.2,603 414.8,602.9 414.2,602.8C413.7,602.7 413.1,602.6 412.4,602.6C411.7,602.6 411,602.5 410.3,602.5C409.6,602.4 408.9,602.4 408.2,602.2C407.5,602 406.9,601.9 406.4,601.5C405.9,601.2 405.4,600.8 405.1,600.3C404.8,599.8 404.6,599.1 404.6,598.2C404.6,597.6 404.7,597.1 405,596.5C405.3,595.9 405.7,595.5 406.2,595C406.8,594.6 407.5,594.2 408.3,594C409.1,593.8 410.1,593.6 411.3,593.6C412.3,593.6 413.1,593.7 413.8,593.8C414.5,593.9 415.1,594.1 415.7,594.3C416.3,594.5 416.7,594.6 417,594.8C417.4,594.9 417.7,595 417.9,595C418.2,595 418.3,594.9 418.5,594.8L418.8,595L416.9,598.5L416.6,598.4C416.6,598.1 416.5,597.9 416.4,597.8C416.3,597.6 416,597.4 415.7,597.1C415.4,596.9 415,596.7 414.5,596.5C414,596.3 413.5,596.2 413,596.1C412.5,596 411.9,595.9 411.4,595.9C411,595.9 410.6,595.9 410.1,596C409.6,596.1 409.3,596.2 408.9,596.3C408.5,596.4 408.3,596.6 408,596.8C407.7,597 407.7,597.3 407.7,597.6C407.7,598 407.9,598.4 408.2,598.6C408.5,598.8 408.9,599 409.5,599.1C410,599.2 410.6,599.3 411.3,599.3C412,599.3 412.7,599.4 413.4,599.4C414.1,599.5 414.8,599.6 415.5,599.7C416.2,599.8 416.8,600.1 417.3,600.4C417.8,600.7 418.3,601.1 418.6,601.6C418.9,602.1 419.1,602.8 419.1,603.6C419.1,604.6 418.8,605.3 418.3,606C417.8,606.7 417.2,607.1 416.4,607.4C415.6,607.7 414.8,608 414,608.1C413.1,608.2 412.3,608.3 411.5,608.3C410.4,608.3 409.6,608.2 408.9,608.1C408.2,608 407.6,607.8 407.1,607.7C406.6,607.5 406.3,607.4 406,607.2C405.7,607.1 405.5,607 405.3,607C405.2,607 405.1,607.1 404.9,607.2L404.5,607L406.2,603.7Z" style="fill:rgb(66,72,50);fill-rule:nonzero;"/>
        </g>
    </g>
</svg>
