<?xml version="1.0" encoding="UTF-8"?>
<svg width="200px" height="151px" viewBox="0 0 200 151" version="1.1" xmlns="http://www.w3.org/2000/svg" xmlns:xlink="http://www.w3.org/1999/xlink">
    <!-- Generator: Sketch 55.2 (78181) - https://sketchapp.com -->
    <title>tamarack-logo</title>
    <desc>Created with Sketch.</desc>
    <g id="Round-2" stroke="none" stroke-width="1" fill="none" fill-rule="evenodd">
        <g id="Home" transform="translate(-100.000000, -59.000000)">
            <g id="Top-Nav">
                <g id="tamarack-logo" transform="translate(100.000000, 59.000000)">
                    <path d="M69.2968831,141.167955 L69.2968831,94.5068155 L70.0722078,94.5068155 L70.0722078,141.167955 C70.0722078,142.284569 69.8228571,143.025718 69.6864935,143.186073 C69.5442857,143.025718 69.2968831,142.284569 69.2968831,141.167955 Z M70.0731818,10.2795567 L70.0731818,56.9426521 L69.2978571,56.9426521 L69.2978571,10.2795567 C69.2978571,9.16294339 69.5452597,8.41788265 69.6874675,8.26339499 C69.8218831,8.41788265 70.0731818,9.16294339 70.0731818,10.2795567 Z M86.1806494,139.038568 C86.1806494,139.038568 80.7767532,118.790907 74.2936364,94.507011 L75.1001299,94.507011 C81.5579221,118.702907 86.9325974,138.837147 86.9325974,138.837147 C87.218961,139.91465 87.18,140.69491 87.0806494,140.890464 C86.9014286,140.771176 86.4709091,140.118026 86.1806494,139.038568 Z M53.1874675,12.4077709 C53.3024026,12.8360342 58.6614935,32.9135633 65.0744805,56.9432388 L64.2699351,56.9432388 C57.8803247,33.0035182 52.5524026,13.0374548 52.4355195,12.6111471 C52.1491558,11.5297335 52.193961,10.7533841 52.2874675,10.5617412 C52.4725325,10.6751625 52.9030519,11.3302684 53.1874675,12.4077709 Z M101.941948,132.593304 C101.941948,132.593304 92.0848052,115.454951 80.0380519,94.505251 L80.9361039,94.505251 C92.8835065,115.278952 102.621818,132.206107 102.621818,132.206107 C103.177013,133.168232 103.330909,133.93676 103.284156,134.147958 C103.081558,134.081469 102.502987,133.563251 101.941948,132.593304 Z M37.4242208,18.854013 C37.6385065,19.2275211 47.4138312,36.2231192 59.332013,56.944021 L58.4359091,56.944021 C46.620974,36.4010733 36.9664286,19.6127625 36.7501948,19.2431654 C36.1969481,18.2751731 36.0411039,17.5086014 36.083961,17.2993587 C36.2846104,17.3678026 36.869026,17.8860207 37.4242208,18.854013 Z M23.8601299,29.173202 C24.1445455,29.4587108 36.2088312,41.5713255 51.5224675,56.9438255 L50.4276623,56.9438255 C35.3750649,41.8353234 23.5912987,30.006262 23.3127273,29.7246642 C22.5218182,28.9365816 22.1750649,28.2345428 22.1633766,28.0213889 C22.3718182,28.0331221 23.0731169,28.3831638 23.8601299,29.173202 Z M115.507987,122.27431 C115.507987,122.27431 103.340455,110.058052 87.8456494,94.5056421 L88.9443506,94.5056421 C104.178117,109.796009 116.057338,121.720892 116.057338,121.720892 C116.846299,122.514842 117.193052,123.214925 117.202792,123.426123 C116.990455,123.416345 116.293052,123.068259 115.507987,122.27431 Z M125.954026,108.784017 C125.954026,108.784017 115.67026,102.825487 101.318961,94.5066199 L102.86961,94.5066199 C116.611169,102.469579 126.335844,108.107401 126.335844,108.107401 C127.296234,108.664729 127.82026,109.253347 127.884545,109.456723 C127.676104,109.49779 126.912468,109.341346 125.954026,108.784017 Z M13.4236364,42.6652546 C13.71,42.8314755 23.9061039,48.7391618 38.0587013,56.9426521 L36.5061039,56.9426521 C22.9612987,49.0950701 13.3125974,43.5022257 13.034026,43.3399159 C12.0716883,42.782587 11.5496104,42.195925 11.4872727,41.9945044 C11.6918182,41.9456159 12.4593506,42.1059702 13.4236364,42.6652546 Z M13.0336364,108.107009 C13.3141558,107.9447 22.9628571,102.353811 36.5018182,94.5062288 L38.0563636,94.5062288 C23.9037662,102.709719 13.7115584,108.617405 13.4232468,108.785582 C12.458961,109.340955 11.6933766,109.497398 11.4868831,109.454377 C11.5492208,109.252956 12.0712987,108.664338 13.0336364,108.107009 Z M126.336429,43.3393292 C126.336429,43.3393292 116.607857,48.9771511 102.866299,56.944021 L101.317597,56.944021 C115.668896,48.6251539 125.95461,42.6666235 125.95461,42.6666235 C126.913052,42.1073391 127.67474,41.9508959 127.88513,41.9958733 C127.820844,42.1972939 127.296818,42.7820004 126.336429,43.3393292 Z M23.3123377,121.721479 C23.5928571,121.439881 35.3746753,109.614731 50.4253247,94.5062288 L51.5220779,94.5062288 C36.2084416,109.878729 24.1441558,121.991343 23.8597403,122.274897 C23.0727273,123.064935 22.3733766,123.416932 22.162987,123.42671 C22.1746753,123.215512 22.5233766,122.513473 23.3123377,121.721479 Z M116.057727,29.7250553 C116.057727,29.7250553 104.176558,41.6538493 88.9447403,56.942261 L87.8440909,56.942261 C103.338896,41.3898514 115.508377,29.1735931 115.508377,29.1735931 C116.293442,28.3835549 116.99474,28.0335133 117.207078,28.02178 C117.193442,28.2329783 116.84474,28.9369727 116.057727,29.7250553 Z M102.621234,19.2427743 C102.621234,19.2427743 92.8829221,36.1718841 80.9355195,56.9436299 L80.0374675,56.9436299 C92.0842208,35.9919744 101.941364,18.8536218 101.941364,18.8536218 C102.502403,17.8856295 103.080974,17.369367 103.289416,17.3009231 C103.330325,17.5082103 103.176429,18.2767375 102.621234,19.2427743 Z M36.7507792,132.206693 C36.9650649,131.835141 46.6196104,115.048785 58.4345455,94.5058377 L59.3325974,94.5058377 C47.4144156,115.224784 37.6390909,132.220382 37.4248052,132.595846 C36.8696104,133.561883 36.2851948,134.080101 36.0825974,134.148545 C36.0416883,133.941257 36.1975325,133.170775 36.7507792,132.206693 Z M52.4361039,138.838125 C52.552987,138.409862 57.8809091,118.443798 64.2705195,94.5060333 L65.0731169,94.5060333 C58.6601299,118.533753 53.301039,138.611282 53.1880519,139.041501 C52.9016883,140.119004 52.4731169,140.770198 52.2880519,140.889486 C52.1945455,140.693932 52.1497403,139.915628 52.4361039,138.838125 Z M86.9322078,12.6140804 C86.9322078,12.6140804 81.5575325,32.7463646 75.1016883,56.942261 L74.2951948,56.942261 C80.7763636,32.6583653 86.1802597,12.4126598 86.1802597,12.4126598 C86.4724675,11.3332017 86.901039,10.6800513 87.0802597,10.5607634 C87.1796104,10.7543618 87.2185714,11.5346223 86.9322078,12.6140804 Z M41.9462338,7.4837212 C42.1196104,7.90220676 51.3923377,30.3752724 62.3579221,56.9432388 L61.5144156,56.9432388 C50.6053247,30.504338 41.4027273,8.20140438 41.2274026,7.78291882 C40.8066234,6.7503937 40.7501299,5.97013324 40.8202597,5.77066816 C41.0111688,5.860623 41.5215584,6.45119608 41.9462338,7.4837212 Z M97.4181818,143.962813 C97.4181818,143.962813 88.0772727,121.321571 77.0123377,94.505251 L77.8558442,94.505251 C88.8662338,121.192505 98.138961,143.665571 98.138961,143.665571 C98.5675325,144.696141 98.624026,145.478357 98.5480519,145.675866 C98.3571429,145.587867 97.8506494,144.993383 97.4181818,143.962813 Z M25.3003247,17.0150231 C25.5652597,17.3631093 39.2425325,35.2543447 55.8224026,56.9432388 L54.8386364,56.9432388 C38.4243506,35.4714096 24.9438312,17.8343944 24.6808442,17.4921749 C24.0048701,16.6024042 23.7574675,15.8671212 23.7711039,15.6520118 C23.9737013,15.6911226 24.6204545,16.1291635 25.3003247,17.0150231 Z M114.06974,134.429556 C114.06974,134.429556 100.289221,116.401432 83.5535065,94.505251 L84.5333766,94.505251 C101.109351,116.188279 114.687273,133.952404 114.687273,133.952404 C115.361299,134.84413 115.62039,135.581369 115.602857,135.794523 C115.394416,135.753456 114.74961,135.317371 114.06974,134.429556 Z M127.694805,120.898392 C127.694805,120.898392 112.681169,109.333329 93.4305195,94.5064244 L94.7084416,94.5064244 C113.569481,109.034131 128.17013,120.278486 128.17013,120.278486 C129.046753,120.959014 129.487013,121.608253 129.524026,121.81554 C129.315584,121.835096 128.579221,121.576965 127.694805,120.898392 Z M11.6735065,30.5461866 C11.9890909,30.7906291 26.8916883,42.2716044 45.9416883,56.944021 L44.6657143,56.944021 C26.0053247,42.570802 11.5137662,31.4066242 11.204026,31.1660928 C10.3196104,30.4855649 9.88324675,29.8363256 9.84623377,29.6290383 C10.0566234,29.6114385 10.792987,29.8676142 11.6735065,30.5461866 Z M137.368442,104.288622 C137.368442,104.288622 127.844416,100.328654 113.843766,94.507011 L115.873636,94.507011 C128.913896,99.9277679 137.658701,103.563117 137.658701,103.563117 C138.691169,103.993336 139.275584,104.507643 139.371039,104.699285 C139.174286,104.769685 138.393117,104.71493 137.368442,104.288622 Z M2.00551948,47.1596722 C2.27435065,47.271138 11.7321429,51.2037289 25.5321429,56.9432388 L23.5061688,56.9432388 C10.649026,51.5967924 1.96461039,47.9868656 1.70941558,47.8793109 C0.676948052,47.4510476 0.0944805195,46.9386962 0.000974025974,46.7490088 C0.197727273,46.6766538 0.980844156,46.7314089 2.00551948,47.1596722 Z M137.659481,47.879702 C137.659481,47.879702 128.906883,51.5189619 115.864675,56.9436299 L113.838701,56.9436299 C127.843247,51.1219873 137.369221,47.1600633 137.369221,47.1600633 C138.395844,46.7337556 139.173117,46.6770449 139.371818,46.7493999 C139.274416,46.9390873 138.69,47.4514388 137.659481,47.879702 Z M1.70863636,103.565855 C1.96577922,103.4583 10.6462987,99.8503285 23.4995455,94.5058377 L25.5313636,94.5058377 C11.7333117,100.243392 2.27357143,104.175983 2.00474026,104.289404 C0.974220779,104.715712 0.198896104,104.770467 0.000194805195,104.700068 C0.0898051948,104.504514 0.683961039,103.994118 1.70863636,103.565855 Z M11.2034416,120.276726 C11.5131818,120.03815 26.0047403,108.875928 44.6631818,94.5066199 L45.9372078,94.5066199 C26.8911039,109.175125 11.9885065,120.654145 11.6729221,120.896632 C10.7924026,121.579116 10.056039,121.833336 9.84564935,121.817692 C9.88266234,121.610404 10.319026,120.959209 11.2034416,120.276726 Z M128.170325,31.1649194 C128.170325,31.1649194 113.567727,42.4131855 94.7027922,56.9428477 L93.4287662,56.9428477 C112.679416,42.1159434 127.695,30.5489243 127.695,30.5489243 C128.579416,29.8664409 129.315779,29.6122207 129.524221,29.6259095 C129.487208,29.8371078 129.046948,30.4863471 128.170325,31.1649194 Z M24.6800649,133.952013 C24.945,133.609793 38.4235714,115.976689 54.833961,94.5068155 L55.8177273,94.5068155 C39.2417532,116.191798 25.5644805,134.084989 25.2995455,134.429165 C24.6216234,135.318935 23.9748701,135.75111 23.7703247,135.794131 C23.7508442,135.580978 24.0040909,134.841783 24.6800649,133.952013 Z M114.688052,17.4876772 C114.688052,17.4876772 101.106234,35.2576691 84.5302597,56.9426521 L83.5503896,56.9426521 C100.286104,35.0445152 114.070519,17.0124809 114.070519,17.0124809 C114.748442,16.1285769 115.393247,15.6905359 115.603636,15.6514251 C115.617273,15.8665345 115.367922,16.6018175 114.688052,17.4876772 Z M41.2272078,143.661073 C41.4005844,143.244543 50.6012338,120.94161 61.5103247,94.5066199 L62.3518831,94.5066199 C51.3901948,121.074586 42.1194156,143.543741 41.946039,143.962226 C41.5213636,144.994752 41.010974,145.58728 40.8200649,145.677235 C40.7440909,145.475814 40.8064286,144.695554 41.2272078,143.661073 Z M98.1372078,7.78154994 C98.1372078,7.78154994 88.8625325,30.2565711 77.8521429,56.9438255 L77.0105844,56.9438255 C88.0755195,30.1255499 97.4183766,7.48430786 97.4183766,7.48430786 C97.8508442,6.45178274 98.3573377,5.86120966 98.5482468,5.76929928 C98.6183766,5.96680882 98.5677273,6.74902482 98.1372078,7.78154994 Z M59.7183117,148.74274 C59.7748052,148.285143 63.0222078,123.520185 66.8287013,94.5058377 L67.6157143,94.5058377 C63.8053247,123.563207 60.5481818,148.384876 60.4877922,148.840517 C60.3416883,149.951263 59.9968831,150.655258 59.8390909,150.794101 C59.7183117,150.616147 59.5761039,149.845664 59.7183117,148.74274 Z M79.6554545,2.70262146 C79.6554545,2.70262146 76.3807792,27.6592229 72.5431169,56.9434343 L71.7561039,56.9434343 C75.6015584,27.6142455 78.884026,2.60093338 78.884026,2.60093338 C79.0301299,1.4921422 79.3690909,0.794014423 79.5288312,0.653215543 C79.6457143,0.831169683 79.7976623,1.59383028 79.6554545,2.70262146 Z M60.4831169,2.60054227 C60.4831169,2.60054227 63.7655844,27.6158099 67.611039,56.9430432 L66.8298701,56.9430432 C62.9883117,27.6588318 59.7155844,2.70223035 59.7155844,2.70223035 C59.5733766,1.59343917 59.7155844,0.830778575 59.8402597,0.652824435 C60,0.793623315 60.3467532,1.49175109 60.4831169,2.60054227 Z M78.8830519,148.841103 C78.8207143,148.385462 75.5655195,123.561838 71.7570779,94.5064244 L72.5382468,94.5064244 C76.3447403,123.520771 79.5921429,148.28573 79.6525325,148.743326 C79.8025325,149.848206 79.6466883,150.620645 79.5317532,150.794688 C79.3681169,150.653889 79.0291558,149.95185 78.8830519,148.841103 Z M56.5965584,7.64798656 C56.6842208,8.09189414 61.117987,30.4671828 66.366039,56.9432388 L65.5712338,56.9432388 C60.3407143,30.5356267 55.9225325,8.24442626 55.8348701,7.80247422 C55.6186364,6.70346074 55.7140909,5.9290669 55.8251299,5.74524614 C55.9926623,5.87431178 56.3803247,6.55288416 56.5965584,7.64798656 Z M82.7811039,143.795614 C82.7811039,143.795614 78.3122727,121.242372 73.0135714,94.5062288 L73.8083766,94.5062288 C79.0934416,121.177839 83.5466883,143.645038 83.5466883,143.645038 C83.760974,144.742096 83.6635714,145.514534 83.5564286,145.704221 C83.3888961,145.5732 82.9973377,144.896583 82.7811039,143.795614 Z M91.5264935,141.500202 C91.5264935,141.500202 84.2738961,120.059661 75.6342857,94.5066199 L76.4544156,94.5066199 C85.057013,119.948195 92.2609091,141.249892 92.2609091,141.249892 C92.6193506,142.305884 92.6212987,143.0881 92.5394805,143.28561 C92.3505195,143.183922 91.882987,142.560104 91.5264935,141.500202 Z M47.8550649,9.94613716 C47.9972727,10.3704893 55.1933766,31.6428534 63.7492208,56.9436299 L62.931039,56.9436299 C54.4141558,31.7543192 47.2667532,10.6207985 47.1245455,10.1964463 C46.7622078,9.1365436 46.7583117,8.3543276 46.8420779,8.1587736 C47.0271429,8.26437276 47.5005195,8.88623448 47.8550649,9.94613716 Z M99.8912338,138.08094 C99.8912338,138.08094 90.1704545,118.292831 78.486039,94.5056421 L79.350974,94.5056421 C90.9594156,118.136387 100.58474,137.732854 100.58474,137.732854 C101.071753,138.732135 101.18474,139.508484 101.122403,139.71186 C100.929545,139.633639 100.380195,139.080221 99.8912338,138.08094 Z M39.4920779,13.3702877 C39.6868831,13.7672623 49.3316883,33.3969728 60.8972727,56.9436299 L60.0342857,56.9436299 C48.5407792,33.5475494 38.9914286,14.1075263 38.7966234,13.7125072 C38.3037662,12.7132263 38.1966234,11.9368769 38.2511688,11.7295896 C38.4557143,11.8097668 39.0011688,12.3651401 39.4920779,13.3702877 Z M31.6447403,17.8590342 C31.8843506,18.2188536 43.5200649,35.6994256 57.659026,56.9424566 L56.7259091,56.9424566 C42.7174675,35.8969351 31.2356494,18.6490724 30.9999351,18.289253 C30.3785065,17.3603715 30.1661688,16.6113997 30.2051299,16.4002014 C30.4077273,16.4510454 31.0213636,16.9281972 31.6447403,17.8590342 Z M107.740519,133.584567 C107.740519,133.584567 96.0112987,115.967107 81.7262338,94.507011 L82.6593506,94.507011 C96.8138961,115.773508 108.381429,133.156304 108.381429,133.156304 C109.002857,134.083229 109.207403,134.838068 109.182078,135.049266 C108.96974,134.994511 108.352208,134.515404 107.740519,133.584567 Z M114.939156,128.104557 C114.939156,128.104557 101.840455,113.113387 85.5859091,94.5064244 L86.6144805,94.5064244 C102.662532,112.876767 115.517727,127.592206 115.517727,127.592206 C116.257987,128.433088 116.557987,129.152726 116.556048,129.367836 C116.341753,129.340458 115.667727,128.945439 114.939156,128.104557 Z M24.4422078,23.3400217 C24.7227273,23.6568192 37.7123377,38.5287009 53.8012987,56.944021 L52.7707792,56.944021 C36.8922078,38.7672767 24.1383117,24.1672151 23.8655844,23.8523732 C23.1292208,23.011491 22.8233766,22.2918523 22.8291387,22.0786984 C23.0337662,22.1021649 23.7116883,22.497184 24.4422078,23.3400217 Z M18.0198701,29.7154732 C18.3198701,29.9794711 31.7964935,41.8437323 48.9471429,56.9424566 L47.7705195,56.9424566 C30.9412987,42.12533 17.8075325,30.5641776 17.5094805,30.3021352 C16.6718182,29.5648966 16.2783117,28.8902353 16.252987,28.6789994 C16.4653247,28.6751259 17.1861039,28.9762791 18.0198701,29.7154732 Z M121.361688,121.728128 C121.361688,121.728128 107.777922,109.770001 90.4422078,94.507011 L91.612987,94.507011 C108.638961,109.492314 121.875974,121.145377 121.875974,121.145377 C122.707792,121.878704 123.101299,122.55141 123.130519,122.766529 C122.918182,122.768475 122.197403,122.467322 121.361688,121.728128 Z M12.4780519,36.8807673 C12.7858442,37.0841435 25.5144156,45.6239866 42.3903896,56.9426521 L40.9916883,56.9426521 C24.6007792,45.9466507 12.3514286,37.7314272 12.0494805,37.5300066 C11.1222078,36.9081449 10.642987,36.2901942 10.5884416,36.0789959 C10.8027273,36.0516183 11.5585714,36.25695 12.4780519,36.8807673 Z M126.89961,114.563811 C126.89961,114.563811 114.06974,105.959435 96.9950649,94.5058377 L98.3918182,94.5058377 C114.985325,105.636771 127.33013,113.914572 127.33013,113.914572 C128.259351,114.540345 128.736623,115.154385 128.793117,115.359716 C128.578831,115.391005 127.824935,115.189584 126.89961,114.563811 Z M131.45961,106.73598 C131.45961,106.73598 121.275195,101.692643 106.756364,94.5060333 L108.50961,94.5060333 C122.274545,101.32109 131.804416,106.039808 131.804416,106.039808 C132.79987,106.530649 133.357013,107.080155 133.438831,107.281576 C133.234286,107.334376 132.460909,107.230732 131.45961,106.73598 Z M7.9161039,44.7085984 C8.20051948,44.8493972 18.307013,49.8516685 32.631039,56.9424566 L30.8758442,56.9424566 C17.3057143,50.2251767 7.84792208,45.5436139 7.57519481,45.4067261 C6.57779221,44.9119745 6.0187013,44.3644233 5.94272727,44.1649582 C6.15116883,44.106292 6.91675325,44.2158023 7.9161039,44.7085984 Z M4.4138961,53.0663807 C4.60480519,53.1309136 8.89246753,54.5917019 15.7905195,56.942261 L13.3807792,56.942261 C7.7587013,55.0258318 4.33597403,53.86033 4.17038961,53.8016638 C3.10480519,53.4418444 2.48727273,52.9744704 2.38792208,52.784783 C2.57883117,52.7026503 3.36194805,52.7046058 4.4138961,53.0663807 Z M134.965714,98.3762425 C134.965714,98.3762425 130.650779,96.9056764 123.610519,94.5062288 L126.008571,94.5062288 C131.761169,96.4676354 135.211169,97.642915 135.211169,97.642915 C136.270909,97.9968677 136.892338,98.4701084 136.993636,98.6558847 C136.796883,98.7419284 136.023506,98.7399729 134.965714,98.3762425 Z M4.16084416,97.6399817 C4.32837662,97.583271 7.74331169,96.4177692 13.3595455,94.505251 L15.7634416,94.505251 C8.87902597,96.851899 4.6011039,98.3107319 4.41019481,98.3752647 C3.36214286,98.7370396 2.58292208,98.7429062 2.38616883,98.6549069 C2.48551948,98.4691306 3.105,97.9958899 4.16084416,97.6399817 Z M135.211169,53.8026416 C135.211169,53.8026416 131.759221,54.9798766 125.998831,56.9432388 L123.594935,56.9432388 C130.644935,54.5398801 134.963766,53.0693141 134.963766,53.0693141 C136.015714,52.7055836 136.798831,52.7036281 136.991688,52.7838052 C136.892338,52.9754481 136.270909,53.4486888 135.211169,53.8026416 Z M7.57188312,106.036093 C7.84655844,105.90116 17.3024026,101.221553 30.8666883,94.5062288 L32.6140909,94.5062288 C18.2978571,101.593106 8.19525974,106.595377 7.91279221,106.736176 C6.92318182,107.228972 6.15175325,107.336527 5.94136364,107.277861 C6.01928571,107.080351 6.57448052,106.530844 7.57188312,106.036093 Z M131.807727,45.4065306 C131.807727,45.4065306 122.273961,50.1252486 108.501234,56.942261 L106.749935,56.942261 C121.272662,49.753696 131.459026,44.7103583 131.459026,44.7103583 C132.460325,44.2136512 133.227857,44.1041409 133.438247,44.1667182 C133.356429,44.3642278 132.801234,44.9137345 131.807727,45.4065306 Z M12.0481169,113.914572 C12.3461688,113.713152 24.5935714,105.497928 40.9844805,94.5058377 L42.3792857,94.5058377 C25.5072078,105.822548 12.7825325,114.356524 12.4786364,114.563811 C11.5591558,115.181762 10.8013636,115.394916 10.589026,115.357761 C10.6416234,115.154385 11.1208442,114.536434 12.0481169,113.914572 Z M127.329545,37.528051 C127.329545,37.528051 114.978896,45.8117185 98.3834416,56.9426521 L96.9905844,56.9426521 C114.067208,45.4890544 126.899026,36.8827228 126.899026,36.8827228 C127.824351,36.2589056 128.580195,36.0496628 128.78474,36.082907 C128.736039,36.2862831 128.262662,36.9101004 127.329545,37.528051 Z M17.5061688,121.141857 C17.7983766,120.879815 30.9321429,109.320618 47.7594156,94.5054466 L48.9399351,94.5054466 C31.7912338,109.602215 18.3165584,121.462565 18.0165584,121.726563 C17.1827922,122.461846 16.4659091,122.770822 16.2516234,122.765037 C16.2769481,122.555712 16.6646104,121.87714 17.5061688,121.141857 Z M121.871494,30.2999841 C121.871494,30.2999841 108.632532,41.9550025 91.6065584,56.9442166 L90.4318831,56.9442166 C107.77539,41.6773158 121.361104,29.7172332 121.361104,29.7172332 C122.196818,28.974128 122.911753,28.6710193 123.126039,28.6786941 C123.100714,28.8880842 122.709156,29.5666566 121.871494,30.2999841 Z M115.517532,23.8527643 C115.517532,23.8527643 102.66039,38.5701583 86.6084416,56.9424566 L85.5779221,56.9424566 C101.836364,38.3315824 114.935065,23.3384573 114.935065,23.3384573 C115.667532,22.5014862 116.335714,22.1006005 116.550148,22.0790895 C116.557792,22.2902878 116.257792,23.0118821 115.517532,23.8527643 Z M23.8544805,127.590837 C24.1311039,127.275995 36.8811039,112.679844 52.7596753,94.507011 L53.7940909,94.507011 C37.709026,112.91842 24.7194156,127.786391 24.4427922,128.103188 C23.7064286,128.94407 23.0343506,129.343001 22.829576,129.364511 C22.8200649,129.151358 23.1200649,128.429763 23.8544805,127.590837 Z M108.381623,18.2888619 C108.381623,18.2888619 96.8101948,35.6736125 82.6537013,56.944021 L81.7205844,56.944021 C96.0056494,35.4819695 107.736818,17.8625542 107.736818,17.8625542 C108.356299,16.9317171 108.967987,16.4486988 109.176429,16.3998103 C109.209545,16.6110086 108.997208,17.3599804 108.381623,18.2888619 Z M30.9940909,133.14809 C31.2317532,132.790226 42.7096753,115.54823 56.7181169,94.5066199 L57.6512338,94.5066199 C43.5161688,115.74574 31.8824026,133.222401 31.6447403,133.58222 C31.0252597,134.513057 30.4057792,134.99412 30.1992857,135.043009 C30.1681169,134.835721 30.3765584,134.080883 30.9940909,133.14809 Z M38.7938961,137.728552 C38.9887013,137.335488 48.5361039,117.89742 60.0257143,94.505251 L60.8925974,94.505251 C49.3231169,118.051908 39.6822078,137.679663 39.4893506,138.076638 C38.9964935,139.075919 38.451039,139.637159 38.2503896,139.711469 C38.19,139.508093 38.2990909,138.731744 38.7938961,137.728552 Z M100.581818,13.7121161 C100.581818,13.7121161 90.9545455,33.3085824 79.3441558,56.9432388 L78.4811688,56.9432388 C90.1655844,33.1560503 99.8902597,13.367941 99.8902597,13.367941 C100.377273,12.3667046 100.926623,11.8093757 101.119481,11.7331096 C101.17987,11.9384413 101.078571,12.7128351 100.581818,13.7121161 Z M92.2550649,10.1944907 C92.2550649,10.1944907 85.0511688,31.4981435 76.4466234,56.9436299 L75.6323377,56.9436299 C84.2738961,31.3886332 91.5264935,9.9480927 91.5264935,9.9480927 C91.881039,8.88819002 92.3505195,8.26241722 92.5336364,8.16268468 C92.6212987,8.3543276 92.6193506,9.1365436 92.2550649,10.1944907 Z M47.115,141.248132 C47.2611039,140.82378 54.4085065,119.694171 62.9273377,94.5068155 L63.7435714,94.5068155 C55.1896753,119.801725 47.9974675,141.072134 47.8552597,141.496486 C47.5007143,142.558344 47.0273377,143.182162 46.8422727,143.285805 C46.7565584,143.084385 46.7565584,142.308035 47.115,141.248132 Z M83.5459091,7.80071423 C83.5459091,7.80071423 79.0926623,30.2698688 73.8056494,56.9434343 L73.0147403,56.9434343 C78.3114935,30.205336 82.7803247,7.65013765 82.7803247,7.65013765 C82.9946104,6.55307971 83.3822727,5.87059625 83.5537013,5.74348615 C83.6666883,5.93121799 83.7640909,6.70365629 83.5459091,7.80071423 Z M55.8317532,143.643865 C55.9213636,143.201912 60.3375974,120.912668 65.572013,94.507011 L66.360974,94.507011 C61.1148701,120.979156 56.6811039,143.352489 56.5934416,143.794441 C56.3733117,144.893455 55.9934416,145.575938 55.8200649,145.701093 C55.7129221,145.517272 55.6116234,144.742878 55.8317532,143.643865 Z M64.7807143,144.880352 C64.8118831,144.428623 66.307987,121.539027 68.0729221,94.5056421 L68.8521429,94.5056421 C67.0833117,121.560538 65.5872078,144.475556 65.556039,144.927285 C65.4898052,146.045854 65.1937013,146.77136 65.0359091,146.918025 C64.9073377,146.751804 64.7066883,145.996966 64.7807143,144.880352 Z M74.5951948,6.56422629 C74.5951948,6.56422629 73.0893506,29.6395982 71.3049351,56.9428477 L70.5276623,56.9428477 C72.3120779,29.6200428 73.8218182,6.51533779 73.8218182,6.51533779 C73.89,5.39872445 74.1802597,4.67517465 74.3361039,4.52850915 C74.4685714,4.69473005 74.6672727,5.44761295 74.5951948,6.56422629 Z M73.8132468,144.931979 C73.785974,144.478293 72.2918182,121.56132 70.5268831,94.5064244 L71.3002597,94.5064244 C73.0651948,121.539809 74.5612987,144.427449 74.5885714,144.879179 C74.6664935,145.995792 74.4716883,146.752586 74.3372727,146.920763 C74.1833766,146.772142 73.8892208,146.048592 73.8132468,144.931979 Z M65.5531169,6.51357781 C65.5531169,6.51357781 67.0628571,29.6182829 68.8472727,56.9430432 L68.0738961,56.9430432 C66.2933766,29.6417493 64.7836364,6.56637738 64.7836364,6.56637738 C64.7057143,5.45171959 64.9083117,4.69492561 65.0349351,4.52870471 C65.1946753,4.67537021 65.4907792,5.39892001 65.5531169,6.51357781 Z" id="Green" fill="#96C121"></path>
                    <path d="M129.793052,141.167955 L129.793052,94.5068155 L130.566429,94.5068155 L130.566429,141.167955 C130.566429,142.284569 130.320974,143.025718 130.178766,143.186073 C130.044351,143.025718 129.793052,142.284569 129.793052,141.167955 Z M130.569351,10.2795567 L130.569351,56.9426521 L129.794026,56.9426521 L129.794026,10.2795567 C129.794026,9.16294339 130.043377,8.41788265 130.17974,8.26339499 C130.321948,8.41788265 130.569351,9.16294339 130.569351,10.2795567 Z M146.678766,139.038568 C146.678766,139.038568 141.27487,118.790907 134.791753,94.507011 L135.598247,94.507011 C142.056039,118.702907 147.430714,138.837147 147.430714,138.837147 C147.717078,139.91465 147.668377,140.69491 147.578766,140.890464 C147.393701,140.771176 146.969026,140.118026 146.678766,139.038568 Z M113.687338,12.4077709 C113.800325,12.8360342 119.159416,32.9135633 125.572403,56.9432388 L124.765909,56.9432388 C118.378247,33.0035182 113.050325,13.0374548 112.933442,12.6111471 C112.647078,11.5297335 112.687987,10.7533841 112.78539,10.5617412 C112.962662,10.6751625 113.39513,11.3302684 113.687338,12.4077709 Z M162.442013,132.593304 C162.442013,132.593304 152.586818,115.454951 140.538117,94.505251 L141.432273,94.505251 C153.379675,115.278952 163.116039,132.206107 163.116039,132.206107 C163.667338,133.168232 163.830974,133.93676 163.782273,134.147958 C163.581623,134.081469 162.997208,133.563251 162.442013,132.593304 Z M97.9164935,18.854013 C98.1327273,19.2275211 107.908052,36.2231192 119.826234,56.944021 L118.934026,56.944021 C107.119091,36.4010733 97.4625974,19.6127625 97.2444156,19.2431654 C96.6911688,18.2751731 96.5333766,17.5086014 96.5781818,17.2993587 C96.7827273,17.3678026 97.3651948,17.8860207 97.9164935,18.854013 Z M84.3543506,29.173202 C84.6387662,29.4587108 96.7069481,41.5713255 112.022532,56.9438255 L110.925779,56.9438255 C95.8731818,41.8353234 84.0894156,30.006262 83.8108442,29.7246642 C83.0199351,28.9365816 82.6731818,28.2345428 82.6614935,28.0213889 C82.8699351,28.0331221 83.5692857,28.3831638 84.3543506,29.173202 Z M176.006104,122.27431 C176.006104,122.27431 163.838571,110.058052 148.343766,94.5056421 L149.444416,94.5056421 C164.676234,109.796009 176.557403,121.720892 176.557403,121.720892 C177.344416,122.514842 177.691169,123.214925 177.704805,123.426123 C177.494416,123.416345 176.793117,123.068259 176.006104,122.27431 Z M186.446494,108.784017 C186.446494,108.784017 176.162727,102.825487 161.811429,94.5066199 L163.36987,94.5066199 C177.109481,102.469579 186.836104,108.107401 186.836104,108.107401 C187.80039,108.664729 188.312727,109.253347 188.380909,109.456723 C188.174416,109.49779 187.408831,109.341346 186.446494,108.784017 Z M73.9198052,42.6652546 C74.2061688,42.8314755 84.4022727,48.7391618 98.5548701,56.9426521 L97.0022727,56.9426521 C83.4574675,49.0950701 73.8107143,43.5022257 73.5321429,43.3399159 C72.562013,42.782587 72.0438312,42.195925 71.9834416,41.9945044 C72.1899351,41.9456159 72.9535714,42.1059702 73.9198052,42.6652546 Z M186.834545,43.3393292 C186.834545,43.3393292 177.105974,48.9771511 163.364416,56.944021 L161.811818,56.944021 C176.161169,48.6251539 186.446883,42.6666235 186.446883,42.6666235 C187.407273,42.1073391 188.172857,41.9508959 188.383247,41.9958733 C188.311169,42.1972939 187.802727,42.7820004 186.834545,43.3393292 Z M73.5317532,108.107009 C73.8122727,107.9447 83.4570779,102.353811 96.997987,94.5062288 L98.5544805,94.5062288 C84.4018831,102.709719 74.2096753,108.617405 73.9213636,108.785582 C72.9531818,109.340955 72.1856494,109.497398 71.9772078,109.454377 C72.0434416,109.252956 72.5694156,108.664338 73.5317532,108.107009 Z M83.8102597,121.721479 C84.0907792,121.439881 95.8725974,109.614731 110.923247,94.5062288 L112.021948,94.5062288 C96.7063636,109.878729 84.6401299,121.991343 84.3537662,122.274897 C83.5687013,123.064935 82.8712987,123.416932 82.6609091,123.42671 C82.6667532,123.215512 83.0212987,122.513473 83.8102597,121.721479 Z M176.557792,29.7250553 C176.557792,29.7250553 164.674675,41.6538493 149.442857,56.942261 L148.342208,56.942261 C163.837013,41.3898514 176.006494,29.1735931 176.006494,29.1735931 C176.793506,28.3835549 177.492857,28.0335133 177.705195,28.02178 C177.691558,28.2329783 177.342857,28.9369727 176.557792,29.7250553 Z M163.115455,19.2427743 C163.115455,19.2427743 153.379091,36.1718841 141.431688,56.9436299 L140.535584,56.9436299 C152.586234,35.9919744 162.441429,18.8536218 162.441429,18.8536218 C163.000519,17.8856295 163.581039,17.369367 163.783636,17.3009231 C163.83039,17.5082103 163.666753,18.2767375 163.115455,19.2427743 Z M97.2488961,132.206693 C97.4631818,131.835141 107.117727,115.048785 118.93461,94.5058377 L119.826818,94.5058377 C107.908636,115.224784 98.1333117,132.220382 97.9170779,132.595846 C97.3657792,133.561883 96.7833117,134.080101 96.5787662,134.148545 C96.533961,133.941257 96.6917532,133.170775 97.2488961,132.206693 Z M112.934026,138.838125 C113.050909,138.409862 118.378831,118.443798 124.768442,94.5060333 L125.571039,94.5060333 C119.158052,118.533753 113.798961,138.611282 113.687922,139.041501 C113.393766,140.119004 112.963247,140.770198 112.785974,140.889486 C112.688571,140.693932 112.647662,139.915628 112.934026,138.838125 Z M147.43013,12.6140804 C147.43013,12.6140804 142.057403,32.7463646 135.597662,56.942261 L134.793117,56.942261 C141.274286,32.6583653 146.678182,12.4126598 146.678182,12.4126598 C146.97039,11.3332017 147.398961,10.6800513 147.578182,10.5607634 C147.673636,10.7543618 147.714545,11.5346223 147.43013,12.6140804 Z M102.45,7.4837212 C102.623377,7.90220676 111.892208,30.3752724 122.857792,56.9432388 L122.012338,56.9432388 C111.101299,30.504338 101.898701,8.20140438 101.725325,7.78291882 C101.296753,6.7503937 101.248052,5.97013324 101.318182,5.77066816 C101.511039,5.860623 102.015584,6.45119608 102.45,7.4837212 Z M157.916104,143.962813 C157.916104,143.962813 148.573247,121.321571 137.508312,94.505251 L138.353766,94.505251 C149.364156,121.192505 158.636883,143.665571 158.636883,143.665571 C159.05961,144.696141 159.121948,145.478357 159.045974,145.675866 C158.858961,145.587867 158.344675,144.993383 157.916104,143.962813 Z M174.567857,134.429556 C174.567857,134.429556 160.787338,116.401432 144.049675,94.505251 L145.033442,94.505251 C161.605519,116.188279 175.18539,133.952404 175.18539,133.952404 C175.859416,134.84413 176.116558,135.581369 176.100974,135.794523 C175.892532,135.753456 175.245779,135.317371 174.567857,134.429556 Z M85.7982468,17.0150231 C86.0631818,17.3631093 99.7385065,35.2543447 116.318377,56.9432388 L115.336558,56.9432388 C98.9222727,35.4714096 85.4437013,17.8343944 85.1807143,17.4921749 C84.5008442,16.6024042 84.2495455,15.8671212 84.2631818,15.6520118 C84.4696753,15.6911226 85.1164286,16.1291635 85.7982468,17.0150231 Z M188.192727,120.898392 C188.192727,120.898392 173.179091,109.333329 153.928442,94.5064244 L155.208312,94.5064244 C174.067403,109.034131 188.668052,120.278486 188.668052,120.278486 C189.544675,120.959014 189.984935,121.608253 190.02,121.81554 C189.811558,121.835096 189.077143,121.576965 188.192727,120.898392 Z M72.1733766,30.5461866 C72.487013,30.7906291 87.3915584,42.2716044 106.43961,56.944021 L105.163636,56.944021 C86.5051948,42.570802 72.0116883,31.4066242 71.7019481,31.1660928 C70.8175325,30.4855649 70.3831169,29.8363256 70.3441558,29.6290383 C70.5487013,29.6114385 71.2909091,29.8676142 72.1733766,30.5461866 Z M62.5034416,47.1596722 C62.7742208,47.271138 72.232013,51.2037289 86.032013,56.9432388 L84.0040909,56.9432388 C71.1469481,51.5967924 62.4625325,47.9868656 62.2073377,47.8793109 C61.1748701,47.4510476 60.5885065,46.9386962 60.4988961,46.7490088 C60.6956494,46.6766538 61.470974,46.7314089 62.5034416,47.1596722 Z M198.157597,47.879702 C198.157597,47.879702 189.406948,51.5189619 176.362792,56.9436299 L174.336818,56.9436299 C188.339416,51.1219873 197.867338,47.1600633 197.867338,47.1600633 C198.892013,46.7337556 199.667338,46.6770449 199.871883,46.7493999 C199.772532,46.9390873 199.182273,47.4514388 198.157597,47.879702 Z M62.2067532,103.565855 C62.4638961,103.4583 71.1424675,99.8503285 83.9957143,94.5058377 L86.0294805,94.5058377 C72.2314286,100.243392 62.7736364,104.175983 62.5028571,104.289404 C61.4703896,104.715712 60.697013,104.770467 60.4983117,104.700068 C60.584026,104.504514 61.1762338,103.994118 62.2067532,103.565855 Z M197.866558,104.288622 C197.866558,104.288622 188.340584,100.328654 174.339935,94.507011 L176.371753,94.507011 C189.412013,99.9277679 198.156818,103.563117 198.156818,103.563117 C199.189286,103.993336 199.773701,104.507643 199.871104,104.699285 C199.668506,104.769685 198.891234,104.71493 197.866558,104.288622 Z M71.7015584,120.276726 C72.0112987,120.03815 86.5048052,108.875928 105.161299,94.5066199 L106.435325,94.5066199 C87.3892208,109.175125 72.4866234,120.654145 72.172987,120.896632 C71.2905195,121.579116 70.5483117,121.833336 70.3437662,121.817692 C70.3768831,121.610404 70.8171429,120.959209 71.7015584,120.276726 Z M188.668442,31.1649194 C188.668442,31.1649194 174.065844,42.4131855 155.202857,56.9428477 L153.926883,56.9428477 C173.177532,42.1159434 188.193117,30.5489243 188.193117,30.5489243 C189.077532,29.8664409 189.811948,29.6122207 190.022338,29.6259095 C189.985325,29.8371078 189.545065,30.4863471 188.668442,31.1649194 Z M175.186169,17.4876772 C175.186169,17.4876772 161.602403,35.2576691 145.026429,56.9426521 L144.046558,56.9426521 C160.784221,35.0445152 174.568636,17.0124809 174.568636,17.0124809 C175.24461,16.1285769 175.887468,15.6905359 176.101753,15.6514251 C176.119286,15.8665345 175.860195,16.6018175 175.186169,17.4876772 Z M85.1801299,133.952013 C85.4450649,133.609793 98.9216883,115.976689 115.334026,94.5068155 L116.313896,94.5068155 C99.7379221,116.191798 86.0625974,134.084989 85.7976623,134.429165 C85.1177922,135.318935 84.471039,135.75111 84.2625974,135.794131 C84.247013,135.580978 84.5002597,134.841783 85.1801299,133.952013 Z M101.72513,143.661073 C101.898506,143.244543 111.099156,120.94161 122.008247,94.5066199 L122.853701,94.5066199 C111.888117,121.074586 102.61539,143.543741 102.443961,143.962226 C102.01539,144.994752 101.510844,145.58728 101.317987,145.677235 C101.245909,145.475814 101.296558,144.695554 101.72513,143.661073 Z M158.637273,7.78154994 C158.637273,7.78154994 149.362597,30.2565711 138.352208,56.9438255 L137.508701,56.9438255 C148.573636,30.1255499 157.916494,7.48430786 157.916494,7.48430786 C158.345065,6.45178274 158.853506,5.86120966 159.046364,5.76929928 C159.114545,5.96680882 159.06,6.74902482 158.637273,7.78154994 Z M140.147922,2.70262146 C140.147922,2.70262146 136.875195,27.6592229 133.037532,56.9434343 L132.248571,56.9434343 C136.094026,27.6142455 139.376494,2.60093338 139.376494,2.60093338 C139.522597,1.4921422 139.863506,0.794014423 140.027143,0.653215543 C140.144026,0.831169683 140.29987,1.59383028 140.147922,2.70262146 Z M120.212727,148.74274 C120.269221,148.285143 123.516623,123.520185 127.321169,94.5058377 L128.112078,94.5058377 C124.29974,123.563207 121.044545,148.384876 120.982208,148.840517 C120.84,149.951263 120.497143,150.655258 120.333506,150.794101 C120.216623,150.616147 120.064675,149.845664 120.212727,148.74274 Z M120.981234,2.60054227 C120.981234,2.60054227 124.263701,27.6158099 128.109156,56.9430432 L127.326039,56.9430432 C123.484481,27.6588318 120.209805,2.70223035 120.209805,2.70223035 C120.065649,1.59343917 120.215649,0.830778575 120.338377,0.652824435 C120.498117,0.793623315 120.84487,1.49175109 120.981234,2.60054227 Z M139.375519,148.841103 C139.317078,148.385462 136.063831,123.561838 132.251494,94.5064244 L133.036558,94.5064244 C136.841104,123.520771 140.088506,148.28573 140.146948,148.743326 C140.300844,149.848206 140.145,150.620645 140.026169,150.794688 C139.866429,150.653889 139.525519,149.95185 139.375519,148.841103 Z M117.094675,7.64798656 C117.182338,8.09189414 121.616104,30.4671828 126.862208,56.9432388 L126.069351,56.9432388 C120.836883,30.5356267 116.420649,8.24442626 116.332987,7.80247422 C116.114805,6.70346074 116.212208,5.9290669 116.323247,5.74524614 C116.490779,5.87431178 116.878442,6.55288416 117.094675,7.64798656 Z M143.279221,143.795614 C143.279221,143.795614 138.81039,121.242372 133.511688,94.5062288 L134.304545,94.5062288 C139.587662,121.177839 144.040909,143.645038 144.040909,143.645038 C144.261039,144.742096 144.161688,145.514534 144.054545,145.704221 C143.881169,145.5732 143.491558,144.896583 143.279221,143.795614 Z M152.020714,141.500202 C152.020714,141.500202 144.770065,120.059661 136.130455,94.5066199 L136.952532,94.5066199 C145.55513,119.948195 152.759026,141.249892 152.759026,141.249892 C153.117468,142.305884 153.121364,143.0881 153.035649,143.28561 C152.848636,143.183922 152.379156,142.560104 152.020714,141.500202 Z M108.353182,9.94613716 C108.49539,10.3704893 115.691494,31.6428534 124.247338,56.9436299 L123.42526,56.9436299 C114.908377,31.7543192 107.762922,10.6207985 107.620714,10.1964463 C107.256429,9.1365436 107.256429,8.3543276 107.340195,8.1587736 C107.52526,8.26437276 107.99474,8.88623448 108.353182,9.94613716 Z M99.9901948,13.3702877 C100.186948,13.7672623 109.829805,33.3969728 121.39539,56.9436299 L120.530455,56.9436299 C109.036948,33.5475494 99.4856494,14.1075263 99.2947403,13.7125072 C98.8018831,12.7132263 98.6966883,11.9368769 98.7492857,11.7295896 C98.9499351,11.8097668 99.4953896,12.3651401 99.9901948,13.3702877 Z M160.389351,138.08094 C160.389351,138.08094 150.668571,118.292831 138.984156,94.5056421 L139.847143,94.5056421 C151.457532,118.136387 161.080909,137.732854 161.080909,137.732854 C161.571818,138.732135 161.677013,139.508484 161.620519,139.71186 C161.423766,139.633639 160.878312,139.080221 160.389351,138.08094 Z M92.1428571,17.8590342 C92.3824675,18.2188536 104.018182,35.6994256 118.157143,56.9424566 L117.22013,56.9424566 C103.211688,35.8969351 91.7298701,18.6490724 91.4922078,18.289253 C90.8766234,17.3603715 90.6662338,16.6113997 90.7012987,16.4002014 C90.9,16.4510454 91.5194805,16.9281972 92.1428571,17.8590342 Z M168.23474,133.584567 C168.23474,133.584567 156.505519,115.967107 142.220455,94.507011 L143.157468,94.507011 C157.312013,115.773508 168.881494,133.156304 168.881494,133.156304 C169.493182,134.083229 169.705519,134.838068 169.674351,135.049266 C169.471753,134.994511 168.850325,134.515404 168.23474,133.584567 Z M84.9403247,23.3400217 C85.2208442,23.6568192 98.2104545,38.5287009 114.299416,56.944021 L113.268896,56.944021 C97.3883766,38.7672767 84.6325325,24.1672151 84.3598052,23.8523732 C83.6214935,23.011491 83.3175974,22.2918523 83.3271112,22.0786984 C83.5377273,22.1021649 84.203961,22.497184 84.9403247,23.3400217 Z M175.437273,128.104557 C175.437273,128.104557 162.340519,113.113387 146.084026,94.5064244 L147.114545,94.5064244 C163.160649,112.876767 176.017792,127.592206 176.017792,127.592206 C176.75026,128.433088 177.056104,129.152726 177.048457,129.367836 C176.83987,129.340458 176.163896,128.945439 175.437273,128.104557 Z M181.859805,121.728128 C181.859805,121.728128 168.274091,109.770001 150.936429,94.507011 L152.111104,94.507011 C169.133182,109.492314 182.370195,121.145377 182.370195,121.145377 C183.202013,121.878704 183.599416,122.55141 183.630584,122.766529 C183.410455,122.768475 182.691623,122.467322 181.859805,121.728128 Z M78.5177922,29.7154732 C78.8177922,29.9794711 92.2944156,41.8437323 109.445065,56.9424566 L108.266494,56.9424566 C91.4372727,42.12533 78.3015584,30.5641776 78.0035065,30.3021352 C77.1716883,29.5648966 76.7742857,28.8902353 76.7528571,28.6789994 C76.9632468,28.6751259 77.6781818,28.9762791 78.5177922,29.7154732 Z M187.397532,114.563811 C187.397532,114.563811 174.567662,105.959435 157.492987,94.5058377 L158.88974,94.5058377 C175.481299,105.636771 187.826104,113.914572 187.826104,113.914572 C188.753377,114.540345 189.232597,115.154385 189.291039,115.359716 C189.076753,115.391005 188.322857,115.189584 187.397532,114.563811 Z M72.9761688,36.8807673 C73.283961,37.0841435 86.0125325,45.6239866 102.888506,56.9426521 L101.491753,56.9426521 C85.0988961,45.9466507 72.8495455,37.7314272 72.5475974,37.5300066 C71.6203247,36.9081449 71.1411039,36.2901942 71.0865584,36.0789959 C71.2969481,36.0516183 72.0508442,36.25695 72.9761688,36.8807673 Z M191.957727,106.73598 C191.957727,106.73598 181.771364,101.692643 167.254481,94.5060333 L169.007727,94.5060333 C182.772662,101.32109 192.304481,106.039808 192.304481,106.039808 C193.299935,106.530649 193.85513,107.080155 193.933052,107.281576 C193.726558,107.334376 192.960974,107.230732 191.957727,106.73598 Z M68.4161688,44.7085984 C68.6986364,44.8493972 78.8031818,49.8516685 93.1291558,56.9424566 L91.372013,56.9424566 C77.8038312,50.2251767 68.3440909,45.5436139 68.0713636,45.4067261 C67.073961,44.9119745 66.5187662,44.3644233 66.4408442,44.1649582 C66.6473377,44.106292 67.4148701,44.2158023 68.4161688,44.7085984 Z M195.463831,98.3762425 C195.463831,98.3762425 191.148896,96.9056764 184.108636,94.5062288 L186.506688,94.5062288 C192.261234,96.4676354 195.711234,97.642915 195.711234,97.642915 C196.769026,97.9968677 197.390455,98.4701084 197.493701,98.6558847 C197.295,98.7419284 196.515779,98.7399729 195.463831,98.3762425 Z M64.912013,53.0663807 C65.099026,53.1309136 69.3886364,54.5917019 76.2866883,56.942261 L73.875,56.942261 C68.2529221,55.0258318 64.8301948,53.86033 64.6626623,53.8016638 C63.6048701,53.4418444 62.9834416,52.9744704 62.8821429,52.784783 C63.0769481,52.7026503 63.8600649,52.7046058 64.912013,53.0663807 Z M64.658961,97.6399817 C64.8264935,97.583271 68.2433766,96.4177692 73.8557143,94.505251 L76.2615584,94.505251 C69.3790909,96.851899 65.0992208,98.3107319 64.9122078,98.3752647 C63.8563636,98.7370396 63.0771429,98.7429062 62.8784416,98.6549069 C62.9836364,98.4691306 63.5992208,97.9958899 64.658961,97.6399817 Z M195.711039,53.8026416 C195.711039,53.8026416 192.259091,54.9798766 186.496753,56.9432388 L184.092857,56.9432388 C191.142857,54.5398801 195.461688,53.0693141 195.461688,53.0693141 C196.513636,52.7055836 197.292857,52.7036281 197.491558,52.7838052 C197.386364,52.9754481 196.768831,53.4486888 195.711039,53.8026416 Z M68.0717532,106.036093 C68.3444805,105.90116 77.8003247,101.221553 91.3646104,94.5062288 L93.113961,94.5062288 C78.7957792,101.593106 68.6951299,106.595377 68.4126623,106.736176 C67.4152597,107.228972 66.6477273,107.336527 66.4373377,107.277861 C66.5191558,107.080351 67.0724026,106.530844 68.0717532,106.036093 Z M192.303896,45.4065306 C192.303896,45.4065306 182.77013,50.1252486 168.999351,56.942261 L167.248052,56.942261 C181.770779,49.753696 191.957143,44.7103583 191.957143,44.7103583 C192.956494,44.2136512 193.725974,44.1041409 193.928571,44.1667182 C193.854545,44.3642278 193.303247,44.9137345 192.303896,45.4065306 Z M187.829416,37.528051 C187.829416,37.528051 175.480714,45.8117185 158.883312,56.9426521 L157.48461,56.9426521 C174.559286,45.4890544 187.391104,36.8827228 187.391104,36.8827228 C188.322273,36.2589056 189.078117,36.0496628 189.280714,36.082907 C189.230065,36.2862831 188.75474,36.9101004 187.829416,37.528051 Z M72.5462338,113.914572 C72.8442857,113.713152 85.0916883,105.497928 101.480649,94.5058377 L102.875455,94.5058377 C86.0033766,105.822548 73.2767532,114.356524 72.9709091,114.563811 C72.0514286,115.181762 71.2955844,115.394916 71.0871429,115.357761 C71.1377922,115.154385 71.6150649,114.536434 72.5462338,113.914572 Z M182.36961,30.2999841 C182.36961,30.2999841 169.130649,41.9550025 152.104675,56.9442166 L150.924156,56.9442166 C168.263766,41.6773158 181.849481,29.7172332 181.849481,29.7172332 C182.691039,28.974128 183.405974,28.6710193 183.62026,28.6786941 C183.594935,28.8880842 183.203377,29.5666566 182.36961,30.2999841 Z M78.0023377,121.141857 C78.2984416,120.879815 91.4283117,109.320618 108.253636,94.5054466 L109.438052,94.5054466 C92.2893506,109.602215 78.8146753,121.462565 78.5146753,121.726563 C77.6809091,122.461846 76.964026,122.770822 76.7458442,122.765037 C76.7750649,122.555712 77.1588312,121.87714 78.0023377,121.141857 Z M84.3524026,127.590837 C84.629026,127.275995 97.379026,112.679844 113.257597,94.507011 L114.292013,94.507011 C98.205,112.91842 85.2173377,127.786391 84.9407143,128.103188 C84.2082468,128.94407 83.5381169,129.343001 83.3218457,129.364511 C83.317987,129.151358 83.617987,128.429763 84.3524026,127.590837 Z M176.017403,23.8527643 C176.017403,23.8527643 163.158312,38.5701583 147.106364,56.9424566 L146.075844,56.9424566 C162.336234,38.3315824 175.434935,23.3384573 175.434935,23.3384573 C176.163506,22.5014862 176.839481,22.1006005 177.048006,22.0790895 C177.053766,22.2902878 176.755714,23.0118821 176.017403,23.8527643 Z M91.4883117,133.14809 C91.7279221,132.790226 103.207792,115.54823 117.214286,94.5066199 L118.149351,94.5066199 C104.01039,115.74574 92.3785714,133.222401 92.1428571,133.58222 C91.5194805,134.513057 90.9077922,134.99412 90.6954545,135.043009 C90.6662338,134.835721 90.8727273,134.080883 91.4883117,133.14809 Z M168.881688,18.2888619 C168.881688,18.2888619 157.308312,35.6736125 143.14987,56.944021 L142.216753,56.944021 C156.501818,35.4819695 168.231039,17.8625542 168.231039,17.8625542 C168.850519,16.9317171 169.468052,16.4486988 169.670649,16.3998103 C169.705714,16.6110086 169.493377,17.3599804 168.881688,18.2888619 Z M99.2863636,137.728552 C99.4831169,137.335488 109.032468,117.89742 120.525974,94.505251 L121.390909,94.505251 C109.825325,118.051908 100.182468,137.679663 99.9876623,138.076638 C99.4948052,139.075919 98.9493506,139.637159 98.7448052,139.711469 C98.6883117,139.508093 98.7935065,138.731744 99.2863636,137.728552 Z M161.081688,13.7121161 C161.081688,13.7121161 151.456364,33.3085824 139.844026,56.9432388 L138.979091,56.9432388 C150.663506,33.1560503 160.388182,13.367941 160.388182,13.367941 C160.875195,12.3667046 161.424545,11.8093757 161.617403,11.7331096 C161.673896,11.9384413 161.576494,12.7128351 161.081688,13.7121161 Z M107.609221,141.248132 C107.755325,140.82378 114.902727,119.694171 123.421558,94.5068155 L124.23974,94.5068155 C115.685844,119.801725 108.493636,141.072134 108.353377,141.496486 C107.994935,142.558344 107.525455,143.182162 107.336494,143.285805 C107.252727,143.084385 107.254675,142.308035 107.609221,141.248132 Z M152.753182,10.1944907 C152.753182,10.1944907 145.547338,31.4981435 136.94474,56.9436299 L136.126558,56.9436299 C144.768117,31.3886332 152.020714,9.9480927 152.020714,9.9480927 C152.379156,8.88819002 152.84474,8.26241722 153.029805,8.16268468 C153.117468,8.3543276 153.117468,9.1365436 152.753182,10.1944907 Z M144.04013,7.80071423 C144.04013,7.80071423 139.586883,30.2698688 134.301818,56.9434343 L133.512857,56.9434343 C138.80961,30.205336 143.278442,7.65013765 143.278442,7.65013765 C143.492727,6.55307971 143.88039,5.87059625 144.045974,5.74348615 C144.160909,5.93121799 144.254416,6.70365629 144.04013,7.80071423 Z M116.324221,143.643865 C116.413831,143.201912 120.832013,120.912668 126.068377,94.507011 L126.857338,94.507011 C121.613182,120.979156 117.177468,143.352489 117.091753,143.794441 C116.877468,144.893455 116.491753,145.575938 116.318377,145.701093 C116.209286,145.517272 116.109935,144.742878 116.324221,143.643865 Z M135.087468,6.56422629 C135.087468,6.56422629 133.581623,29.6395982 131.799156,56.9428477 L131.025779,56.9428477 C132.810195,29.6200428 134.317987,6.51533779 134.317987,6.51533779 C134.390065,5.39872445 134.678377,4.67517465 134.830325,4.52850915 C134.966688,4.69473005 135.159545,5.44761295 135.087468,6.56422629 Z M125.280584,144.880352 C125.311753,144.428623 126.805909,121.539027 128.570844,94.5056421 L129.346169,94.5056421 C127.579286,121.560538 126.083182,144.475556 126.052013,144.927285 C125.977987,146.045854 125.685779,146.77136 125.533831,146.918025 C125.403312,146.751804 125.20461,145.996966 125.280584,144.880352 Z M126.051039,6.51357781 C126.051039,6.51357781 127.560779,29.6182829 129.345195,56.9430432 L128.56987,56.9430432 C126.787403,29.6417493 125.27961,6.56637738 125.27961,6.56637738 C125.201688,5.45171959 125.404286,4.69492561 125.532857,4.52870471 C125.684805,4.67537021 125.978961,5.39892001 126.051039,6.51357781 Z M134.307468,144.931979 C134.280195,144.478293 132.786039,121.56132 131.021104,94.5064244 L131.798377,94.5064244 C133.563312,121.539809 135.059416,144.427449 135.086688,144.879179 C135.158766,145.995792 134.965909,146.752586 134.83539,146.920763 C134.677597,146.772142 134.383442,146.048592 134.307468,144.931979 Z" id="Yellow" fill="#FFCF42"></path>
                    <path d="M49.5005844,78.2345716 L51.7311039,73.6918522 L53.9869481,78.2345716 L49.5005844,78.2345716 Z M58.2668182,82.3157836 L58.2668182,82.3157836 L51.7252597,69.0591779 L45.2012338,82.433116 C45.022013,82.7792466 44.8194156,83.0393334 44.4356494,83.2603094 L47.7044805,83.2603094 C47.2895455,82.9884893 47.3791558,82.7284025 47.5778571,82.3157836 L48.5811039,80.260511 L54.8772078,80.260511 L55.9135714,82.3157836 C56.1083766,82.7284025 56.2057792,82.9884893 55.8005844,83.2603094 L59.0908442,83.2603094 C58.6642208,83.0139114 58.4674675,82.7225359 58.2668182,82.3157836 L58.2668182,82.3157836 Z" id="Fill-318" fill="#414731"></path>
                    <path d="M29.4531818,69.5128632 L29.4531818,71.5094696 L29.4531818,72.0628874 C29.7278571,71.6502684 30.1330519,71.5094696 30.5401948,71.5094696 L34.3895455,71.5094696 L34.3895455,82.1788958 C34.3895455,82.5915147 34.2882468,82.849646 33.8791558,83.1214661 L34.3895455,83.1214661 L36.8655195,83.1214661 L37.3778571,83.1214661 C36.9687662,82.849646 36.8655195,82.5915147 36.8655195,82.1788958 L36.8655195,71.5094696 L40.7168182,71.5094696 C41.1356494,71.5094696 41.5388961,71.6502684 41.8116234,72.0628874 L41.8116234,71.5094696 L41.8116234,69.5128632 L29.4531818,69.5128632 Z" id="Fill-320" fill="#414731"></path>
                    <path d="M66.3730519,72.4414799 L66.3730519,82.0646922 C66.3944805,82.4284227 66.4061688,82.7354425 66.9321429,83.0659287 L63.7003247,83.0659287 C64.2107143,82.7100204 64.2282468,82.4734001 64.2574675,82.0646922 L64.2185065,70.9239809 C64.1698052,70.3705631 63.9574675,69.9618552 63.4081169,69.7936788 L67.4055195,69.7936788 C67.6314935,70.0791876 72.0301948,77.7233935 72.0301948,77.7233935 C72.0301948,77.7233935 76.0996753,70.1104762 76.1892857,69.7839011 L80.3951299,69.7839011 C79.8438312,69.9266555 79.6840909,70.3705631 79.6373377,70.9239809 L79.6373377,81.9610486 C79.6840909,82.5125109 79.8282468,82.8918857 80.3775974,83.0600621 L76.650974,83.0600621 C77.2022727,82.8918857 77.3464286,82.5125109 77.3931818,81.9610486 L77.3931818,72.4414799 L71.9113636,82.1957134 L66.3730519,72.4414799 Z" id="Fill-322" fill="#414731"></path>
                    <path d="M90.1948052,78.2345716 L92.3844156,73.7700738 L94.6032468,78.2345716 L90.1948052,78.2345716 Z M98.9201299,82.3157836 L98.9201299,82.3157836 L92.3785714,69.0591779 L85.8545455,82.433116 C85.6772727,82.7792466 85.4727273,83.0393334 85.0928571,83.2603094 L88.3616883,83.2603094 C87.9448052,82.9884893 88.0344156,82.7284025 88.2311688,82.3157836 L89.2363636,80.260511 L95.5305195,80.260511 L96.5668831,82.3157836 C96.7616883,82.7284025 96.861039,82.9884893 96.4558442,83.2603094 L99.7461039,83.2603094 C99.3194805,83.0139114 99.1207792,82.7225359 98.9201299,82.3157836 L98.9201299,82.3157836 Z" id="Fill-324" fill="#414731"></path>
                    <path d="M111.351234,75.7203338 C112.549286,75.7203338 112.866818,75.6245124 113.340195,75.3409591 C113.784351,75.0769612 114.078506,74.3358115 114.078506,73.6943944 C114.078506,73.0744882 113.784351,72.454582 113.340195,72.1690732 C112.866818,71.9070308 112.597987,71.8112094 111.351234,71.8112094 L107.051883,71.8112094 L107.051883,75.7203338 L111.351234,75.7203338 Z M106.977857,82.1481938 C107.02461,82.695745 107.044091,82.7485446 107.529156,83.0633865 L104.268117,83.0633865 C104.784351,82.7485446 104.786299,82.695745 104.831104,82.1481938 L104.831104,70.89015 C104.786299,70.3895318 104.646039,69.9143356 104.102532,69.7715812 L110.661623,69.7715812 C113.176558,69.7715812 113.821364,69.8908691 114.688247,70.3425988 C115.699286,70.8686391 116.369416,72.3392052 116.334351,73.7647938 C116.291494,75.4993578 115.346688,77.0813897 113.326558,77.46272 L116.07526,81.7844634 C116.54474,82.4982355 116.829156,82.9753872 117.320065,83.0712087 L113.466818,83.0712087 C113.797987,82.9401875 113.835,82.7329003 113.821364,82.5451684 C113.809675,82.427836 113.749286,82.2596596 113.536948,81.9272178 L110.788247,77.7012959 L106.977857,77.7012959 L106.977857,82.1481938 Z" id="Fill-326" fill="#414731"></path>
                    <path d="M153.106948,81.3788844 C152.847857,81.2048413 152.553701,81.2830629 152.417338,81.3143515 C152.247857,81.3534623 152.086169,81.4903501 151.474481,81.8892803 C149.997857,82.8553171 147.958247,83.4732677 146.226429,83.4732677 C144.352403,83.4732677 142.499805,82.9042056 141.303701,81.9147023 C139.829026,80.7276896 138.866688,78.549218 138.866688,76.3961685 C138.866688,72.2621569 141.91539,69.3405802 146.226429,69.3405802 C147.819935,69.3405802 149.36474,69.7610212 151.380974,70.701636 C151.756948,70.9011011 151.943961,70.9499896 152.084221,70.9499896 C152.224481,70.9499896 152.409545,70.9812782 152.619935,70.8072351 L151.273831,73.1558387 C150.593961,72.6904202 150.607597,72.6767314 149.738766,72.2562903 C148.593312,71.6852726 147.609545,71.4642966 146.390065,71.4642966 C143.273182,71.4642966 141.282273,73.3748592 141.282273,76.4685234 C141.282273,79.5132992 143.273182,81.3065294 146.483571,81.3065294 C147.866688,81.3065294 149.086169,80.9349768 150.161494,80.1664496 C150.773182,79.722542 151.139416,79.2512569 151.100455,78.6528616 L153.106948,81.3788844 Z" id="Fill-328" fill="#414731"></path>
                    <path d="M161.542208,78.0120312 L161.542208,82.0795543 C161.542208,82.5234619 161.625974,82.7855043 162.196753,83.1277238 L158.553896,83.1277238 C159.099351,82.8246151 159.206494,82.5234619 159.206494,82.0795543 L159.206494,70.7276447 C159.157792,70.1624936 159.105195,69.8730737 158.553896,69.7009862 L162.196753,69.7009862 C161.643506,69.8496072 161.588961,70.1624936 161.542208,70.7276447 L161.542208,75.5402286 C161.542208,75.5402286 168.617532,69.7459636 168.307792,69.6990306 L171.685714,69.6990306 C171.278571,69.7968076 170.220779,70.5868458 170.220779,70.5868458 L165.835714,74.6093916 L170.715584,81.1780504 C171.734416,82.4902177 172.324675,83.0436356 172.875974,83.1414126 L168.44026,83.1414126 C169.030519,82.8656814 168.905844,82.2457752 168.434416,81.6845353 L164.113636,76.023247 L161.542208,78.0120312 Z" id="Fill-330" fill="#414731"></path>
                    <path d="M125.967468,78.2345716 L128.235,73.6116751 L130.531753,78.2345716 L125.967468,78.2345716 Z M134.772662,82.3157836 L134.772662,82.3157836 L128.229156,69.0591779 L121.70513,82.433116 C121.527857,82.7792466 121.323312,83.0393334 120.941494,83.2603094 L124.210325,83.2603094 C123.79539,82.9884893 123.885,82.7284025 124.081753,82.3157836 L125.086948,80.260511 L131.381104,80.260511 L132.419416,82.3157836 C132.612273,82.7284025 132.711623,82.9884893 132.306429,83.2603094 L135.59474,83.2603094 C135.170065,83.0139114 134.971364,82.7225359 134.772662,82.3157836 L134.772662,82.3157836 Z" id="Fill-332" fill="#414731"></path>
                </g>
            </g>
        </g>
    </g>
</svg>