<?xml version="1.0" encoding="UTF-8"?>
<svg width="200px" height="151px" viewBox="0 0 200 151" version="1.1" xmlns="http://www.w3.org/2000/svg" xmlns:xlink="http://www.w3.org/1999/xlink">
    <!-- Generator: Sketch 55.2 (78181) - https://sketchapp.com -->
    <title>tamarack-logo</title>
    <desc>Created with Sketch.</desc>
    <g id="Round-2" stroke="none" stroke-width="1" fill="none" fill-rule="evenodd">
        <g id="Home-alternate-state" transform="translate(-100.000000, -59.000000)">
            <g id="Top-Nav">
                <g id="tamarack-logo" transform="translate(100.000000, 59.000000)">
                    <g id="Green" transform="translate(0.000000, 0.218303)" fill="#A5CD38">
                        <path d="M69.2968831,140.949652 C69.2968831,142.066265 69.5442857,142.807415 69.6864935,142.967769 C69.8228571,142.807415 70.0722078,142.066265 70.0722078,140.949652 L70.0722078,94.288512 L69.2968831,94.288512 L69.2968831,140.949652 Z" id="Fill-1"></path>
                        <path d="M70.0731818,10.0612533 C70.0731818,8.94463994 69.8218831,8.19957921 69.6874675,8.04509155 C69.5452597,8.19957921 69.2978571,8.94463994 69.2978571,10.0612533 L69.2978571,56.7243487 L70.0731818,56.7243487 L70.0731818,10.0612533 Z" id="Fill-3"></path>
                        <path d="M86.1806494,138.820264 C86.4709091,139.899722 86.9014286,140.552873 87.0806494,140.672161 C87.18,140.476607 87.218961,139.696346 86.9325974,138.618844 C86.9325974,138.618844 81.5579221,118.484604 75.1001299,94.2887076 L74.2936364,94.2887076 C80.7767532,118.572603 86.1806494,138.820264 86.1806494,138.820264" id="Fill-5"></path>
                        <path d="M53.1874675,12.1894675 C52.9030519,11.1119649 52.4725325,10.456859 52.2874675,10.3434377 C52.193961,10.5350806 52.1491558,11.31143 52.4355195,12.3928436 C52.5524026,12.8191513 57.8803247,32.7852147 64.2699351,56.7249353 L65.0744805,56.7249353 C58.6614935,32.6952599 53.3024026,12.6177307 53.1874675,12.1894675" id="Fill-7"></path>
                        <path d="M101.941948,132.375 C102.502987,133.344948 103.081558,133.863166 103.284156,133.929654 C103.330909,133.718456 103.177013,132.949929 102.621818,131.987803 C102.621818,131.987803 92.8835065,115.060649 80.9361039,94.2869476 L80.0380519,94.2869476 C92.0848052,115.236648 101.941948,132.375 101.941948,132.375" id="Fill-9"></path>
                        <path d="M37.4242208,18.6357095 C36.869026,17.6677172 36.2846104,17.1494991 36.083961,17.0810552 C36.0411039,17.290298 36.1969481,18.0568697 36.7501948,19.024862 C36.9664286,19.394459 46.620974,36.1827699 58.4359091,56.7257176 L59.332013,56.7257176 C47.4138312,36.0048158 37.6385065,19.0092176 37.4242208,18.6357095" id="Fill-11"></path>
                        <path d="M23.8601299,28.9548985 C23.0731169,28.1648604 22.3718182,27.8148187 22.1633766,27.8030855 C22.1750649,28.0162393 22.5218182,28.7182782 23.3127273,29.5063608 C23.5912987,29.7879586 35.3750649,41.61702 50.4276623,56.725522 L51.5224675,56.725522 C36.2088312,41.3530221 24.1445455,29.2404074 23.8601299,28.9548985" id="Fill-13"></path>
                        <path d="M115.507987,122.056007 C116.293052,122.849956 116.990455,123.198042 117.202792,123.20782 C117.193052,122.996621 116.846299,122.296538 116.057338,121.502589 C116.057338,121.502589 104.178117,109.577706 88.9443506,94.2873387 L87.8456494,94.2873387 C103.340455,109.839748 115.507987,122.056007 115.507987,122.056007" id="Fill-15"></path>
                        <path d="M125.954026,108.565714 C126.912468,109.123043 127.676104,109.279486 127.884545,109.23842 C127.82026,109.035044 127.296234,108.446426 126.335844,107.889097 C126.335844,107.889097 116.611169,102.251275 102.86961,94.2883165 L101.318961,94.2883165 C115.67026,102.607184 125.954026,108.565714 125.954026,108.565714" id="Fill-17"></path>
                        <path d="M13.4236364,42.4469512 C12.4593506,41.8876667 11.6918182,41.7273124 11.4872727,41.7762009 C11.5496104,41.9776216 12.0716883,42.5642836 13.034026,43.1216125 C13.3125974,43.2839223 22.9612987,48.8767667 36.5061039,56.7243487 L38.0587013,56.7243487 C23.9061039,48.5208584 13.71,42.6131721 13.4236364,42.4469512" id="Fill-19"></path>
                        <path d="M13.0336364,107.888706 C12.0712987,108.446035 11.5492208,109.034652 11.4868831,109.236073 C11.6933766,109.279095 12.458961,109.122652 13.4232468,108.567278 C13.7115584,108.399102 23.9037662,102.491416 38.0563636,94.2879254 L36.5018182,94.2879254 C22.9628571,102.135507 13.3141558,107.726396 13.0336364,107.888706" id="Fill-21"></path>
                        <path d="M126.336429,43.1210258 C127.296818,42.5636969 127.820844,41.9789904 127.88513,41.7775698 C127.67474,41.7325924 126.913052,41.8890356 125.95461,42.44832 C125.95461,42.44832 115.668896,48.4068504 101.317597,56.7257176 L102.866299,56.7257176 C116.607857,48.7588476 126.336429,43.1210258 126.336429,43.1210258" id="Fill-23"></path>
                        <path d="M23.3123377,121.503175 C22.5233766,122.295169 22.1746753,122.997208 22.162987,123.208406 C22.3733766,123.198629 23.0727273,122.846631 23.8597403,122.056593 C24.1441558,121.77304 36.2084416,109.660425 51.5220779,94.2879254 L50.4253247,94.2879254 C35.3746753,109.396427 23.5928571,121.221578 23.3123377,121.503175" id="Fill-25"></path>
                        <path d="M116.057727,29.5067519 C116.84474,28.7186693 117.193442,28.0146749 117.207078,27.8034766 C116.99474,27.8152098 116.293442,28.1652515 115.508377,28.9552896 C115.508377,28.9552896 103.338896,41.171548 87.8440909,56.7239576 L88.9447403,56.7239576 C104.176558,41.4355459 116.057727,29.5067519 116.057727,29.5067519" id="Fill-27"></path>
                        <path d="M102.621234,19.0244709 C103.176429,18.0584341 103.330325,17.2899069 103.289416,17.0826196 C103.080974,17.1510635 102.502403,17.6673261 101.941364,18.6353184 C101.941364,18.6353184 92.0842208,35.7736709 80.0374675,56.7253264 L80.9355195,56.7253264 C92.8829221,35.9535806 102.621234,19.0244709 102.621234,19.0244709" id="Fill-29"></path>
                        <path d="M36.7507792,131.98839 C36.1975325,132.952471 36.0416883,133.722954 36.0825974,133.930241 C36.2851948,133.861797 36.8696104,133.343579 37.4248052,132.377542 C37.6390909,132.002079 47.4144156,115.006481 59.3325974,94.2875343 L58.4345455,94.2875343 C46.6196104,114.830482 36.9650649,131.616837 36.7507792,131.98839" id="Fill-31"></path>
                        <path d="M52.4361039,138.619822 C52.1497403,139.697324 52.1945455,140.475629 52.2880519,140.671183 C52.4731169,140.551895 52.9016883,139.9007 53.1880519,138.823198 C53.301039,138.392979 58.6601299,118.31545 65.0731169,94.2877298 L64.2705195,94.2877298 C57.8809091,118.225495 52.552987,138.191558 52.4361039,138.619822" id="Fill-33"></path>
                        <path d="M86.9322078,12.3957769 C87.2185714,11.3163189 87.1796104,10.5360584 87.0802597,10.3424599 C86.901039,10.4617479 86.4724675,11.1148982 86.1802597,12.1943563 C86.1802597,12.1943563 80.7763636,32.4400619 74.2951948,56.7239576 L75.1016883,56.7239576 C81.5575325,32.5280612 86.9322078,12.3957769 86.9322078,12.3957769" id="Fill-35"></path>
                        <path d="M41.9462338,7.26541775 C41.5215584,6.23289263 41.0111688,5.64231955 40.8202597,5.55236471 C40.7501299,5.75182979 40.8066234,6.53209025 41.2274026,7.56461537 C41.4027273,7.98310093 50.6053247,30.2860346 61.5144156,56.7249353 L62.3579221,56.7249353 C51.3923377,30.1569689 42.1196104,7.68390331 41.9462338,7.26541775" id="Fill-37"></path>
                        <path d="M97.4181818,143.74451 C97.8506494,144.775079 98.3571429,145.369563 98.5480519,145.457563 C98.624026,145.260053 98.5675325,144.477837 98.138961,143.447268 C98.138961,143.447268 88.8662338,120.974202 77.8558442,94.2869476 L77.0123377,94.2869476 C88.0772727,121.103268 97.4181818,143.74451 97.4181818,143.74451" id="Fill-39"></path>
                        <path d="M25.3003247,16.7967197 C24.6204545,15.9108601 23.9737013,15.4728191 23.7711039,15.4337083 C23.7574675,15.6488177 24.0048701,16.3841008 24.6808442,17.2738715 C24.9438312,17.616091 38.4243506,35.2531062 54.8386364,56.7249353 L55.8224026,56.7249353 C39.2425325,35.0360412 25.5652597,17.1448058 25.3003247,16.7967197" id="Fill-41"></path>
                        <path d="M114.06974,134.211252 C114.74961,135.099067 115.394416,135.535153 115.602857,135.576219 C115.62039,135.363065 115.361299,134.625827 114.687273,133.7341 C114.687273,133.7341 101.109351,115.969975 84.5333766,94.2869476 L83.5535065,94.2869476 C100.289221,116.183129 114.06974,134.211252 114.06974,134.211252" id="Fill-43"></path>
                        <path d="M127.694805,120.680089 C128.579221,121.358661 129.315584,121.616792 129.524026,121.597237 C129.487013,121.38995 129.046753,120.74071 128.17013,120.060183 C128.17013,120.060183 113.569481,108.815828 94.7084416,94.2881209 L93.4305195,94.2881209 C112.681169,109.115025 127.694805,120.680089 127.694805,120.680089" id="Fill-45"></path>
                        <path d="M11.6735065,30.3278831 C10.792987,29.6493108 10.0566234,29.393135 9.84623377,29.4107349 C9.88324675,29.6180221 10.3196104,30.2672614 11.204026,30.9477893 C11.5137662,31.1883207 26.0053247,42.3524986 44.6657143,56.7257176 L45.9416883,56.7257176 C26.8916883,42.053301 11.9890909,30.5723256 11.6735065,30.3278831" id="Fill-47"></path>
                        <path d="M137.368442,104.070319 C138.393117,104.496626 139.174286,104.551381 139.371039,104.480982 C139.275584,104.289339 138.691169,103.775032 137.658701,103.344813 C137.658701,103.344813 128.913896,99.7094644 115.873636,94.2887076 L113.843766,94.2887076 C127.844416,100.11035 137.368442,104.070319 137.368442,104.070319" id="Fill-49"></path>
                        <path d="M2.00551948,46.9413687 C0.980844156,46.5131055 0.197727273,46.4583504 0.000974025974,46.5307053 C0.0944805195,46.7203927 0.676948052,47.2327442 1.70941558,47.6610075 C1.96461039,47.7685622 10.649026,51.378489 23.5061688,56.7249353 L25.5321429,56.7249353 C11.7321429,50.9854255 2.27435065,47.0528345 2.00551948,46.9413687" id="Fill-51"></path>
                        <path d="M137.659481,47.6613986 C138.69,47.2331353 139.274416,46.7207838 139.371818,46.5310964 C139.173117,46.4587415 138.395844,46.5154521 137.369221,46.9417598 C137.369221,46.9417598 127.843247,50.9036839 113.838701,56.7253264 L115.864675,56.7253264 C128.906883,51.3006585 137.659481,47.6613986 137.659481,47.6613986" id="Fill-53"></path>
                        <path d="M1.70863636,103.347551 C0.683961039,103.775814 0.0898051948,104.28621 0.000194805195,104.481764 C0.198896104,104.552164 0.974220779,104.497409 2.00474026,104.071101 C2.27357143,103.95768 11.7333117,100.025089 25.5313636,94.2875343 L23.4995455,94.2875343 C10.6462987,99.6320251 1.96577922,103.239996 1.70863636,103.347551" id="Fill-55"></path>
                        <path d="M11.2034416,120.058423 C10.319026,120.740906 9.88266234,121.392101 9.84564935,121.599388 C10.056039,121.615032 10.7924026,121.360812 11.6729221,120.678329 C11.9885065,120.435842 26.8911039,108.956822 45.9372078,94.2883165 L44.6631818,94.2883165 C26.0047403,108.657624 11.5131818,119.819847 11.2034416,120.058423" id="Fill-57"></path>
                        <path d="M128.170325,30.946616 C129.046948,30.2680436 129.487208,29.6188043 129.524221,29.407606 C129.315779,29.3939172 128.579416,29.6481374 127.695,30.3306209 C127.695,30.3306209 112.679416,41.89764 93.4287662,56.7245442 L94.7027922,56.7245442 C113.567727,42.1948821 128.170325,30.946616 128.170325,30.946616" id="Fill-59"></path>
                        <path d="M24.6800649,133.733709 C24.0040909,134.62348 23.7508442,135.362674 23.7703247,135.575828 C23.9748701,135.532806 24.6216234,135.100632 25.2995455,134.210861 C25.5644805,133.866686 39.2417532,115.973495 55.8177273,94.288512 L54.833961,94.288512 C38.4235714,115.758386 24.945,133.39149 24.6800649,133.733709" id="Fill-61"></path>
                        <path d="M114.688052,17.2693737 C115.367922,16.3835141 115.617273,15.6482311 115.603636,15.4331217 C115.393247,15.4722325 114.748442,15.9102734 114.070519,16.7941775 C114.070519,16.7941775 100.286104,34.8262118 83.5503896,56.7243487 L84.5302597,56.7243487 C101.106234,35.0393657 114.688052,17.2693737 114.688052,17.2693737" id="Fill-63"></path>
                        <path d="M41.2272078,143.44277 C40.8064286,144.47725 40.7440909,145.257511 40.8200649,145.458932 C41.010974,145.368977 41.5213636,144.776448 41.946039,143.743923 C42.1194156,143.325437 51.3901948,120.856283 62.3518831,94.2883165 L61.5103247,94.2883165 C50.6012338,120.723306 41.4005844,143.02624 41.2272078,143.44277" id="Fill-65"></path>
                        <path d="M98.1372078,7.56324649 C98.5677273,6.53072137 98.6183766,5.74850537 98.5482468,5.55099583 C98.3573377,5.64290621 97.8508442,6.23347929 97.4183766,7.26600441 C97.4183766,7.26600441 88.0755195,29.9072465 77.0105844,56.725522 L77.8521429,56.725522 C88.8625325,30.0382677 98.1372078,7.56324649 98.1372078,7.56324649" id="Fill-67"></path>
                        <path d="M59.7183117,148.524436 C59.5761039,149.627361 59.7183117,150.397843 59.8390909,150.575798 C59.9968831,150.436954 60.3416883,149.73296 60.4877922,148.622213 C60.5481818,148.166572 63.8053247,123.344903 67.6157143,94.2875343 L66.8287013,94.2875343 C63.0222078,123.301881 59.7748052,148.06684 59.7183117,148.524436" id="Fill-69"></path>
                        <path d="M79.6554545,2.48431801 C79.7976623,1.37552683 79.6457143,0.612866235 79.5288312,0.434912095 C79.3690909,0.575710975 79.0301299,1.27383875 78.884026,2.38262993 C78.884026,2.38262993 75.6015584,27.395942 71.7561039,56.7251309 L72.5431169,56.7251309 C76.3807792,27.4409194 79.6554545,2.48431801 79.6554545,2.48431801" id="Fill-71"></path>
                        <path d="M60.4831169,2.38223882 C60.3467532,1.27344765 60,0.575319867 59.8402597,0.434520987 C59.7155844,0.612475127 59.5733766,1.37513573 59.7155844,2.4839269 C59.7155844,2.4839269 62.9883117,27.4405283 66.8298701,56.7247398 L67.611039,56.7247398 C63.7655844,27.3975065 60.4831169,2.38223882 60.4831169,2.38223882" id="Fill-73"></path>
                        <path d="M78.8830519,148.6228 C79.0291558,149.733546 79.3681169,150.435585 79.5317532,150.576384 C79.6466883,150.402341 79.8025325,149.629903 79.6525325,148.525023 C79.5921429,148.067426 76.3447403,123.302468 72.5382468,94.2881209 L71.7570779,94.2881209 C75.5655195,123.343534 78.8207143,148.167159 78.8830519,148.6228" id="Fill-75"></path>
                        <path d="M56.5965584,7.42968311 C56.3803247,6.33458071 55.9926623,5.65600833 55.8251299,5.52694269 C55.7140909,5.71076345 55.6186364,6.48515729 55.8348701,7.58417077 C55.9225325,8.02612281 60.3407143,30.3173232 65.5712338,56.7249353 L66.366039,56.7249353 C61.117987,30.2488793 56.6842208,7.87359069 56.5965584,7.42968311" id="Fill-77"></path>
                        <path d="M82.7811039,143.577311 C82.9973377,144.67828 83.3888961,145.354897 83.5564286,145.485918 C83.6635714,145.296231 83.760974,144.523792 83.5466883,143.426734 C83.5466883,143.426734 79.0934416,120.959535 73.8083766,94.2879254 L73.0135714,94.2879254 C78.3122727,121.024068 82.7811039,143.577311 82.7811039,143.577311" id="Fill-79"></path>
                        <path d="M91.5264935,141.281898 C91.882987,142.341801 92.3505195,142.965618 92.5394805,143.067306 C92.6212987,142.869797 92.6193506,142.087581 92.2609091,141.031589 C92.2609091,141.031589 85.057013,119.729892 76.4544156,94.2883165 L75.6342857,94.2883165 C84.2738961,119.841358 91.5264935,141.281898 91.5264935,141.281898" id="Fill-81"></path>
                        <path d="M47.8550649,9.72783371 C47.5005195,8.66793103 47.0271429,8.04606932 46.8420779,7.94047016 C46.7583117,8.13602416 46.7622078,8.91824015 47.1245455,9.97814283 C47.2667532,10.402495 54.4141558,31.5360158 62.931039,56.7253264 L63.7492208,56.7253264 C55.1933766,31.42455 47.9972727,10.1521859 47.8550649,9.72783371" id="Fill-83"></path>
                        <path d="M99.8912338,137.862636 C100.380195,138.861917 100.929545,139.415335 101.122403,139.493557 C101.18474,139.290181 101.071753,138.513831 100.58474,137.51455 C100.58474,137.51455 90.9594156,117.918084 79.350974,94.2873387 L78.486039,94.2873387 C90.1704545,118.074527 99.8912338,137.862636 99.8912338,137.862636" id="Fill-85"></path>
                        <path d="M39.4920779,13.1519842 C39.0011688,12.1468367 38.4557143,11.5914633 38.2511688,11.5112862 C38.1966234,11.7185734 38.3037662,12.4949228 38.7966234,13.4942037 C38.9914286,13.8892228 48.5407792,33.3292459 60.0342857,56.7253264 L60.8972727,56.7253264 C49.3316883,33.1786694 39.6868831,13.5489589 39.4920779,13.1519842" id="Fill-87"></path>
                        <path d="M31.6447403,17.6407308 C31.0213636,16.7098937 30.4077273,16.232742 30.2051299,16.1818979 C30.1661688,16.3930962 30.3785065,17.1420681 30.9999351,18.0709496 C31.2356494,18.4307689 42.7174675,35.6786317 56.7259091,56.7241531 L57.659026,56.7241531 C43.5200649,35.4811221 31.8843506,18.0005501 31.6447403,17.6407308" id="Fill-89"></path>
                        <path d="M107.740519,133.366263 C108.352208,134.2971 108.96974,134.776208 109.182078,134.830963 C109.207403,134.619764 109.002857,133.864926 108.381429,132.938 C108.381429,132.938 96.8138961,115.555205 82.6593506,94.2887076 L81.7262338,94.2887076 C96.0112987,115.748804 107.740519,133.366263 107.740519,133.366263" id="Fill-91"></path>
                        <path d="M114.939156,127.886254 C115.667727,128.727136 116.341753,129.122155 116.556048,129.149532 C116.557987,128.934423 116.257987,128.214784 115.517727,127.373902 C115.517727,127.373902 102.662532,112.658464 86.6144805,94.2881209 L85.5859091,94.2881209 C101.840455,112.895084 114.939156,127.886254 114.939156,127.886254" id="Fill-93"></path>
                        <path d="M24.4422078,23.1217183 C23.7116883,22.2788805 23.0337662,21.8838614 22.8291387,21.860395 C22.8233766,22.0735488 23.1292208,22.7931875 23.8655844,23.6340697 C24.1383117,23.9489117 36.8922078,38.5489733 52.7707792,56.7257176 L53.8012987,56.7257176 C37.7123377,38.3103974 24.7227273,23.4385157 24.4422078,23.1217183" id="Fill-95"></path>
                        <path d="M18.0198701,29.4971698 C17.1861039,28.7579756 16.4653247,28.4568225 16.252987,28.460696 C16.2783117,28.6719319 16.6718182,29.3465932 17.5094805,30.0838318 C17.8075325,30.3458741 30.9412987,41.9070266 47.7705195,56.7241531 L48.9471429,56.7241531 C31.7964935,41.6254288 18.3198701,29.7611677 18.0198701,29.4971698" id="Fill-97"></path>
                        <path d="M121.361688,121.509824 C122.197403,122.249018 122.918182,122.550172 123.130519,122.548226 C123.101299,122.333107 122.707792,121.660401 121.875974,120.927073 C121.875974,120.927073 108.638961,109.274011 91.612987,94.2887076 L90.4422078,94.2887076 C107.777922,109.551697 121.361688,121.509824 121.361688,121.509824" id="Fill-99"></path>
                        <path d="M12.4780519,36.6624639 C11.5585714,36.0386466 10.8027273,35.8333149 10.5884416,35.8606925 C10.642987,36.0718908 11.1222078,36.6898414 12.0494805,37.3117031 C12.3514286,37.5131238 24.6007792,45.7283473 40.9916883,56.7243487 L42.3903896,56.7243487 C25.5144156,45.4056832 12.7858442,36.86584 12.4780519,36.6624639" id="Fill-101"></path>
                        <path d="M126.89961,114.345508 C127.824935,114.971281 128.578831,115.172701 128.793117,115.141413 C128.736623,114.936081 128.259351,114.322042 127.33013,113.696269 C127.33013,113.696269 114.985325,105.418468 98.3918182,94.2875343 L96.9950649,94.2875343 C114.06974,105.741132 126.89961,114.345508 126.89961,114.345508" id="Fill-103"></path>
                        <path d="M131.45961,106.517677 C132.460909,107.012429 133.234286,107.116072 133.438831,107.063273 C133.357013,106.861852 132.79987,106.312345 131.804416,105.821505 C131.804416,105.821505 122.274545,101.102787 108.50961,94.2877298 L106.756364,94.2877298 C121.275195,101.474339 131.45961,106.517677 131.45961,106.517677" id="Fill-105"></path>
                        <path d="M7.9161039,44.4902949 C6.91675325,43.9974988 6.15116883,43.8879886 5.94272727,43.9466548 C6.0187013,44.1461199 6.57779221,44.6936711 7.57519481,45.1884227 C7.84792208,45.3253105 17.3057143,50.0068732 30.8758442,56.7241531 L32.631039,56.7241531 C18.307013,49.6333651 8.20051948,44.6310938 7.9161039,44.4902949" id="Fill-107"></path>
                        <path d="M4.4138961,52.8480773 C3.36194805,52.4863024 2.57883117,52.4843469 2.38792208,52.5664795 C2.48727273,52.7561669 3.10480519,53.223541 4.17038961,53.5833603 C4.33597403,53.6420265 7.7587013,54.8075284 13.3807792,56.7239576 L15.7905195,56.7239576 C8.89246753,54.3733985 4.60480519,52.9126101 4.4138961,52.8480773" id="Fill-109"></path>
                        <path d="M134.965714,98.157939 C136.023506,98.5216695 136.796883,98.523625 136.993636,98.4375812 C136.892338,98.2518049 136.270909,97.7785643 135.211169,97.4246115 C135.211169,97.4246115 131.761169,96.249332 126.008571,94.2879254 L123.610519,94.2879254 C130.650779,96.6873729 134.965714,98.157939 134.965714,98.157939" id="Fill-111"></path>
                        <path d="M4.16084416,97.4216782 C3.105,97.7775865 2.48551948,98.2508272 2.38616883,98.4366035 C2.58292208,98.5246028 3.36214286,98.5187361 4.41019481,98.1569612 C4.6011039,98.0924284 8.87902597,96.6335956 15.7634416,94.2869476 L13.3595455,94.2869476 C7.74331169,96.1994657 4.32837662,97.3649675 4.16084416,97.4216782" id="Fill-113"></path>
                        <path d="M135.211169,53.5843381 C136.270909,53.2303854 136.892338,52.7571447 136.991688,52.5655018 C136.798831,52.4853246 136.015714,52.4872802 134.963766,52.8510106 C134.963766,52.8510106 130.644935,54.3215767 123.594935,56.7249353 L125.998831,56.7249353 C131.759221,54.7615732 135.211169,53.5843381 135.211169,53.5843381" id="Fill-115"></path>
                        <path d="M7.57188312,105.817789 C6.57448052,106.312541 6.01928571,106.862048 5.94136364,107.059557 C6.15175325,107.118223 6.92318182,107.010669 7.91279221,106.517873 C8.19525974,106.377074 18.2978571,101.374802 32.6140909,94.2879254 L30.8666883,94.2879254 C17.3024026,101.00325 7.84655844,105.682857 7.57188312,105.817789" id="Fill-117"></path>
                        <path d="M131.807727,45.1882271 C132.801234,44.6954311 133.356429,44.1459243 133.438247,43.9484148 C133.227857,43.8858375 132.460325,43.9953477 131.459026,44.4920549 C131.459026,44.4920549 121.272662,49.5353925 106.749935,56.7239576 L108.501234,56.7239576 C122.273961,49.9069451 131.807727,45.1882271 131.807727,45.1882271" id="Fill-119"></path>
                        <path d="M12.0481169,113.696269 C11.1208442,114.31813 10.6416234,114.936081 10.589026,115.139457 C10.8013636,115.176612 11.5591558,114.963459 12.4786364,114.345508 C12.7825325,114.138221 25.5072078,105.604244 42.3792857,94.2875343 L40.9844805,94.2875343 C24.5935714,105.279625 12.3461688,113.494848 12.0481169,113.696269" id="Fill-121"></path>
                        <path d="M127.329545,37.3097476 C128.262662,36.691797 128.736039,36.0679797 128.78474,35.8646035 C128.580195,35.8313594 127.824351,36.0406021 126.899026,36.6644194 C126.899026,36.6644194 114.067208,45.2707509 96.9905844,56.7243487 L98.3834416,56.7243487 C114.978896,45.593415 127.329545,37.3097476 127.329545,37.3097476" id="Fill-123"></path>
                        <path d="M17.5061688,120.923553 C16.6646104,121.658836 16.2769481,122.337409 16.2516234,122.546734 C16.4659091,122.552518 17.1827922,122.243543 18.0165584,121.50826 C18.3165584,121.244262 31.7912338,109.383912 48.9399351,94.2871431 L47.7594156,94.2871431 C30.9321429,109.102314 17.7983766,120.661511 17.5061688,120.923553" id="Fill-125"></path>
                        <path d="M121.871494,30.0816807 C122.709156,29.3483532 123.100714,28.6697808 123.126039,28.4603907 C122.911753,28.4527158 122.196818,28.7558245 121.361104,29.4989297 C121.361104,29.4989297 107.77539,41.4590124 90.4318831,56.7259131 L91.6065584,56.7259131 C108.632532,41.736699 121.871494,30.0816807 121.871494,30.0816807" id="Fill-127"></path>
                        <path d="M115.517532,23.6344608 C116.257792,22.7935786 116.557792,22.0719844 116.550148,21.8607861 C116.335714,21.882297 115.667532,22.2831827 114.935065,23.1201538 C114.935065,23.1201538 101.836364,38.113279 85.5779221,56.7241531 L86.6084416,56.7241531 C102.66039,38.3518549 115.517532,23.6344608 115.517532,23.6344608" id="Fill-129"></path>
                        <path d="M23.8544805,127.372533 C23.1200649,128.21146 22.8200649,128.933054 22.829576,129.146208 C23.0343506,129.124697 23.7064286,128.725767 24.4427922,127.884885 C24.7194156,127.568087 37.709026,112.700117 53.7940909,94.2887076 L52.7596753,94.2887076 C36.8811039,112.461541 24.1311039,127.057691 23.8544805,127.372533" id="Fill-131"></path>
                        <path d="M108.381623,18.0705584 C108.997208,17.1416769 109.209545,16.3927051 109.176429,16.1815068 C108.967987,16.2303953 108.356299,16.7134137 107.736818,17.6442507 C107.736818,17.6442507 96.0056494,35.2636661 81.7205844,56.7257176 L82.6537013,56.7257176 C96.8101948,35.455309 108.381623,18.0705584 108.381623,18.0705584" id="Fill-133"></path>
                        <path d="M30.9940909,132.929787 C30.3765584,133.862579 30.1681169,134.617418 30.1992857,134.824705 C30.4057792,134.775817 31.0252597,134.294754 31.6447403,133.363917 C31.8824026,133.004097 43.5161688,115.527436 57.6512338,94.2883165 L56.7181169,94.2883165 C42.7096753,115.329927 31.2317532,132.571923 30.9940909,132.929787" id="Fill-135"></path>
                        <path d="M38.7938961,137.510248 C38.2990909,138.51344 38.19,139.28979 38.2503896,139.493166 C38.451039,139.418855 38.9964935,138.857615 39.4893506,137.858334 C39.6822078,137.46136 49.3231169,117.833605 60.8925974,94.2869476 L60.0257143,94.2869476 C48.5361039,117.679117 38.9887013,137.117185 38.7938961,137.510248" id="Fill-137"></path>
                        <path d="M100.581818,13.4938126 C101.078571,12.4945317 101.17987,11.7201379 101.119481,11.5148062 C100.926623,11.5910722 100.377273,12.1484011 99.8902597,13.1496376 C99.8902597,13.1496376 90.1655844,32.9377468 78.4811688,56.7249353 L79.3441558,56.7249353 C90.9545455,33.0902789 100.581818,13.4938126 100.581818,13.4938126" id="Fill-139"></path>
                        <path d="M92.2550649,9.97618729 C92.6193506,8.91824015 92.6212987,8.13602416 92.5336364,7.94438124 C92.3505195,8.04411378 91.881039,8.66988657 91.5264935,9.72978925 C91.5264935,9.72978925 84.2738961,31.1703298 75.6323377,56.7253264 L76.4466234,56.7253264 C85.0511688,31.27984 92.2550649,9.97618729 92.2550649,9.97618729" id="Fill-141"></path>
                        <path d="M47.115,141.029829 C46.7565584,142.089732 46.7565584,142.866081 46.8422727,143.067502 C47.0273377,142.963858 47.5007143,142.340041 47.8552597,141.278183 C47.9974675,140.85383 55.1896753,119.583422 63.7435714,94.288512 L62.9273377,94.288512 C54.4085065,119.475867 47.2611039,140.605477 47.115,141.029829" id="Fill-143"></path>
                        <path d="M83.5459091,7.58241078 C83.7640909,6.48535284 83.6666883,5.71291455 83.5537013,5.52518271 C83.3822727,5.65229281 82.9946104,6.33477626 82.7803247,7.4318342 C82.7803247,7.4318342 78.3114935,29.9870325 73.0147403,56.7251309 L73.8056494,56.7251309 C79.0926623,30.0515653 83.5459091,7.58241078 83.5459091,7.58241078" id="Fill-145"></path>
                        <path d="M55.8317532,143.425561 C55.6116234,144.524575 55.7129221,145.298968 55.8200649,145.482789 C55.9934416,145.357635 56.3733117,144.675151 56.5934416,143.576138 C56.6811039,143.134186 61.1148701,120.760853 66.360974,94.2887076 L65.572013,94.2887076 C60.3375974,120.694364 55.9213636,142.983609 55.8317532,143.425561" id="Fill-147"></path>
                        <path d="M64.7807143,144.662049 C64.7066883,145.778662 64.9073377,146.533501 65.0359091,146.699722 C65.1937013,146.553056 65.4898052,145.827551 65.556039,144.708982 C65.5872078,144.257252 67.0833117,121.342235 68.8521429,94.2873387 L68.0729221,94.2873387 C66.307987,121.320724 64.8118831,144.210319 64.7807143,144.662049" id="Fill-149"></path>
                        <path d="M74.5951948,6.34592284 C74.6672727,5.2293095 74.4685714,4.47642661 74.3361039,4.31020571 C74.1802597,4.45687121 73.89,5.180421 73.8218182,6.29703434 C73.8218182,6.29703434 72.3120779,29.4017394 70.5276623,56.7245442 L71.3049351,56.7245442 C73.0893506,29.4212948 74.5951948,6.34592284 74.5951948,6.34592284" id="Fill-151"></path>
                        <path d="M73.8132468,144.713675 C73.8892208,145.830289 74.1833766,146.553838 74.3372727,146.702459 C74.4716883,146.534283 74.6664935,145.777489 74.5885714,144.660876 C74.5612987,144.209146 73.0651948,121.321506 71.3002597,94.2881209 L70.5268831,94.2881209 C72.2918182,121.343017 73.785974,144.25999 73.8132468,144.713675" id="Fill-153"></path>
                        <path d="M65.5531169,6.29527436 C65.4907792,5.18061656 65.1946753,4.45706676 65.0349351,4.31040126 C64.9083117,4.47662216 64.7057143,5.23341614 64.7836364,6.34807394 C64.7836364,6.34807394 66.2933766,29.4234459 68.0738961,56.7247398 L68.8472727,56.7247398 C67.0628571,29.3999794 65.5531169,6.29527436 65.5531169,6.29527436" id="Fill-155"></path>
                    </g>
                    <g id="Yellow" transform="translate(60.389610, 0.218303)">
                        <path d="M69.4034416,140.949652 C69.4034416,142.066265 69.6547403,142.807415 69.7891558,142.967769 C69.9313636,142.807415 70.1768182,142.066265 70.1768182,140.949652 L70.1768182,94.288512 L69.4034416,94.288512 L69.4034416,140.949652 Z" id="Fill-158" fill="#FFCE2D"></path>
                        <path d="M70.1797403,10.0612533 C70.1797403,8.94463994 69.9323377,8.19957921 69.7901299,8.04509155 C69.6537662,8.19957921 69.4044156,8.94463994 69.4044156,10.0612533 L69.4044156,56.7243487 L70.1797403,56.7243487 L70.1797403,10.0612533 Z" id="Fill-160" fill="#FFCE2D"></path>
                        <path d="M86.2891558,138.820264 C86.5794156,139.899722 87.0040909,140.552873 87.1891558,140.672161 C87.2787662,140.476607 87.3274675,139.696346 87.0411039,138.618844 C87.0411039,138.618844 81.6664286,118.484604 75.2086364,94.2887076 L74.4021429,94.2887076 C80.8852597,118.572603 86.2891558,138.820264 86.2891558,138.820264" id="Fill-162" fill="#FFCE2D"></path>
                        <path d="M53.2977273,12.1894675 C53.0055195,11.1119649 52.5730519,10.456859 52.3957792,10.3434377 C52.2983766,10.5350806 52.2574675,11.31143 52.5438312,12.3928436 C52.6607143,12.8191513 57.9886364,32.7852147 64.3762987,56.7249353 L65.1827922,56.7249353 C58.7698052,32.6952599 53.4107143,12.6177307 53.2977273,12.1894675" id="Fill-164" fill="#FFCE2D"></path>
                        <path d="M102.052403,132.375 C102.607597,133.344948 103.192013,133.863166 103.392662,133.929654 C103.441364,133.718456 103.277727,132.949929 102.726429,131.987803 C102.726429,131.987803 92.9900649,115.060649 81.0426623,94.2869476 L80.1485065,94.2869476 C92.1972078,115.236648 102.052403,132.375 102.052403,132.375" id="Fill-166" fill="#FFCE2D"></path>
                        <path d="M37.5268831,18.6357095 C36.9755844,17.6677172 36.3931169,17.1494991 36.1885714,17.0810552 C36.1437662,17.290298 36.3015584,18.0568697 36.8548052,19.024862 C37.072987,19.394459 46.7294805,36.1827699 58.5444156,56.7257176 L59.4366234,56.7257176 C47.5184416,36.0048158 37.7431169,19.0092176 37.5268831,18.6357095" id="Fill-168" fill="#FFCE2D"></path>
                        <path d="M23.9647403,28.9548985 C23.1796753,28.1648604 22.4803247,27.8148187 22.2718831,27.8030855 C22.2835714,28.0162393 22.6303247,28.7182782 23.4212338,29.5063608 C23.6998052,29.7879586 35.4835714,41.61702 50.5361688,56.725522 L51.6329221,56.725522 C36.3173377,41.3530221 24.2491558,29.2404074 23.9647403,28.9548985" id="Fill-170" fill="#FFCE2D"></path>
                        <path d="M115.616494,122.056007 C116.403506,122.849956 117.104805,123.198042 117.315195,123.20782 C117.301558,122.996621 116.954805,122.296538 116.167792,121.502589 C116.167792,121.502589 104.286623,109.577706 89.0548052,94.2873387 L87.9541558,94.2873387 C103.448961,109.839748 115.616494,122.056007 115.616494,122.056007" id="Fill-172" fill="#FFCE2D"></path>
                        <path d="M126.056883,108.565714 C127.019221,109.123043 127.784805,109.279486 127.991299,109.23842 C127.923117,109.035044 127.410779,108.446426 126.446494,107.889097 C126.446494,107.889097 116.71987,102.251275 102.98026,94.2883165 L101.421818,94.2883165 C115.773117,102.607184 126.056883,108.565714 126.056883,108.565714" id="Fill-174" fill="#FFCE2D"></path>
                        <path d="M13.5301948,42.4469512 C12.563961,41.8876667 11.8003247,41.7273124 11.5938312,41.7762009 C11.6542208,41.9776216 12.1724026,42.5642836 13.1425325,43.1216125 C13.4211039,43.2839223 23.0678571,48.8767667 36.6126623,56.7243487 L38.1652597,56.7243487 C24.0126623,48.5208584 13.8165584,42.6131721 13.5301948,42.4469512" id="Fill-176" fill="#FFCE2D"></path>
                        <path d="M126.444935,43.1210258 C127.413117,42.5636969 127.921558,41.9789904 127.993636,41.7775698 C127.783247,41.7325924 127.017662,41.8890356 126.057273,42.44832 C126.057273,42.44832 115.771558,48.4068504 101.422208,56.7257176 L102.974805,56.7257176 C116.716364,48.7588476 126.444935,43.1210258 126.444935,43.1210258" id="Fill-178" fill="#FFCE2D"></path>
                        <path d="M13.1421429,107.888706 C12.1798052,108.446035 11.6538312,109.034652 11.5875974,109.236073 C11.796039,109.279095 12.5635714,109.122652 13.5317532,108.567278 C13.8200649,108.399102 24.0122727,102.491416 38.1648701,94.2879254 L36.6083766,94.2879254 C23.0674675,102.135507 13.4226623,107.726396 13.1421429,107.888706" id="Fill-180" fill="#FFCE2D"></path>
                        <path d="M23.4206494,121.503175 C22.6316883,122.295169 22.2771429,122.997208 22.2712987,123.208406 C22.4816883,123.198629 23.1790909,122.846631 23.9641558,122.056593 C24.2505195,121.77304 36.3167532,109.660425 51.6323377,94.2879254 L50.5336364,94.2879254 C35.482987,109.396427 23.7011688,121.221578 23.4206494,121.503175" id="Fill-182" fill="#FFCE2D"></path>
                        <path d="M116.168182,29.5067519 C116.953247,28.7186693 117.301948,28.0146749 117.315584,27.8034766 C117.103247,27.8152098 116.403896,28.1652515 115.616883,28.9552896 C115.616883,28.9552896 103.447403,41.171548 87.9525974,56.7239576 L89.0532468,56.7239576 C104.285065,41.4355459 116.168182,29.5067519 116.168182,29.5067519" id="Fill-184" fill="#FFCE2D"></path>
                        <path d="M102.725844,19.0244709 C103.277143,18.0584341 103.440779,17.2899069 103.394026,17.0826196 C103.191429,17.1510635 102.610909,17.6673261 102.051818,18.6353184 C102.051818,18.6353184 92.1966234,35.7736709 80.145974,56.7253264 L81.0420779,56.7253264 C92.9894805,35.9535806 102.725844,19.0244709 102.725844,19.0244709" id="Fill-186" fill="#FFCE2D"></path>
                        <path d="M36.8592857,131.98839 C36.3021429,132.952471 36.1443506,133.722954 36.1891558,133.930241 C36.3937013,133.861797 36.9761688,133.343579 37.5274675,132.377542 C37.7437013,132.002079 47.519026,115.006481 59.4372078,94.2875343 L58.545,94.2875343 C46.7281169,114.830482 37.0735714,131.616837 36.8592857,131.98839" id="Fill-188" fill="#FFCE2D"></path>
                        <path d="M52.5444156,138.619822 C52.2580519,139.697324 52.298961,140.475629 52.3963636,140.671183 C52.5736364,140.551895 53.0041558,139.9007 53.2983117,138.823198 C53.4093506,138.392979 58.7684416,118.31545 65.1814286,94.2877298 L64.3788312,94.2877298 C57.9892208,118.225495 52.6612987,138.191558 52.5444156,138.619822" id="Fill-190" fill="#FFCE2D"></path>
                        <path d="M87.0405195,12.3957769 C87.3249351,11.3163189 87.284026,10.5360584 87.1885714,10.3424599 C87.0093506,10.4617479 86.5807792,11.1148982 86.2885714,12.1943563 C86.2885714,12.1943563 80.8846753,32.4400619 74.4035065,56.7239576 L75.2080519,56.7239576 C81.6677922,32.5280612 87.0405195,12.3957769 87.0405195,12.3957769" id="Fill-192" fill="#FFCE2D"></path>
                        <path d="M42.0603896,7.26541775 C41.625974,6.23289263 41.1214286,5.64231955 40.9285714,5.55236471 C40.8584416,5.75182979 40.9071429,6.53209025 41.3357143,7.56461537 C41.5090909,7.98310093 50.7116883,30.2860346 61.6227273,56.7249353 L62.4681818,56.7249353 C51.5025974,30.1569689 42.2337662,7.68390331 42.0603896,7.26541775" id="Fill-194" fill="#FFCE2D"></path>
                        <path d="M97.5264935,143.74451 C97.9550649,144.775079 98.4693506,145.369563 98.6563636,145.457563 C98.7323377,145.260053 98.67,144.477837 98.2472727,143.447268 C98.2472727,143.447268 88.9745455,120.974202 77.9641558,94.2869476 L77.1187013,94.2869476 C88.1836364,121.103268 97.5264935,143.74451 97.5264935,143.74451" id="Fill-196" fill="#FFCE2D"></path>
                        <path d="M114.178247,134.211252 C114.856169,135.099067 115.502922,135.535153 115.711364,135.576219 C115.726948,135.363065 115.469805,134.625827 114.795779,133.7341 C114.795779,133.7341 101.215909,115.969975 84.6438312,94.2869476 L83.6600649,94.2869476 C100.397727,116.183129 114.178247,134.211252 114.178247,134.211252" id="Fill-198" fill="#FFCE2D"></path>
                        <path d="M25.4086364,16.7967197 C24.7268182,15.9108601 24.0800649,15.4728191 23.8735714,15.4337083 C23.8599351,15.6488177 24.1112338,16.3841008 24.7911039,17.2738715 C25.0540909,17.616091 38.5326623,35.2531062 54.9469481,56.7249353 L55.9287662,56.7249353 C39.3488961,35.0360412 25.6735714,17.1448058 25.4086364,16.7967197" id="Fill-200" fill="#FFCE2D"></path>
                        <path d="M127.803117,120.680089 C128.687532,121.358661 129.421948,121.616792 129.63039,121.597237 C129.595325,121.38995 129.155065,120.74071 128.278442,120.060183 C128.278442,120.060183 113.677792,108.815828 94.8187013,94.2881209 L93.5388312,94.2881209 C112.789481,109.115025 127.803117,120.680089 127.803117,120.680089" id="Fill-202" fill="#FFCE2D"></path>
                        <path d="M11.7837662,30.3278831 C10.9012987,29.6493108 10.1590909,29.393135 9.95454545,29.4107349 C9.99350649,29.6180221 10.4279221,30.2672614 11.3123377,30.9477893 C11.6220779,31.1883207 26.1155844,42.3524986 44.774026,56.7257176 L46.05,56.7257176 C27.0019481,42.053301 12.0974026,30.5723256 11.7837662,30.3278831" id="Fill-204" fill="#FFCE2D"></path>
                        <path d="M2.11383117,46.9413687 C1.08136364,46.5131055 0.306038961,46.4583504 0.109285714,46.5307053 C0.198896104,46.7203927 0.78525974,47.2327442 1.81772727,47.6610075 C2.07292208,47.7685622 10.7573377,51.378489 23.6144805,56.7249353 L25.6424026,56.7249353 C11.8424026,50.9854255 2.38461039,47.0528345 2.11383117,46.9413687" id="Fill-206" fill="#FFCE2D"></path>
                        <path d="M137.767987,47.6613986 C138.792662,47.2331353 139.382922,46.7207838 139.482273,46.5310964 C139.277727,46.4587415 138.502403,46.5154521 137.477727,46.9417598 C137.477727,46.9417598 127.949805,50.9036839 113.947208,56.7253264 L115.973182,56.7253264 C129.017338,51.3006585 137.767987,47.6613986 137.767987,47.6613986" id="Fill-211" fill="#FFCE2D"></path>
                        <path d="M1.81714286,103.347551 C0.786623377,103.775814 0.194415584,104.28621 0.108701299,104.481764 C0.307402597,104.552164 1.08077922,104.497409 2.11324675,104.071101 C2.38402597,103.95768 11.8418182,100.025089 25.6398701,94.2875343 L23.6061039,94.2875343 C10.7528571,99.6320251 2.07428571,103.239996 1.81714286,103.347551" id="Fill-214" fill="#FFCE2D"></path>
                        <path d="M137.476948,104.070319 C138.501623,104.496626 139.278896,104.551381 139.481494,104.480982 C139.384091,104.289339 138.799675,103.775032 137.767208,103.344813 C137.767208,103.344813 129.022403,99.7094644 115.982143,94.2887076 L113.950325,94.2887076 C127.950974,100.11035 137.476948,104.070319 137.476948,104.070319" id="Fill-208" fill="#FFCE2D"></path>
                        <g id="Group-210" transform="translate(113.636364, 93.865920)"></g>
                        <path d="M11.3119481,120.058423 C10.4275325,120.740906 9.98727273,121.392101 9.95415584,121.599388 C10.1587013,121.615032 10.9009091,121.360812 11.7833766,120.678329 C12.097013,120.435842 26.9996104,108.956822 46.0457143,94.2883165 L44.7716883,94.2883165 C26.1151948,108.657624 11.6216883,119.819847 11.3119481,120.058423" id="Fill-217" fill="#FFCE2D"></path>
                        <path d="M128.278831,30.946616 C129.155455,30.2680436 129.595714,29.6188043 129.632727,29.407606 C129.422338,29.3939172 128.687922,29.6481374 127.803506,30.3306209 C127.803506,30.3306209 112.787922,41.89764 93.5372727,56.7245442 L94.8132468,56.7245442 C113.676234,42.1948821 128.278831,30.946616 128.278831,30.946616" id="Fill-219" fill="#FFCE2D"></path>
                        <path d="M114.796558,17.2693737 C115.470584,16.3835141 115.729675,15.6482311 115.712143,15.4331217 C115.497857,15.4722325 114.855,15.9102734 114.179026,16.7941775 C114.179026,16.7941775 100.39461,34.8262118 83.6569481,56.7243487 L84.6368182,56.7243487 C101.212792,35.0393657 114.796558,17.2693737 114.796558,17.2693737" id="Fill-221" fill="#FFCE2D"></path>
                        <path d="M24.7905195,133.733709 C24.1106494,134.62348 23.8574026,135.362674 23.872987,135.575828 C24.0814286,135.532806 24.7281818,135.100632 25.4080519,134.210861 C25.672987,133.866686 39.3483117,115.973495 55.9242857,94.288512 L54.9444156,94.288512 C38.5320779,115.758386 25.0554545,133.39149 24.7905195,133.733709" id="Fill-223" fill="#FFCE2D"></path>
                        <path d="M41.3355195,143.44277 C40.9069481,144.47725 40.8562987,145.257511 40.9283766,145.458932 C41.1212338,145.368977 41.6257792,144.776448 42.0543506,143.743923 C42.2257792,143.325437 51.4985065,120.856283 62.4640909,94.2883165 L61.6186364,94.2883165 C50.7095455,120.723306 41.5088961,143.02624 41.3355195,143.44277" id="Fill-225" fill="#FFCE2D"></path>
                        <path d="M98.2476623,7.56324649 C98.6703896,6.53072137 98.7249351,5.74850537 98.6567532,5.55099583 C98.4638961,5.64290621 97.9554545,6.23347929 97.5268831,7.26600441 C97.5268831,7.26600441 88.184026,29.9072465 77.1190909,56.725522 L77.9625974,56.725522 C88.972987,30.0382677 98.2476623,7.56324649 98.2476623,7.56324649" id="Fill-227" fill="#FFCE2D"></path>
                        <path d="M79.7583117,2.48431801 C79.9102597,1.37552683 79.7544156,0.612866235 79.6375325,0.434912095 C79.4738961,0.575710975 79.132987,1.27383875 78.9868831,2.38262993 C78.9868831,2.38262993 75.7044156,27.395942 71.858961,56.7251309 L72.6479221,56.7251309 C76.4855844,27.4409194 79.7583117,2.48431801 79.7583117,2.48431801" id="Fill-229" fill="#FFCE2D"></path>
                        <path d="M59.8231169,148.524436 C59.6750649,149.627361 59.827013,150.397843 59.9438961,150.575798 C60.1075325,150.436954 60.4503896,149.73296 60.5925974,148.622213 C60.6549351,148.166572 63.9101299,123.344903 67.7224675,94.2875343 L66.9315584,94.2875343 C63.127013,123.301881 59.8796104,148.06684 59.8231169,148.524436" id="Fill-231" fill="#FFCE2D"></path>
                        <path d="M60.5916234,2.38223882 C60.4552597,1.27344765 60.1085065,0.575319867 59.9487662,0.434520987 C59.826039,0.612475127 59.676039,1.37513573 59.8201948,2.4839269 C59.8201948,2.4839269 63.0948701,27.4405283 66.9364286,56.7247398 L67.7195455,56.7247398 C63.8740909,27.3975065 60.5916234,2.38223882 60.5916234,2.38223882" id="Fill-233" fill="#FFCE2D"></path>
                        <path d="M78.9859091,148.6228 C79.1359091,149.733546 79.4768182,150.435585 79.6365584,150.576384 C79.7553896,150.402341 79.9112338,149.629903 79.7573377,148.525023 C79.6988961,148.067426 76.4514935,123.302468 72.6469481,94.2881209 L71.8618831,94.2881209 C75.6742208,123.343534 78.9274675,148.167159 78.9859091,148.6228" id="Fill-235" fill="#FFCE2D"></path>
                        <path d="M56.7050649,7.42968311 C56.4888312,6.33458071 56.1011688,5.65600833 55.9336364,5.52694269 C55.8225974,5.71076345 55.7251948,6.48515729 55.9433766,7.58417077 C56.031039,8.02612281 60.4472727,30.3173232 65.6797403,56.7249353 L66.4725974,56.7249353 C61.2264935,30.2488793 56.7927273,7.87359069 56.7050649,7.42968311" id="Fill-237" fill="#FFCE2D"></path>
                        <path d="M82.8896104,143.577311 C83.1019481,144.67828 83.4915584,145.354897 83.6649351,145.485918 C83.7720779,145.296231 83.8714286,144.523792 83.6512987,143.426734 C83.6512987,143.426734 79.1980519,120.959535 73.9149351,94.2879254 L73.1220779,94.2879254 C78.4207792,121.024068 82.8896104,143.577311 82.8896104,143.577311" id="Fill-239" fill="#FFCE2D"></path>
                        <path d="M91.6311039,141.281898 C91.9895455,142.341801 92.459026,142.965618 92.646039,143.067306 C92.7317532,142.869797 92.7278571,142.087581 92.3694156,141.031589 C92.3694156,141.031589 85.1655195,119.729892 76.5629221,94.2883165 L75.7408442,94.2883165 C84.3804545,119.841358 91.6311039,141.281898 91.6311039,141.281898" id="Fill-241" fill="#FFCE2D"></path>
                        <path d="M47.9635714,9.72783371 C47.6051299,8.66793103 47.1356494,8.04606932 46.9505844,7.94047016 C46.8668182,8.13602416 46.8668182,8.91824015 47.2311039,9.97814283 C47.3733117,10.402495 54.5187662,31.5360158 63.0356494,56.7253264 L63.8577273,56.7253264 C55.3018831,31.42455 48.1057792,10.1521859 47.9635714,9.72783371" id="Fill-243" fill="#FFCE2D"></path>
                        <path d="M39.6005844,13.1519842 C39.1057792,12.1468367 38.5603247,11.5914633 38.3596753,11.5112862 C38.3070779,11.7185734 38.4122727,12.4949228 38.9051299,13.4942037 C39.096039,13.8892228 48.6473377,33.3292459 60.1408442,56.7253264 L61.0057792,56.7253264 C49.4401948,33.1786694 39.7973377,13.5489589 39.6005844,13.1519842" id="Fill-245" fill="#FFCE2D"></path>
                        <path d="M99.9997403,137.862636 C100.488701,138.861917 101.034156,139.415335 101.230909,139.493557 C101.287403,139.290181 101.182208,138.513831 100.691299,137.51455 C100.691299,137.51455 91.0679221,117.918084 79.4575325,94.2873387 L78.5945455,94.2873387 C90.278961,118.074527 99.9997403,137.862636 99.9997403,137.862636" id="Fill-247" fill="#FFCE2D"></path>
                        <path d="M31.7532468,17.6407308 C31.1298701,16.7098937 30.5103896,16.232742 30.3116883,16.1818979 C30.2766234,16.3930962 30.487013,17.1420681 31.1025974,18.0709496 C31.3402597,18.4307689 42.8220779,35.6786317 56.8305195,56.7241531 L57.7675325,56.7241531 C43.6285714,35.4811221 31.9928571,18.0005501 31.7532468,17.6407308" id="Fill-249" fill="#FFCE2D"></path>
                        <path d="M107.84513,133.366263 C108.460714,134.2971 109.082143,134.776208 109.28474,134.830963 C109.315909,134.619764 109.103571,133.864926 108.491883,132.938 C108.491883,132.938 96.9224026,115.555205 82.7678571,94.2887076 L81.8308442,94.2887076 C96.1159091,115.748804 107.84513,133.366263 107.84513,133.366263" id="Fill-251" fill="#FFCE2D"></path>
                        <path d="M24.5507143,23.1217183 C23.8143506,22.2788805 23.1481169,21.8838614 22.9375009,21.860395 C22.927987,22.0735488 23.2318831,22.7931875 23.9701948,23.6340697 C24.2429221,23.9489117 36.9987662,38.5489733 52.8792857,56.7257176 L53.9098052,56.7257176 C37.8208442,38.3103974 24.8312338,23.4385157 24.5507143,23.1217183" id="Fill-253" fill="#FFCE2D"></path>
                        <path d="M115.047662,127.886254 C115.774286,128.727136 116.45026,129.122155 116.658846,129.149532 C116.666494,128.934423 116.360649,128.214784 115.628182,127.373902 C115.628182,127.373902 102.771039,112.658464 86.7249351,94.2881209 L85.6944156,94.2881209 C101.950909,112.895084 115.047662,127.886254 115.047662,127.886254" id="Fill-255" fill="#FFCE2D"></path>
                        <path d="M121.470195,121.509824 C122.302013,122.249018 123.020844,122.550172 123.240974,122.548226 C123.209805,122.333107 122.812403,121.660401 121.980584,120.927073 C121.980584,120.927073 108.743571,109.274011 91.7214935,94.2887076 L90.5468182,94.2887076 C107.884481,109.551697 121.470195,121.509824 121.470195,121.509824" id="Fill-257" fill="#FFCE2D"></path>
                        <path d="M18.1281818,29.4971698 C17.2885714,28.7579756 16.5736364,28.4568225 16.3632468,28.460696 C16.3846753,28.6719319 16.7820779,29.3465932 17.6138961,30.0838318 C17.9119481,30.3458741 31.0476623,41.9070266 47.8768831,56.7241531 L49.0554545,56.7241531 C31.9048052,41.6254288 18.4281818,29.7611677 18.1281818,29.4971698" id="Fill-259" fill="#FFCE2D"></path>
                        <path d="M127.007922,114.345508 C127.933247,114.971281 128.687143,115.172701 128.901429,115.141413 C128.842987,114.936081 128.363766,114.322042 127.436494,113.696269 C127.436494,113.696269 115.091688,105.418468 98.5001299,94.2875343 L97.1033766,94.2875343 C114.178052,105.741132 127.007922,114.345508 127.007922,114.345508" id="Fill-261" fill="#FFCE2D"></path>
                        <path d="M12.5865584,36.6624639 C11.6612338,36.0386466 10.9073377,35.8333149 10.6969481,35.8606925 C10.7514935,36.0718908 11.2307143,36.6898414 12.157987,37.3117031 C12.4599351,37.5131238 24.7092857,45.7283473 41.1021429,56.7243487 L42.4988961,56.7243487 C25.6229221,45.4056832 12.8943506,36.86584 12.5865584,36.6624639" id="Fill-263" fill="#FFCE2D"></path>
                        <path d="M131.568117,106.517677 C132.571364,107.012429 133.336948,107.116072 133.543442,107.063273 C133.465519,106.861852 132.910325,106.312345 131.91487,105.821505 C131.91487,105.821505 122.383052,101.102787 108.618117,94.2877298 L106.86487,94.2877298 C121.381753,101.474339 131.568117,106.517677 131.568117,106.517677" id="Fill-265" fill="#FFCE2D"></path>
                        <path d="M8.02655844,44.4902949 C7.02525974,43.9974988 6.25772727,43.8879886 6.05123377,43.9466548 C6.12915584,44.1461199 6.68435065,44.6936711 7.68175325,45.1884227 C7.95448052,45.3253105 17.4142208,50.0068732 30.9824026,56.7241531 L32.7395455,56.7241531 C18.4135714,49.6333651 8.30902597,44.6310938 8.02655844,44.4902949" id="Fill-267" fill="#FFCE2D"></path>
                        <path d="M135.074221,98.157939 C136.126169,98.5216695 136.90539,98.523625 137.104091,98.4375812 C137.000844,98.2518049 136.379416,97.7785643 135.321623,97.4246115 C135.321623,97.4246115 131.871623,96.249332 126.117078,94.2879254 L123.719026,94.2879254 C130.759286,96.6873729 135.074221,98.157939 135.074221,98.157939" id="Fill-269" fill="#FFCE2D"></path>
                        <path d="M4.5224026,52.8480773 C3.47045455,52.4863024 2.68733766,52.4843469 2.49253247,52.5664795 C2.59383117,52.7561669 3.21525974,53.223541 4.27305195,53.5833603 C4.44058442,53.6420265 7.86331169,54.8075284 13.4853896,56.7239576 L15.8970779,56.7239576 C8.99902597,54.3733985 4.70941558,52.9126101 4.5224026,52.8480773" id="Fill-271" fill="#FFCE2D"></path>
                        <path d="M4.26935065,97.4216782 C3.20961039,97.7775865 2.59402597,98.2508272 2.48883117,98.4366035 C2.68753247,98.5246028 3.46675325,98.5187361 4.5225974,98.1569612 C4.70961039,98.0924284 8.98948052,96.6335956 15.8719481,94.2869476 L13.4661039,94.2869476 C7.85376623,96.1994657 4.43688312,97.3649675 4.26935065,97.4216782" id="Fill-273" fill="#FFCE2D"></path>
                        <path d="M135.321429,53.5843381 C136.379221,53.2303854 136.996753,52.7571447 137.101948,52.5655018 C136.903247,52.4853246 136.124026,52.4872802 135.072078,52.8510106 C135.072078,52.8510106 130.753247,54.3215767 123.703247,56.7249353 L126.107143,56.7249353 C131.869481,54.7615732 135.321429,53.5843381 135.321429,53.5843381" id="Fill-275" fill="#FFCE2D"></path>
                        <path d="M7.68214286,105.817789 C6.68279221,106.312541 6.12954545,106.862048 6.04772727,107.059557 C6.25811688,107.118223 7.02564935,107.010669 8.02305195,106.517873 C8.30551948,106.377074 18.4061688,101.374802 32.7243506,94.2879254 L30.975,94.2879254 C17.4107143,101.00325 7.95487013,105.682857 7.68214286,105.817789" id="Fill-277" fill="#FFCE2D"></path>
                        <path d="M131.914286,45.1882271 C132.913636,44.6954311 133.464935,44.1459243 133.538961,43.9484148 C133.336364,43.8858375 132.566883,43.9953477 131.567532,44.4920549 C131.567532,44.4920549 121.381169,49.5353925 106.858442,56.7239576 L108.60974,56.7239576 C122.380519,49.9069451 131.914286,45.1882271 131.914286,45.1882271" id="Fill-279" fill="#FFCE2D"></path>
                        <path d="M127.439805,37.3097476 C128.36513,36.691797 128.840455,36.0679797 128.891104,35.8646035 C128.688506,35.8313594 127.932662,36.0406021 127.001494,36.6644194 C127.001494,36.6644194 114.169675,45.2707509 97.095,56.7243487 L98.4937013,56.7243487 C115.091104,45.593415 127.439805,37.3097476 127.439805,37.3097476" id="Fill-281" fill="#FFCE2D"></path>
                        <path d="M12.1566234,113.696269 C11.2254545,114.31813 10.7481818,114.936081 10.6975325,115.139457 C10.905974,115.176612 11.6618182,114.963459 12.5812987,114.345508 C12.8871429,114.138221 25.6137662,105.604244 42.4858442,94.2875343 L41.091039,94.2875343 C24.7020779,105.279625 12.4546753,113.494848 12.1566234,113.696269" id="Fill-283" fill="#FFCE2D"></path>
                        <path d="M121.98,30.0816807 C122.813766,29.3483532 123.205325,28.6697808 123.230649,28.4603907 C123.016364,28.4527158 122.301429,28.7558245 121.45987,29.4989297 C121.45987,29.4989297 107.874156,41.4590124 90.5345455,56.7259131 L91.7150649,56.7259131 C108.741039,41.736699 121.98,30.0816807 121.98,30.0816807" id="Fill-285" fill="#FFCE2D"></path>
                        <path d="M17.6127273,120.923553 C16.7692208,121.658836 16.3854545,122.337409 16.3562338,122.546734 C16.5744156,122.552518 17.2912987,122.243543 18.1250649,121.50826 C18.4250649,121.244262 31.8997403,109.383912 49.0484416,94.2871431 L47.864026,94.2871431 C31.0387013,109.102314 17.9088312,120.661511 17.6127273,120.923553" id="Fill-287" fill="#FFCE2D"></path>
                        <path d="M23.9627922,127.372533 C23.2283766,128.21146 22.9283766,128.933054 22.9322353,129.146208 C23.1485065,129.124697 23.8186364,128.725767 24.5511039,127.884885 C24.8277273,127.568087 37.8153896,112.700117 53.9024026,94.2887076 L52.867987,94.2887076 C36.9894156,112.461541 24.2394156,127.057691 23.9627922,127.372533" id="Fill-289" fill="#FFCE2D"></path>
                        <path d="M115.627792,23.6344608 C116.366104,22.7935786 116.664156,22.0719844 116.658396,21.8607861 C116.44987,21.882297 115.773896,22.2831827 115.045325,23.1201538 C115.045325,23.1201538 101.946623,38.113279 85.6862338,56.7241531 L86.7167532,56.7241531 C102.768701,38.3518549 115.627792,23.6344608 115.627792,23.6344608" id="Fill-291" fill="#FFCE2D"></path>
                        <path d="M31.0987013,132.929787 C30.4831169,133.862579 30.2766234,134.617418 30.3058442,134.824705 C30.5181818,134.775817 31.1298701,134.294754 31.7532468,133.363917 C31.988961,133.004097 43.6207792,115.527436 57.7597403,94.2883165 L56.8246753,94.2883165 C42.8181818,115.329927 31.3383117,132.571923 31.0987013,132.929787" id="Fill-293" fill="#FFCE2D"></path>
                        <path d="M108.492078,18.0705584 C109.103766,17.1416769 109.316104,16.3927051 109.281039,16.1815068 C109.078442,16.2303953 108.460909,16.7134137 107.841429,17.6442507 C107.841429,17.6442507 96.1122078,35.2636661 81.8271429,56.7257176 L82.7602597,56.7257176 C96.9187013,35.455309 108.492078,18.0705584 108.492078,18.0705584" id="Fill-295" fill="#FFCE2D"></path>
                        <path d="M38.8967532,137.510248 C38.4038961,138.51344 38.2987013,139.28979 38.3551948,139.493166 C38.5597403,139.418855 39.1051948,138.857615 39.5980519,137.858334 C39.7928571,137.46136 49.4357143,117.833605 61.0012987,94.2869476 L60.1363636,94.2869476 C48.6428571,117.679117 39.0935065,137.117185 38.8967532,137.510248" id="Fill-297" fill="#FFCE2D"></path>
                        <path d="M100.692078,13.4938126 C101.186883,12.4945317 101.284286,11.7201379 101.227792,11.5148062 C101.034935,11.5910722 100.485584,12.1484011 99.9985714,13.1496376 C99.9985714,13.1496376 90.2738961,32.9377468 78.5894805,56.7249353 L79.4544156,56.7249353 C91.0667532,33.0902789 100.692078,13.4938126 100.692078,13.4938126" id="Fill-299" fill="#FFCE2D"></path>
                        <path d="M47.2196104,141.029829 C46.8650649,142.089732 46.8631169,142.866081 46.9468831,143.067502 C47.1358442,142.963858 47.6053247,142.340041 47.9637662,141.278183 C48.104026,140.85383 55.2962338,119.583422 63.8501299,94.288512 L63.0319481,94.288512 C54.5131169,119.475867 47.3657143,140.605477 47.2196104,141.029829" id="Fill-301" fill="#FFCE2D"></path>
                        <path d="M92.3635714,9.97618729 C92.7278571,8.91824015 92.7278571,8.13602416 92.6401948,7.94438124 C92.4551299,8.04411378 91.9895455,8.66988657 91.6311039,9.72978925 C91.6311039,9.72978925 84.3785065,31.1703298 75.7369481,56.7253264 L76.5551299,56.7253264 C85.1577273,31.27984 92.3635714,9.97618729 92.3635714,9.97618729" id="Fill-303" fill="#FFCE2D"></path>
                        <path d="M83.6505195,7.58241078 C83.8648052,6.48535284 83.7712987,5.71291455 83.6563636,5.52518271 C83.4907792,5.65229281 83.1031169,6.33477626 82.8888312,7.4318342 C82.8888312,7.4318342 78.42,29.9870325 73.1232468,56.7251309 L73.9122078,56.7251309 C79.1972727,30.0515653 83.6505195,7.58241078 83.6505195,7.58241078" id="Fill-305" fill="#FFCE2D"></path>
                        <path d="M55.9346104,143.425561 C55.7203247,144.524575 55.8196753,145.298968 55.9287662,145.482789 C56.1021429,145.357635 56.4878571,144.675151 56.7021429,143.576138 C56.7878571,143.134186 61.2235714,120.760853 66.4677273,94.2887076 L65.6787662,94.2887076 C60.4424026,120.694364 56.0242208,142.983609 55.9346104,143.425561" id="Fill-307" fill="#FFCE2D"></path>
                        <path d="M74.6978571,6.34592284 C74.7699351,5.2293095 74.5770779,4.47642661 74.4407143,4.31020571 C74.2887662,4.45687121 74.0004545,5.180421 73.9283766,6.29703434 C73.9283766,6.29703434 72.4205844,29.4017394 70.6361688,56.7245442 L71.4095455,56.7245442 C73.192013,29.4212948 74.6978571,6.34592284 74.6978571,6.34592284" id="Fill-309" fill="#FFCE2D"></path>
                        <path d="M64.890974,144.662049 C64.815,145.778662 65.0137013,146.533501 65.1442208,146.699722 C65.2961688,146.553056 65.5883766,145.827551 65.6624026,144.708982 C65.6935714,144.257252 67.1896753,121.342235 68.9565584,94.2873387 L68.1812338,94.2873387 C66.4162987,121.320724 64.9221429,144.210319 64.890974,144.662049" id="Fill-311" fill="#FFCE2D"></path>
                        <path d="M65.6614286,6.29527436 C65.5893506,5.18061656 65.2951948,4.45706676 65.1432468,4.31040126 C65.0146753,4.47662216 64.8120779,5.23341614 64.89,6.34807394 C64.89,6.34807394 66.3977922,29.4234459 68.1802597,56.7247398 L68.9555844,56.7247398 C67.1711688,29.3999794 65.6614286,6.29527436 65.6614286,6.29527436" id="Fill-313" fill="#FFCE2D"></path>
                        <path d="M73.9178571,144.713675 C73.9938312,145.830289 74.287987,146.553838 74.4457792,146.702459 C74.5762987,146.534283 74.7691558,145.777489 74.6970779,144.660876 C74.6698052,144.209146 73.1737013,121.321506 71.4087662,94.2881209 L70.6314935,94.2881209 C72.3964286,121.343017 73.8905844,144.25999 73.9178571,144.713675" id="Fill-315" fill="#FFCE2D"></path>
                    </g>
                    <path d="M49.5005844,78.2345716 L51.7311039,73.6918522 L53.9869481,78.2345716 L49.5005844,78.2345716 Z M58.2668182,82.3157836 L58.2668182,82.3157836 L51.7252597,69.0591779 L45.2012338,82.433116 C45.022013,82.7792466 44.8194156,83.0393334 44.4356494,83.2603094 L47.7044805,83.2603094 C47.2895455,82.9884893 47.3791558,82.7284025 47.5778571,82.3157836 L48.5811039,80.260511 L54.8772078,80.260511 L55.9135714,82.3157836 C56.1083766,82.7284025 56.2057792,82.9884893 55.8005844,83.2603094 L59.0908442,83.2603094 C58.6642208,83.0139114 58.4674675,82.7225359 58.2668182,82.3157836 L58.2668182,82.3157836 Z" id="Fill-318" fill="#414731"></path>
                    <path d="M29.4531818,69.5128632 L29.4531818,71.5094696 L29.4531818,72.0628874 C29.7278571,71.6502684 30.1330519,71.5094696 30.5401948,71.5094696 L34.3895455,71.5094696 L34.3895455,82.1788958 C34.3895455,82.5915147 34.2882468,82.849646 33.8791558,83.1214661 L34.3895455,83.1214661 L36.8655195,83.1214661 L37.3778571,83.1214661 C36.9687662,82.849646 36.8655195,82.5915147 36.8655195,82.1788958 L36.8655195,71.5094696 L40.7168182,71.5094696 C41.1356494,71.5094696 41.5388961,71.6502684 41.8116234,72.0628874 L41.8116234,71.5094696 L41.8116234,69.5128632 L29.4531818,69.5128632 Z" id="Fill-320" fill="#414731"></path>
                    <path d="M66.3730519,72.4414799 L66.3730519,82.0646922 C66.3944805,82.4284227 66.4061688,82.7354425 66.9321429,83.0659287 L63.7003247,83.0659287 C64.2107143,82.7100204 64.2282468,82.4734001 64.2574675,82.0646922 L64.2185065,70.9239809 C64.1698052,70.3705631 63.9574675,69.9618552 63.4081169,69.7936788 L67.4055195,69.7936788 C67.6314935,70.0791876 72.0301948,77.7233935 72.0301948,77.7233935 C72.0301948,77.7233935 76.0996753,70.1104762 76.1892857,69.7839011 L80.3951299,69.7839011 C79.8438312,69.9266555 79.6840909,70.3705631 79.6373377,70.9239809 L79.6373377,81.9610486 C79.6840909,82.5125109 79.8282468,82.8918857 80.3775974,83.0600621 L76.650974,83.0600621 C77.2022727,82.8918857 77.3464286,82.5125109 77.3931818,81.9610486 L77.3931818,72.4414799 L71.9113636,82.1957134 L66.3730519,72.4414799 Z" id="Fill-322" fill="#414731"></path>
                    <path d="M90.1948052,78.2345716 L92.3844156,73.7700738 L94.6032468,78.2345716 L90.1948052,78.2345716 Z M98.9201299,82.3157836 L98.9201299,82.3157836 L92.3785714,69.0591779 L85.8545455,82.433116 C85.6772727,82.7792466 85.4727273,83.0393334 85.0928571,83.2603094 L88.3616883,83.2603094 C87.9448052,82.9884893 88.0344156,82.7284025 88.2311688,82.3157836 L89.2363636,80.260511 L95.5305195,80.260511 L96.5668831,82.3157836 C96.7616883,82.7284025 96.861039,82.9884893 96.4558442,83.2603094 L99.7461039,83.2603094 C99.3194805,83.0139114 99.1207792,82.7225359 98.9201299,82.3157836 L98.9201299,82.3157836 Z" id="Fill-324" fill="#414731"></path>
                    <path d="M111.351234,75.7203338 C112.549286,75.7203338 112.866818,75.6245124 113.340195,75.3409591 C113.784351,75.0769612 114.078506,74.3358115 114.078506,73.6943944 C114.078506,73.0744882 113.784351,72.454582 113.340195,72.1690732 C112.866818,71.9070308 112.597987,71.8112094 111.351234,71.8112094 L107.051883,71.8112094 L107.051883,75.7203338 L111.351234,75.7203338 Z M106.977857,82.1481938 C107.02461,82.695745 107.044091,82.7485446 107.529156,83.0633865 L104.268117,83.0633865 C104.784351,82.7485446 104.786299,82.695745 104.831104,82.1481938 L104.831104,70.89015 C104.786299,70.3895318 104.646039,69.9143356 104.102532,69.7715812 L110.661623,69.7715812 C113.176558,69.7715812 113.821364,69.8908691 114.688247,70.3425988 C115.699286,70.8686391 116.369416,72.3392052 116.334351,73.7647938 C116.291494,75.4993578 115.346688,77.0813897 113.326558,77.46272 L116.07526,81.7844634 C116.54474,82.4982355 116.829156,82.9753872 117.320065,83.0712087 L113.466818,83.0712087 C113.797987,82.9401875 113.835,82.7329003 113.821364,82.5451684 C113.809675,82.427836 113.749286,82.2596596 113.536948,81.9272178 L110.788247,77.7012959 L106.977857,77.7012959 L106.977857,82.1481938 Z" id="Fill-326" fill="#414731"></path>
                    <path d="M153.106948,81.3788844 C152.847857,81.2048413 152.553701,81.2830629 152.417338,81.3143515 C152.247857,81.3534623 152.086169,81.4903501 151.474481,81.8892803 C149.997857,82.8553171 147.958247,83.4732677 146.226429,83.4732677 C144.352403,83.4732677 142.499805,82.9042056 141.303701,81.9147023 C139.829026,80.7276896 138.866688,78.549218 138.866688,76.3961685 C138.866688,72.2621569 141.91539,69.3405802 146.226429,69.3405802 C147.819935,69.3405802 149.36474,69.7610212 151.380974,70.701636 C151.756948,70.9011011 151.943961,70.9499896 152.084221,70.9499896 C152.224481,70.9499896 152.409545,70.9812782 152.619935,70.8072351 L151.273831,73.1558387 C150.593961,72.6904202 150.607597,72.6767314 149.738766,72.2562903 C148.593312,71.6852726 147.609545,71.4642966 146.390065,71.4642966 C143.273182,71.4642966 141.282273,73.3748592 141.282273,76.4685234 C141.282273,79.5132992 143.273182,81.3065294 146.483571,81.3065294 C147.866688,81.3065294 149.086169,80.9349768 150.161494,80.1664496 C150.773182,79.722542 151.139416,79.2512569 151.100455,78.6528616 L153.106948,81.3788844 Z" id="Fill-328" fill="#414731"></path>
                    <path d="M161.542208,78.0120312 L161.542208,82.0795543 C161.542208,82.5234619 161.625974,82.7855043 162.196753,83.1277238 L158.553896,83.1277238 C159.099351,82.8246151 159.206494,82.5234619 159.206494,82.0795543 L159.206494,70.7276447 C159.157792,70.1624936 159.105195,69.8730737 158.553896,69.7009862 L162.196753,69.7009862 C161.643506,69.8496072 161.588961,70.1624936 161.542208,70.7276447 L161.542208,75.5402286 C161.542208,75.5402286 168.617532,69.7459636 168.307792,69.6990306 L171.685714,69.6990306 C171.278571,69.7968076 170.220779,70.5868458 170.220779,70.5868458 L165.835714,74.6093916 L170.715584,81.1780504 C171.734416,82.4902177 172.324675,83.0436356 172.875974,83.1414126 L168.44026,83.1414126 C169.030519,82.8656814 168.905844,82.2457752 168.434416,81.6845353 L164.113636,76.023247 L161.542208,78.0120312 Z" id="Fill-330" fill="#414731"></path>
                    <path d="M125.967468,78.2345716 L128.235,73.6116751 L130.531753,78.2345716 L125.967468,78.2345716 Z M134.772662,82.3157836 L134.772662,82.3157836 L128.229156,69.0591779 L121.70513,82.433116 C121.527857,82.7792466 121.323312,83.0393334 120.941494,83.2603094 L124.210325,83.2603094 C123.79539,82.9884893 123.885,82.7284025 124.081753,82.3157836 L125.086948,80.260511 L131.381104,80.260511 L132.419416,82.3157836 C132.612273,82.7284025 132.711623,82.9884893 132.306429,83.2603094 L135.59474,83.2603094 C135.170065,83.0139114 134.971364,82.7225359 134.772662,82.3157836 L134.772662,82.3157836 Z" id="Fill-332" fill="#414731"></path>
                </g>
            </g>
        </g>
    </g>
</svg>